<svg width="750" height="80" viewBox="0 0 750 80" fill="none" xmlns="http://www.w3.org/2000/svg">
<rect x="1" y="1" width="748" height="78" rx="7" fill="#F2FAF3" stroke="#2E7D33" stroke-width="2"/>
<path d="M90.172 37.4659C90.064 36.7939 89.872 36.2359 89.596 35.7919C89.32 35.3359 88.966 34.9939 88.534 34.7659C88.114 34.5379 87.622 34.4299 87.058 34.4419C86.542 34.4419 86.086 34.5859 85.69 34.8739C85.306 35.1619 85.114 35.5339 85.114 35.9899C85.114 36.3619 85.216 36.6859 85.42 36.9619C85.636 37.2379 85.96 37.4959 86.392 37.7359C86.824 37.9759 87.37 38.2339 88.03 38.5099C88.486 38.6899 88.954 38.8999 89.434 39.1399C89.914 39.3799 90.358 39.6679 90.766 40.0039C91.174 40.3279 91.504 40.7119 91.756 41.1559C92.008 41.5879 92.134 42.0979 92.134 42.6859C92.134 43.3939 91.942 44.0239 91.558 44.5759C91.174 45.1279 90.634 45.5599 89.938 45.8719C89.254 46.1719 88.45 46.3219 87.526 46.3219C87.046 46.3219 86.524 46.2439 85.96 46.0879C85.408 45.9439 84.886 45.7279 84.394 45.4399L84.448 46.1959H83.062V41.9839H84.25C84.418 42.9919 84.802 43.7539 85.402 44.2699C86.014 44.7739 86.74 45.0259 87.58 45.0259C88.012 45.0259 88.39 44.9479 88.714 44.7919C89.038 44.6359 89.29 44.4319 89.47 44.1799C89.65 43.9159 89.74 43.6339 89.74 43.3339C89.74 42.9139 89.59 42.5659 89.29 42.2899C89.002 42.0139 88.636 41.7799 88.192 41.5879C87.76 41.3959 87.316 41.2099 86.86 41.0299C86.284 40.7899 85.744 40.5379 85.24 40.2739C84.748 39.9979 84.316 39.6859 83.944 39.3379C83.572 38.9899 83.284 38.5939 83.08 38.1499C82.876 37.6939 82.774 37.1719 82.774 36.5839C82.774 36.2119 82.846 35.8279 82.99 35.4319C83.134 35.0239 83.368 34.6519 83.692 34.3159C84.016 33.9679 84.448 33.6859 84.988 33.4699C85.528 33.2539 86.194 33.1459 86.986 33.1459C87.466 33.1459 87.988 33.2179 88.552 33.3619C89.128 33.5059 89.62 33.7219 90.028 34.0099L89.956 33.2719H91.36V37.4659H90.172ZM97.0812 46.3219C96.3612 46.3219 95.7792 46.1839 95.3352 45.9079C94.9032 45.6319 94.5852 45.1999 94.3812 44.6119C94.1892 44.0239 94.0932 43.2679 94.0932 42.3439V40.2739C94.0932 40.0579 94.0992 39.8119 94.1112 39.5359C94.1232 39.2479 94.1352 38.9719 94.1472 38.7079C93.9552 38.7199 93.7272 38.7319 93.4632 38.7439C93.2112 38.7439 93.0192 38.7499 92.8872 38.7619V37.3939H93.0672C93.8112 37.3939 94.3992 37.3339 94.8312 37.2139C95.2632 37.0939 95.5392 36.9739 95.6592 36.8539H96.6492V42.3619C96.6492 43.1419 96.7512 43.7239 96.9552 44.1079C97.1592 44.4799 97.4832 44.6659 97.9272 44.6659C98.2392 44.6659 98.5512 44.5819 98.8632 44.4139C99.1872 44.2339 99.4512 44.0299 99.6552 43.8019V40.2739C99.6552 40.0579 99.6612 39.8119 99.6732 39.5359C99.6852 39.2479 99.7032 38.9719 99.7272 38.7079C99.5352 38.7199 99.3072 38.7319 99.0432 38.7439C98.7912 38.7439 98.5992 38.7499 98.4672 38.7619V37.3939H98.8992C99.4632 37.3939 99.9612 37.3339 100.393 37.2139C100.825 37.0819 101.101 36.9619 101.221 36.8539H102.211V43.1359C102.211 43.3039 102.205 43.5439 102.193 43.8559C102.181 44.1559 102.163 44.4439 102.139 44.7199C102.331 44.6959 102.541 44.6839 102.769 44.6839C103.009 44.6719 103.189 44.6659 103.309 44.6659V46.0339H99.8892C99.8772 45.8779 99.8592 45.7219 99.8352 45.5659C99.8232 45.4099 99.8052 45.2539 99.7812 45.0979C99.4092 45.4099 99.0072 45.6919 98.5752 45.9439C98.1552 46.1959 97.6572 46.3219 97.0812 46.3219ZM104.482 46.0339V44.8639C104.818 44.8639 105.058 44.7979 105.202 44.6659C105.346 44.5339 105.436 44.3479 105.472 44.1079C105.52 43.8559 105.544 43.5739 105.544 43.2619V40.2379C105.544 40.0219 105.55 39.7819 105.562 39.5179C105.574 39.2419 105.592 38.9719 105.616 38.7079C105.424 38.7199 105.196 38.7319 104.932 38.7439C104.68 38.7439 104.488 38.7499 104.356 38.7619V37.3939C104.908 37.3939 105.376 37.3639 105.76 37.3039C106.144 37.2439 106.444 37.1719 106.66 37.0879C106.888 37.0039 107.044 36.9259 107.128 36.8539H108.01C108.034 36.9739 108.046 37.1239 108.046 37.3039C108.058 37.4839 108.07 37.6339 108.082 37.7539C108.49 37.4419 108.928 37.1959 109.396 37.0159C109.876 36.8359 110.326 36.7459 110.746 36.7459C111.298 36.7459 111.754 36.8479 112.114 37.0519C112.474 37.2439 112.762 37.5379 112.978 37.9339C113.41 37.5739 113.884 37.2859 114.4 37.0699C114.928 36.8539 115.432 36.7459 115.912 36.7459C116.884 36.7459 117.616 37.0279 118.108 37.5919C118.612 38.1439 118.864 39.1099 118.864 40.4899V43.1359C118.864 43.3039 118.858 43.5439 118.846 43.8559C118.834 44.1559 118.816 44.4439 118.792 44.7199C118.984 44.6959 119.194 44.6839 119.422 44.6839C119.662 44.6719 119.842 44.6659 119.962 44.6659V46.0339H115.408V44.8639C115.684 44.8639 115.882 44.7979 116.002 44.6659C116.134 44.5339 116.218 44.3479 116.254 44.1079C116.29 43.8559 116.308 43.5739 116.308 43.2619V40.5079C116.296 39.7279 116.164 39.1879 115.912 38.8879C115.672 38.5879 115.348 38.4319 114.94 38.4199C114.628 38.4079 114.334 38.4619 114.058 38.5819C113.794 38.7019 113.554 38.8459 113.338 39.0139C113.398 39.2539 113.44 39.5179 113.464 39.8059C113.488 40.0939 113.5 40.3999 113.5 40.7239C113.5 41.1319 113.5 41.5339 113.5 41.9299C113.5 42.3259 113.5 42.7279 113.5 43.1359C113.5 43.3039 113.494 43.5439 113.482 43.8559C113.47 44.1559 113.452 44.4439 113.428 44.7199C113.62 44.6959 113.83 44.6839 114.058 44.6839C114.286 44.6719 114.466 44.6659 114.598 44.6659V46.0339H109.954V44.8639C110.266 44.8639 110.488 44.7979 110.62 44.6659C110.764 44.5339 110.854 44.3479 110.89 44.1079C110.926 43.8559 110.944 43.5739 110.944 43.2619L110.926 40.4539C110.926 39.6739 110.812 39.1399 110.584 38.8519C110.356 38.5639 110.038 38.4139 109.63 38.4019C109.33 38.4019 109.048 38.4679 108.784 38.5999C108.532 38.7319 108.304 38.8879 108.1 39.0679C108.1 39.2239 108.1 39.3739 108.1 39.5179C108.1 39.6619 108.1 39.8119 108.1 39.9679V43.1359C108.1 43.3039 108.094 43.5439 108.082 43.8559C108.07 44.1559 108.052 44.4439 108.028 44.7199C108.22 44.6959 108.418 44.6839 108.622 44.6839C108.826 44.6719 108.988 44.6659 109.108 44.6659V46.0339H104.482ZM126.045 46.0339C126.021 45.8659 126.003 45.7279 125.991 45.6199C125.991 45.4999 125.985 45.3619 125.973 45.2059C125.565 45.6139 125.133 45.9019 124.677 46.0699C124.221 46.2379 123.759 46.3219 123.291 46.3219C122.523 46.3219 121.923 46.0939 121.491 45.6379C121.059 45.1819 120.843 44.6119 120.843 43.9279C120.843 43.3519 120.987 42.8599 121.275 42.4519C121.575 42.0439 121.965 41.7139 122.445 41.4619C122.937 41.1979 123.477 40.9999 124.065 40.8679C124.665 40.7239 125.265 40.6399 125.865 40.6159V39.6799C125.865 39.3679 125.823 39.0859 125.739 38.8339C125.667 38.5819 125.535 38.3839 125.343 38.2399C125.163 38.0959 124.905 38.0299 124.569 38.0419C124.341 38.0539 124.119 38.1019 123.903 38.1859C123.687 38.2699 123.501 38.3899 123.345 38.5459C123.441 38.6539 123.501 38.7739 123.525 38.9059C123.549 39.0259 123.561 39.1339 123.561 39.2299C123.561 39.4699 123.465 39.7219 123.273 39.9859C123.081 40.2379 122.775 40.3579 122.355 40.3459C121.995 40.3339 121.719 40.2079 121.527 39.9679C121.335 39.7279 121.239 39.4459 121.239 39.1219C121.239 38.6419 121.407 38.2279 121.743 37.8799C122.091 37.5199 122.553 37.2439 123.129 37.0519C123.705 36.8479 124.341 36.7459 125.037 36.7459C126.093 36.7459 126.909 37.0219 127.485 37.5739C128.073 38.1139 128.367 38.9839 128.367 40.1839C128.367 40.5919 128.367 40.9399 128.367 41.2279C128.367 41.5159 128.361 41.8039 128.349 42.0919C128.349 42.3799 128.349 42.7279 128.349 43.1359C128.349 43.3039 128.343 43.5439 128.331 43.8559C128.319 44.1559 128.301 44.4439 128.277 44.7199C128.481 44.6959 128.697 44.6839 128.925 44.6839C129.153 44.6719 129.327 44.6659 129.447 44.6659V46.0339H126.045ZM125.847 41.8939C125.511 41.9299 125.193 41.9899 124.893 42.0739C124.593 42.1579 124.329 42.2719 124.101 42.4159C123.885 42.5599 123.711 42.7339 123.579 42.9379C123.459 43.1419 123.399 43.3699 123.399 43.6219C123.411 43.9579 123.519 44.1979 123.723 44.3419C123.927 44.4859 124.161 44.5579 124.425 44.5579C124.701 44.5579 124.959 44.4979 125.199 44.3779C125.439 44.2579 125.655 44.1019 125.847 43.9099C125.847 43.7899 125.847 43.6759 125.847 43.5679C125.847 43.4479 125.847 43.3279 125.847 43.2079C125.847 42.9919 125.847 42.7759 125.847 42.5599C125.847 42.3319 125.847 42.1099 125.847 41.8939ZM123.921 35.8639L123.093 35.1259L124.569 32.6059C124.701 32.4019 124.857 32.2459 125.037 32.1379C125.229 32.0179 125.433 31.9579 125.649 31.9579C125.865 31.9459 126.069 32.0179 126.261 32.1739C126.453 32.3419 126.561 32.5399 126.585 32.7679C126.609 32.9839 126.573 33.1999 126.477 33.4159C126.393 33.6199 126.267 33.7999 126.099 33.9559L123.921 35.8639ZM134.921 44.8639C135.257 44.8639 135.497 44.7979 135.641 44.6659C135.797 44.5339 135.893 44.3479 135.929 44.1079C135.965 43.8559 135.983 43.5739 135.983 43.2619V35.8639C135.983 35.6479 135.989 35.4019 136.001 35.1259C136.013 34.8379 136.031 34.5619 136.055 34.2979C135.863 34.3099 135.635 34.3219 135.371 34.3339C135.119 34.3339 134.927 34.3399 134.795 34.3519V32.9839C135.359 32.9839 135.827 32.9539 136.199 32.8939C136.583 32.8339 136.883 32.7619 137.099 32.6779C137.327 32.5939 137.483 32.5159 137.567 32.4439H138.539V43.1359C138.539 43.3039 138.533 43.5439 138.521 43.8559C138.509 44.1559 138.491 44.4439 138.467 44.7199C138.671 44.6959 138.887 44.6839 139.115 44.6839C139.343 44.6719 139.517 44.6659 139.637 44.6659V46.0339H134.921V44.8639ZM145.226 46.3219C144.362 46.3219 143.582 46.1359 142.886 45.7639C142.19 45.3919 141.638 44.8639 141.23 44.1799C140.834 43.4839 140.636 42.6679 140.636 41.7319C140.636 40.7359 140.84 39.8659 141.248 39.1219C141.668 38.3659 142.22 37.7839 142.904 37.3759C143.6 36.9559 144.356 36.7459 145.172 36.7459C146.036 36.7459 146.81 36.9319 147.494 37.3039C148.178 37.6759 148.718 38.2099 149.114 38.9059C149.51 39.5899 149.708 40.4119 149.708 41.3719C149.708 42.3799 149.516 43.2559 149.132 43.9999C148.748 44.7439 148.22 45.3199 147.548 45.7279C146.876 46.1239 146.102 46.3219 145.226 46.3219ZM145.298 45.0439C145.778 45.0319 146.138 44.8639 146.378 44.5399C146.63 44.2159 146.804 43.8079 146.9 43.3159C146.996 42.8239 147.044 42.3259 147.044 41.8219C147.044 41.3779 147.008 40.9279 146.936 40.4719C146.876 40.0159 146.774 39.6019 146.63 39.2299C146.486 38.8579 146.288 38.5579 146.036 38.3299C145.796 38.1019 145.496 37.9939 145.136 38.0059C144.668 38.0179 144.296 38.1859 144.02 38.5099C143.756 38.8339 143.564 39.2419 143.444 39.7339C143.336 40.2139 143.282 40.7179 143.282 41.2459C143.282 41.8579 143.348 42.4579 143.48 43.0459C143.612 43.6339 143.822 44.1199 144.11 44.5039C144.41 44.8759 144.806 45.0559 145.298 45.0439ZM155.151 46.3219C154.635 46.3219 154.131 46.2559 153.639 46.1239C153.147 45.9919 152.763 45.8239 152.487 45.6199L152.523 46.1599H151.155L151.083 43.0639H152.253C152.289 43.4239 152.433 43.7539 152.685 44.0539C152.937 44.3539 153.267 44.5939 153.675 44.7739C154.083 44.9419 154.539 45.0259 155.043 45.0259C155.247 45.0259 155.439 44.9959 155.619 44.9359C155.811 44.8759 155.967 44.7799 156.087 44.6479C156.219 44.5039 156.285 44.3299 156.285 44.1259C156.285 43.8979 156.201 43.7119 156.033 43.5679C155.877 43.4239 155.643 43.2859 155.331 43.1539C155.031 43.0219 154.653 42.8719 154.197 42.7039C153.825 42.5599 153.447 42.4099 153.063 42.2539C152.691 42.0979 152.343 41.9119 152.019 41.6959C151.707 41.4679 151.455 41.1919 151.263 40.8679C151.071 40.5319 150.975 40.1239 150.975 39.6439C150.975 39.2959 151.041 38.9539 151.173 38.6179C151.305 38.2699 151.509 37.9579 151.785 37.6819C152.061 37.3939 152.409 37.1659 152.829 36.9979C153.261 36.8299 153.771 36.7459 154.359 36.7459C154.683 36.7459 155.049 36.7999 155.457 36.9079C155.877 37.0039 156.231 37.1539 156.519 37.3579V36.8359H157.887V40.0219H156.717C156.645 39.6019 156.495 39.2419 156.267 38.9419C156.051 38.6419 155.769 38.4139 155.421 38.2579C155.073 38.0899 154.683 38.0059 154.251 38.0059C153.951 38.0059 153.675 38.0779 153.423 38.2219C153.183 38.3659 153.063 38.6119 153.063 38.9599C153.063 39.2359 153.159 39.4579 153.351 39.6259C153.543 39.7819 153.807 39.9139 154.143 40.0219C154.479 40.1299 154.851 40.2559 155.259 40.3999C155.871 40.6039 156.411 40.8439 156.879 41.1199C157.359 41.3959 157.737 41.7319 158.013 42.1279C158.289 42.5119 158.427 42.9859 158.427 43.5499C158.427 44.1739 158.271 44.6899 157.959 45.0979C157.647 45.5059 157.239 45.8119 156.735 46.0159C156.243 46.2199 155.715 46.3219 155.151 46.3219ZM164.296 50.6239V49.4539C164.632 49.4539 164.872 49.3879 165.016 49.2559C165.172 49.1239 165.268 48.9319 165.304 48.6799C165.352 48.4399 165.376 48.1639 165.376 47.8519V40.2379C165.376 40.0219 165.382 39.7819 165.394 39.5179C165.406 39.2419 165.424 38.9719 165.448 38.7079C165.256 38.7199 165.028 38.7319 164.764 38.7439C164.5 38.7439 164.302 38.7499 164.17 38.7619V37.3939C164.734 37.3939 165.202 37.3639 165.574 37.3039C165.958 37.2439 166.258 37.1719 166.474 37.0879C166.702 37.0039 166.858 36.9259 166.942 36.8539H167.824C167.848 36.9739 167.866 37.1239 167.878 37.3039C167.89 37.4719 167.902 37.6099 167.914 37.7179C168.334 37.3579 168.748 37.1059 169.156 36.9619C169.576 36.8179 169.972 36.7459 170.344 36.7459C171.064 36.7459 171.694 36.9319 172.234 37.3039C172.786 37.6759 173.212 38.2039 173.512 38.8879C173.824 39.5719 173.98 40.3759 173.98 41.2999C173.98 42.2599 173.794 43.1239 173.422 43.8919C173.05 44.6479 172.528 45.2419 171.856 45.6739C171.196 46.1059 170.416 46.3219 169.516 46.3219C169.192 46.3219 168.898 46.2859 168.634 46.2139C168.382 46.1539 168.142 46.0819 167.914 45.9979V47.7259C167.914 47.8939 167.908 48.1279 167.896 48.4279C167.896 48.7399 167.884 49.0339 167.86 49.3099C168.052 49.2859 168.262 49.2679 168.49 49.2559C168.718 49.2559 168.892 49.2559 169.012 49.2559V50.6239H164.296ZM169.228 44.9719C169.78 44.9599 170.206 44.7979 170.506 44.4859C170.818 44.1619 171.034 43.7419 171.154 43.2259C171.274 42.7099 171.334 42.1579 171.334 41.5699C171.334 41.0179 171.268 40.4959 171.136 40.0039C171.004 39.5119 170.794 39.1159 170.506 38.8159C170.218 38.5039 169.84 38.3539 169.372 38.3659C169.072 38.3779 168.796 38.4559 168.544 38.5999C168.292 38.7319 168.082 38.9179 167.914 39.1579C167.914 39.5299 167.914 39.9019 167.914 40.2739C167.914 40.6339 167.914 40.9939 167.914 41.3539C167.914 41.7139 167.914 42.0799 167.914 42.4519C167.914 42.8119 167.914 43.1779 167.914 43.5499C167.914 43.9099 167.914 44.2759 167.914 44.6479C168.046 44.7319 168.232 44.8099 168.472 44.8819C168.712 44.9539 168.964 44.9839 169.228 44.9719ZM179.013 46.3219C178.293 46.3219 177.711 46.1839 177.267 45.9079C176.835 45.6319 176.517 45.1999 176.313 44.6119C176.121 44.0239 176.025 43.2679 176.025 42.3439V40.2739C176.025 40.0579 176.031 39.8119 176.043 39.5359C176.055 39.2479 176.067 38.9719 176.079 38.7079C175.887 38.7199 175.659 38.7319 175.395 38.7439C175.143 38.7439 174.951 38.7499 174.819 38.7619V37.3939H174.999C175.743 37.3939 176.331 37.3339 176.763 37.2139C177.195 37.0939 177.471 36.9739 177.591 36.8539H178.581V42.3619C178.581 43.1419 178.683 43.7239 178.887 44.1079C179.091 44.4799 179.415 44.6659 179.859 44.6659C180.171 44.6659 180.483 44.5819 180.795 44.4139C181.119 44.2339 181.383 44.0299 181.587 43.8019V40.2739C181.587 40.0579 181.593 39.8119 181.605 39.5359C181.617 39.2479 181.635 38.9719 181.659 38.7079C181.467 38.7199 181.239 38.7319 180.975 38.7439C180.723 38.7439 180.531 38.7499 180.399 38.7619V37.3939H180.831C181.395 37.3939 181.893 37.3339 182.325 37.2139C182.757 37.0819 183.033 36.9619 183.153 36.8539H184.143V43.1359C184.143 43.3039 184.137 43.5439 184.125 43.8559C184.113 44.1559 184.095 44.4439 184.071 44.7199C184.263 44.6959 184.473 44.6839 184.701 44.6839C184.941 44.6719 185.121 44.6659 185.241 44.6659V46.0339H181.821C181.809 45.8779 181.791 45.7219 181.767 45.5659C181.755 45.4099 181.737 45.2539 181.713 45.0979C181.341 45.4099 180.939 45.6919 180.507 45.9439C180.087 46.1959 179.589 46.3219 179.013 46.3219ZM186.414 46.0339V44.8639C186.75 44.8639 186.99 44.7979 187.134 44.6659C187.278 44.5339 187.368 44.3479 187.404 44.1079C187.452 43.8559 187.476 43.5739 187.476 43.2619V40.2379C187.476 40.0219 187.482 39.7819 187.494 39.5179C187.506 39.2419 187.524 38.9719 187.548 38.7079C187.356 38.7199 187.128 38.7319 186.864 38.7439C186.612 38.7439 186.42 38.7499 186.288 38.7619V37.3939C186.84 37.3939 187.308 37.3639 187.692 37.3039C188.076 37.2439 188.376 37.1719 188.592 37.0879C188.82 37.0039 188.976 36.9259 189.06 36.8539H189.942C189.966 37.0099 189.978 37.1239 189.978 37.1959C189.978 37.2679 189.978 37.3399 189.978 37.4119C189.99 37.4719 190.014 37.5859 190.05 37.7539C190.29 37.5619 190.566 37.3939 190.878 37.2499C191.19 37.0939 191.502 36.9739 191.814 36.8899C192.126 36.7939 192.402 36.7459 192.642 36.7459C193.746 36.7459 194.526 37.0639 194.982 37.6999C195.45 38.3239 195.684 39.3319 195.684 40.7239V43.1359C195.684 43.3039 195.678 43.5439 195.666 43.8559C195.654 44.1559 195.636 44.4439 195.612 44.7199C195.816 44.6959 196.032 44.6839 196.26 44.6839C196.488 44.6719 196.662 44.6659 196.782 44.6659V46.0339H192.066V44.8639C192.402 44.8639 192.642 44.7979 192.786 44.6659C192.942 44.5339 193.038 44.3479 193.074 44.1079C193.122 43.8559 193.146 43.5739 193.146 43.2619L193.128 40.7059C193.128 39.9259 193.014 39.3499 192.786 38.9779C192.57 38.5939 192.198 38.4019 191.67 38.4019C191.37 38.4019 191.07 38.4679 190.77 38.5999C190.482 38.7319 190.236 38.8879 190.032 39.0679C190.032 39.2359 190.032 39.4099 190.032 39.5899C190.032 39.7579 190.032 39.9259 190.032 40.0939V43.1359C190.032 43.3039 190.026 43.5439 190.014 43.8559C190.002 44.1559 189.984 44.4439 189.96 44.7199C190.152 44.6959 190.362 44.6839 190.59 44.6839C190.83 44.6719 191.01 44.6659 191.13 44.6659V46.0339H186.414ZM201.351 46.3219C200.991 46.3219 200.643 46.2799 200.307 46.1959C199.971 46.1119 199.671 45.9559 199.407 45.7279C199.143 45.4879 198.933 45.1399 198.777 44.6839C198.621 44.2279 198.543 43.6219 198.543 42.8659L198.579 38.5279H197.355V37.0339C197.727 37.0219 198.087 36.8959 198.435 36.6559C198.783 36.4159 199.077 36.1039 199.317 35.7199C199.569 35.3359 199.737 34.9339 199.821 34.5139H201.153L201.135 37.0339H203.421V38.4199L201.135 38.4739L201.117 42.9019C201.117 43.1779 201.141 43.4539 201.189 43.7299C201.249 43.9939 201.357 44.2159 201.513 44.3959C201.669 44.5639 201.897 44.6479 202.197 44.6479C202.365 44.6479 202.593 44.5879 202.881 44.4679C203.181 44.3479 203.499 44.0479 203.835 43.5679L204.699 44.3779C204.375 44.8579 204.039 45.2299 203.691 45.4939C203.343 45.7579 203.007 45.9499 202.683 46.0699C202.371 46.1899 202.095 46.2619 201.855 46.2859C201.615 46.3099 201.447 46.3219 201.351 46.3219ZM209.632 46.3219C208.768 46.3219 207.988 46.1359 207.292 45.7639C206.596 45.3919 206.044 44.8639 205.636 44.1799C205.24 43.4839 205.042 42.6679 205.042 41.7319C205.042 40.7359 205.246 39.8659 205.654 39.1219C206.074 38.3659 206.626 37.7839 207.31 37.3759C208.006 36.9559 208.762 36.7459 209.578 36.7459C210.442 36.7459 211.216 36.9319 211.9 37.3039C212.584 37.6759 213.124 38.2099 213.52 38.9059C213.916 39.5899 214.114 40.4119 214.114 41.3719C214.114 42.3799 213.922 43.2559 213.538 43.9999C213.154 44.7439 212.626 45.3199 211.954 45.7279C211.282 46.1239 210.508 46.3219 209.632 46.3219ZM209.704 45.0439C210.184 45.0319 210.544 44.8639 210.784 44.5399C211.036 44.2159 211.21 43.8079 211.306 43.3159C211.402 42.8239 211.45 42.3259 211.45 41.8219C211.45 41.3779 211.414 40.9279 211.342 40.4719C211.282 40.0159 211.18 39.6019 211.036 39.2299C210.892 38.8579 210.694 38.5579 210.442 38.3299C210.202 38.1019 209.902 37.9939 209.542 38.0059C209.074 38.0179 208.702 38.1859 208.426 38.5099C208.162 38.8339 207.97 39.2419 207.85 39.7339C207.742 40.2139 207.688 40.7179 207.688 41.2459C207.688 41.8579 207.754 42.4579 207.886 43.0459C208.018 43.6339 208.228 44.1199 208.516 44.5039C208.816 44.8759 209.212 45.0559 209.704 45.0439ZM219.558 46.3219C219.042 46.3219 218.538 46.2559 218.046 46.1239C217.554 45.9919 217.17 45.8239 216.894 45.6199L216.93 46.1599H215.562L215.49 43.0639H216.66C216.696 43.4239 216.84 43.7539 217.092 44.0539C217.344 44.3539 217.674 44.5939 218.082 44.7739C218.49 44.9419 218.946 45.0259 219.45 45.0259C219.654 45.0259 219.846 44.9959 220.026 44.9359C220.218 44.8759 220.374 44.7799 220.494 44.6479C220.626 44.5039 220.692 44.3299 220.692 44.1259C220.692 43.8979 220.608 43.7119 220.44 43.5679C220.284 43.4239 220.05 43.2859 219.738 43.1539C219.438 43.0219 219.06 42.8719 218.604 42.7039C218.232 42.5599 217.854 42.4099 217.47 42.2539C217.098 42.0979 216.75 41.9119 216.426 41.6959C216.114 41.4679 215.862 41.1919 215.67 40.8679C215.478 40.5319 215.382 40.1239 215.382 39.6439C215.382 39.2959 215.448 38.9539 215.58 38.6179C215.712 38.2699 215.916 37.9579 216.192 37.6819C216.468 37.3939 216.816 37.1659 217.236 36.9979C217.668 36.8299 218.178 36.7459 218.766 36.7459C219.09 36.7459 219.456 36.7999 219.864 36.9079C220.284 37.0039 220.638 37.1539 220.926 37.3579V36.8359H222.294V40.0219H221.124C221.052 39.6019 220.902 39.2419 220.674 38.9419C220.458 38.6419 220.176 38.4139 219.828 38.2579C219.48 38.0899 219.09 38.0059 218.658 38.0059C218.358 38.0059 218.082 38.0779 217.83 38.2219C217.59 38.3659 217.47 38.6119 217.47 38.9599C217.47 39.2359 217.566 39.4579 217.758 39.6259C217.95 39.7819 218.214 39.9139 218.55 40.0219C218.886 40.1299 219.258 40.2559 219.666 40.3999C220.278 40.6039 220.818 40.8439 221.286 41.1199C221.766 41.3959 222.144 41.7319 222.42 42.1279C222.696 42.5119 222.834 42.9859 222.834 43.5499C222.834 44.1739 222.678 44.6899 222.366 45.0979C222.054 45.5059 221.646 45.8119 221.142 46.0159C220.65 46.2199 220.122 46.3219 219.558 46.3219ZM232.357 46.3219C231.637 46.3219 231.001 46.1359 230.449 45.7639C229.909 45.3919 229.483 44.8639 229.171 44.1799C228.871 43.4959 228.721 42.6919 228.721 41.7679C228.721 40.7959 228.907 39.9319 229.279 39.1759C229.651 38.4199 230.173 37.8259 230.845 37.3939C231.517 36.9619 232.297 36.7459 233.185 36.7459C233.509 36.7459 233.797 36.7819 234.049 36.8539C234.313 36.9139 234.559 36.9859 234.787 37.0699V35.8819C234.787 35.7139 234.793 35.4739 234.805 35.1619C234.817 34.8499 234.835 34.5619 234.859 34.2979C234.667 34.3099 234.439 34.3219 234.175 34.3339C233.911 34.3459 233.713 34.3519 233.581 34.3519V32.9839C234.145 32.9839 234.613 32.9539 234.985 32.8939C235.369 32.8339 235.669 32.7619 235.885 32.6779C236.113 32.5939 236.269 32.5159 236.353 32.4439H237.325V43.1359C237.325 43.3039 237.319 43.5439 237.307 43.8559C237.295 44.1559 237.277 44.4439 237.253 44.7199C237.457 44.6959 237.673 44.6839 237.901 44.6839C238.129 44.6719 238.303 44.6659 238.423 44.6659V46.0339H235.003C234.991 45.9019 234.973 45.7639 234.949 45.6199C234.937 45.4759 234.919 45.3379 234.895 45.2059C234.499 45.6139 234.091 45.9019 233.671 46.0699C233.251 46.2379 232.813 46.3219 232.357 46.3219ZM233.293 44.6839C233.605 44.6839 233.893 44.6059 234.157 44.4499C234.421 44.2819 234.631 44.0719 234.787 43.8199C234.787 43.6399 234.787 43.4599 234.787 43.2799C234.787 43.0999 234.787 42.9199 234.787 42.7399V38.4199C234.667 38.3239 234.487 38.2459 234.247 38.1859C234.007 38.1139 233.761 38.0779 233.509 38.0779C232.957 38.0899 232.525 38.2639 232.213 38.5999C231.901 38.9359 231.679 39.3619 231.547 39.8779C231.427 40.3939 231.367 40.9339 231.367 41.4979C231.367 42.0019 231.427 42.4999 231.547 42.9919C231.679 43.4839 231.883 43.8919 232.159 44.2159C232.447 44.5279 232.825 44.6839 233.293 44.6839ZM243.871 46.3219C242.995 46.3219 242.221 46.1299 241.549 45.7459C240.877 45.3499 240.355 44.7979 239.983 44.0899C239.611 43.3699 239.425 42.5239 239.425 41.5519C239.425 40.7119 239.611 39.9259 239.983 39.1939C240.355 38.4619 240.877 37.8739 241.549 37.4299C242.233 36.9739 243.025 36.7459 243.925 36.7459C244.429 36.7459 244.921 36.8179 245.401 36.9619C245.881 37.0939 246.313 37.3279 246.697 37.6639C247.093 37.9999 247.405 38.4559 247.633 39.0319C247.873 39.6079 247.987 40.3279 247.975 41.1919L242.071 41.2999C242.071 41.9479 242.149 42.5299 242.305 43.0459C242.473 43.5619 242.743 43.9699 243.115 44.2699C243.487 44.5699 243.985 44.7199 244.609 44.7199C244.849 44.7199 245.119 44.6779 245.419 44.5939C245.731 44.5099 246.043 44.3719 246.355 44.1799C246.679 43.9759 246.979 43.7059 247.255 43.3699L248.065 44.1259C247.633 44.7379 247.171 45.2059 246.679 45.5299C246.187 45.8419 245.695 46.0519 245.203 46.1599C244.723 46.2679 244.279 46.3219 243.871 46.3219ZM242.179 40.0399H245.491C245.479 39.5359 245.407 39.1399 245.275 38.8519C245.155 38.5519 244.987 38.3359 244.771 38.2039C244.555 38.0719 244.303 38.0059 244.015 38.0059C243.487 38.0059 243.073 38.1979 242.773 38.5819C242.473 38.9539 242.275 39.4399 242.179 40.0399ZM257.583 46.3219C257.223 46.3219 256.875 46.2799 256.539 46.1959C256.203 46.1119 255.903 45.9559 255.639 45.7279C255.375 45.4879 255.165 45.1399 255.009 44.6839C254.853 44.2279 254.775 43.6219 254.775 42.8659L254.811 38.5279H253.587V37.0339C253.959 37.0219 254.319 36.8959 254.667 36.6559C255.015 36.4159 255.309 36.1039 255.549 35.7199C255.801 35.3359 255.969 34.9339 256.053 34.5139H257.385L257.367 37.0339H259.653V38.4199L257.367 38.4739L257.349 42.9019C257.349 43.1779 257.373 43.4539 257.421 43.7299C257.481 43.9939 257.589 44.2159 257.745 44.3959C257.901 44.5639 258.129 44.6479 258.429 44.6479C258.597 44.6479 258.825 44.5879 259.113 44.4679C259.413 44.3479 259.731 44.0479 260.067 43.5679L260.931 44.3779C260.607 44.8579 260.271 45.2299 259.923 45.4939C259.575 45.7579 259.239 45.9499 258.915 46.0699C258.603 46.1899 258.327 46.2619 258.087 46.2859C257.847 46.3099 257.679 46.3219 257.583 46.3219ZM265.181 46.3219C264.461 46.3219 263.879 46.1839 263.435 45.9079C263.003 45.6319 262.685 45.1999 262.481 44.6119C262.289 44.0239 262.193 43.2679 262.193 42.3439V40.2739C262.193 40.0579 262.199 39.8119 262.211 39.5359C262.223 39.2479 262.235 38.9719 262.247 38.7079C262.055 38.7199 261.827 38.7319 261.563 38.7439C261.311 38.7439 261.119 38.7499 260.987 38.7619V37.3939H261.167C261.911 37.3939 262.499 37.3339 262.931 37.2139C263.363 37.0939 263.639 36.9739 263.759 36.8539H264.749V42.3619C264.749 43.1419 264.851 43.7239 265.055 44.1079C265.259 44.4799 265.583 44.6659 266.027 44.6659C266.339 44.6659 266.651 44.5819 266.963 44.4139C267.287 44.2339 267.551 44.0299 267.755 43.8019V40.2739C267.755 40.0579 267.761 39.8119 267.773 39.5359C267.785 39.2479 267.803 38.9719 267.827 38.7079C267.635 38.7199 267.407 38.7319 267.143 38.7439C266.891 38.7439 266.699 38.7499 266.567 38.7619V37.3939H266.999C267.563 37.3939 268.061 37.3339 268.493 37.2139C268.925 37.0819 269.201 36.9619 269.321 36.8539H270.311V43.1359C270.311 43.3039 270.305 43.5439 270.293 43.8559C270.281 44.1559 270.263 44.4439 270.239 44.7199C270.431 44.6959 270.641 44.6839 270.869 44.6839C271.109 44.6719 271.289 44.6659 271.409 44.6659V46.0339H267.989C267.977 45.8779 267.959 45.7219 267.935 45.5659C267.923 45.4099 267.905 45.2539 267.881 45.0979C267.509 45.4099 267.107 45.6919 266.675 45.9439C266.255 46.1959 265.757 46.3219 265.181 46.3219ZM276.722 46.3219C276.206 46.3219 275.702 46.2559 275.21 46.1239C274.718 45.9919 274.334 45.8239 274.058 45.6199L274.094 46.1599H272.726L272.654 43.0639H273.824C273.86 43.4239 274.004 43.7539 274.256 44.0539C274.508 44.3539 274.838 44.5939 275.246 44.7739C275.654 44.9419 276.11 45.0259 276.614 45.0259C276.818 45.0259 277.01 44.9959 277.19 44.9359C277.382 44.8759 277.538 44.7799 277.658 44.6479C277.79 44.5039 277.856 44.3299 277.856 44.1259C277.856 43.8979 277.772 43.7119 277.604 43.5679C277.448 43.4239 277.214 43.2859 276.902 43.1539C276.602 43.0219 276.224 42.8719 275.768 42.7039C275.396 42.5599 275.018 42.4099 274.634 42.2539C274.262 42.0979 273.914 41.9119 273.59 41.6959C273.278 41.4679 273.026 41.1919 272.834 40.8679C272.642 40.5319 272.546 40.1239 272.546 39.6439C272.546 39.2959 272.612 38.9539 272.744 38.6179C272.876 38.2699 273.08 37.9579 273.356 37.6819C273.632 37.3939 273.98 37.1659 274.4 36.9979C274.832 36.8299 275.342 36.7459 275.93 36.7459C276.254 36.7459 276.62 36.7999 277.028 36.9079C277.448 37.0039 277.802 37.1539 278.09 37.3579V36.8359H279.458V40.0219H278.288C278.216 39.6019 278.066 39.2419 277.838 38.9419C277.622 38.6419 277.34 38.4139 276.992 38.2579C276.644 38.0899 276.254 38.0059 275.822 38.0059C275.522 38.0059 275.246 38.0779 274.994 38.2219C274.754 38.3659 274.634 38.6119 274.634 38.9599C274.634 39.2359 274.73 39.4579 274.922 39.6259C275.114 39.7819 275.378 39.9139 275.714 40.0219C276.05 40.1299 276.422 40.2559 276.83 40.3999C277.442 40.6039 277.982 40.8439 278.45 41.1199C278.93 41.3959 279.308 41.7319 279.584 42.1279C279.86 42.5119 279.998 42.9859 279.998 43.5499C279.998 44.1739 279.842 44.6899 279.53 45.0979C279.218 45.5059 278.81 45.8119 278.306 46.0159C277.814 46.2199 277.286 46.3219 276.722 46.3219ZM286.047 44.8639C286.383 44.8639 286.623 44.7979 286.767 44.6659C286.911 44.5339 287.001 44.3479 287.037 44.1079C287.085 43.8559 287.109 43.5739 287.109 43.2619V40.2379C287.109 40.0219 287.115 39.7819 287.127 39.5179C287.139 39.2419 287.157 38.9719 287.181 38.7079C286.989 38.7199 286.761 38.7319 286.497 38.7439C286.245 38.7439 286.053 38.7499 285.921 38.7619V37.3939H286.641C287.109 37.3939 287.535 37.3339 287.919 37.2139C288.315 37.0939 288.573 36.9739 288.693 36.8539H289.575C289.599 36.9739 289.617 37.2019 289.629 37.5379C289.641 37.8619 289.647 38.1499 289.647 38.4019C289.971 38.0059 290.277 37.6879 290.565 37.4479C290.853 37.2079 291.135 37.0339 291.411 36.9259C291.699 36.8059 291.987 36.7459 292.275 36.7459C292.695 36.7459 293.061 36.8659 293.373 37.1059C293.685 37.3339 293.841 37.7119 293.841 38.2399C293.841 38.4199 293.799 38.6119 293.715 38.8159C293.631 39.0079 293.499 39.1699 293.319 39.3019C293.139 39.4339 292.893 39.4999 292.581 39.4999C292.341 39.4999 292.095 39.4279 291.843 39.2839C291.591 39.1399 291.447 38.8639 291.411 38.4559C291.171 38.4559 290.931 38.5579 290.691 38.7619C290.451 38.9539 290.235 39.1879 290.043 39.4639C289.863 39.7279 289.737 39.9739 289.665 40.2019V43.1359C289.665 43.3039 289.659 43.5439 289.647 43.8559C289.635 44.1559 289.617 44.4439 289.593 44.7199C289.785 44.6959 289.995 44.6839 290.223 44.6839C290.463 44.6719 290.643 44.6659 290.763 44.6659V46.0339H286.047V44.8639ZM298.82 46.3219C297.944 46.3219 297.17 46.1299 296.498 45.7459C295.826 45.3499 295.304 44.7979 294.932 44.0899C294.56 43.3699 294.374 42.5239 294.374 41.5519C294.374 40.7119 294.56 39.9259 294.932 39.1939C295.304 38.4619 295.826 37.8739 296.498 37.4299C297.182 36.9739 297.974 36.7459 298.874 36.7459C299.378 36.7459 299.87 36.8179 300.35 36.9619C300.83 37.0939 301.262 37.3279 301.646 37.6639C302.042 37.9999 302.354 38.4559 302.582 39.0319C302.822 39.6079 302.936 40.3279 302.924 41.1919L297.02 41.2999C297.02 41.9479 297.098 42.5299 297.254 43.0459C297.422 43.5619 297.692 43.9699 298.064 44.2699C298.436 44.5699 298.934 44.7199 299.558 44.7199C299.798 44.7199 300.068 44.6779 300.368 44.5939C300.68 44.5099 300.992 44.3719 301.304 44.1799C301.628 43.9759 301.928 43.7059 302.204 43.3699L303.014 44.1259C302.582 44.7379 302.12 45.2059 301.628 45.5299C301.136 45.8419 300.644 46.0519 300.152 46.1599C299.672 46.2679 299.228 46.3219 298.82 46.3219ZM297.128 40.0399H300.44C300.428 39.5359 300.356 39.1399 300.224 38.8519C300.104 38.5519 299.936 38.3359 299.72 38.2039C299.504 38.0719 299.252 38.0059 298.964 38.0059C298.436 38.0059 298.022 38.1979 297.722 38.5819C297.422 38.9539 297.224 39.4399 297.128 40.0399ZM308.38 46.3219C307.864 46.3219 307.36 46.2559 306.868 46.1239C306.376 45.9919 305.992 45.8239 305.716 45.6199L305.752 46.1599H304.384L304.312 43.0639H305.482C305.518 43.4239 305.662 43.7539 305.914 44.0539C306.166 44.3539 306.496 44.5939 306.904 44.7739C307.312 44.9419 307.768 45.0259 308.272 45.0259C308.476 45.0259 308.668 44.9959 308.848 44.9359C309.04 44.8759 309.196 44.7799 309.316 44.6479C309.448 44.5039 309.514 44.3299 309.514 44.1259C309.514 43.8979 309.43 43.7119 309.262 43.5679C309.106 43.4239 308.872 43.2859 308.56 43.1539C308.26 43.0219 307.882 42.8719 307.426 42.7039C307.054 42.5599 306.676 42.4099 306.292 42.2539C305.92 42.0979 305.572 41.9119 305.248 41.6959C304.936 41.4679 304.684 41.1919 304.492 40.8679C304.3 40.5319 304.204 40.1239 304.204 39.6439C304.204 39.2959 304.27 38.9539 304.402 38.6179C304.534 38.2699 304.738 37.9579 305.014 37.6819C305.29 37.3939 305.638 37.1659 306.058 36.9979C306.49 36.8299 307 36.7459 307.588 36.7459C307.912 36.7459 308.278 36.7999 308.686 36.9079C309.106 37.0039 309.46 37.1539 309.748 37.3579V36.8359H311.116V40.0219H309.946C309.874 39.6019 309.724 39.2419 309.496 38.9419C309.28 38.6419 308.998 38.4139 308.65 38.2579C308.302 38.0899 307.912 38.0059 307.48 38.0059C307.18 38.0059 306.904 38.0779 306.652 38.2219C306.412 38.3659 306.292 38.6119 306.292 38.9599C306.292 39.2359 306.388 39.4579 306.58 39.6259C306.772 39.7819 307.036 39.9139 307.372 40.0219C307.708 40.1299 308.08 40.2559 308.488 40.3999C309.1 40.6039 309.64 40.8439 310.108 41.1199C310.588 41.3959 310.966 41.7319 311.242 42.1279C311.518 42.5119 311.656 42.9859 311.656 43.5499C311.656 44.1739 311.5 44.6899 311.188 45.0979C310.876 45.5059 310.468 45.8119 309.964 46.0159C309.472 46.2199 308.944 46.3219 308.38 46.3219ZM312.796 50.6239V49.4539C313.132 49.4539 313.372 49.3879 313.516 49.2559C313.672 49.1239 313.768 48.9319 313.804 48.6799C313.852 48.4399 313.876 48.1639 313.876 47.8519V40.2379C313.876 40.0219 313.882 39.7819 313.894 39.5179C313.906 39.2419 313.924 38.9719 313.948 38.7079C313.756 38.7199 313.528 38.7319 313.264 38.7439C313 38.7439 312.802 38.7499 312.67 38.7619V37.3939C313.234 37.3939 313.702 37.3639 314.074 37.3039C314.458 37.2439 314.758 37.1719 314.974 37.0879C315.202 37.0039 315.358 36.9259 315.442 36.8539H316.324C316.348 36.9739 316.366 37.1239 316.378 37.3039C316.39 37.4719 316.402 37.6099 316.414 37.7179C316.834 37.3579 317.248 37.1059 317.656 36.9619C318.076 36.8179 318.472 36.7459 318.844 36.7459C319.564 36.7459 320.194 36.9319 320.734 37.3039C321.286 37.6759 321.712 38.2039 322.012 38.8879C322.324 39.5719 322.48 40.3759 322.48 41.2999C322.48 42.2599 322.294 43.1239 321.922 43.8919C321.55 44.6479 321.028 45.2419 320.356 45.6739C319.696 46.1059 318.916 46.3219 318.016 46.3219C317.692 46.3219 317.398 46.2859 317.134 46.2139C316.882 46.1539 316.642 46.0819 316.414 45.9979V47.7259C316.414 47.8939 316.408 48.1279 316.396 48.4279C316.396 48.7399 316.384 49.0339 316.36 49.3099C316.552 49.2859 316.762 49.2679 316.99 49.2559C317.218 49.2559 317.392 49.2559 317.512 49.2559V50.6239H312.796ZM317.728 44.9719C318.28 44.9599 318.706 44.7979 319.006 44.4859C319.318 44.1619 319.534 43.7419 319.654 43.2259C319.774 42.7099 319.834 42.1579 319.834 41.5699C319.834 41.0179 319.768 40.4959 319.636 40.0039C319.504 39.5119 319.294 39.1159 319.006 38.8159C318.718 38.5039 318.34 38.3539 317.872 38.3659C317.572 38.3779 317.296 38.4559 317.044 38.5999C316.792 38.7319 316.582 38.9179 316.414 39.1579C316.414 39.5299 316.414 39.9019 316.414 40.2739C316.414 40.6339 316.414 40.9939 316.414 41.3539C316.414 41.7139 316.414 42.0799 316.414 42.4519C316.414 42.8119 316.414 43.1779 316.414 43.5499C316.414 43.9099 316.414 44.2759 316.414 44.6479C316.546 44.7319 316.732 44.8099 316.972 44.8819C317.212 44.9539 317.464 44.9839 317.728 44.9719ZM327.513 46.3219C326.793 46.3219 326.211 46.1839 325.767 45.9079C325.335 45.6319 325.017 45.1999 324.813 44.6119C324.621 44.0239 324.525 43.2679 324.525 42.3439V40.2739C324.525 40.0579 324.531 39.8119 324.543 39.5359C324.555 39.2479 324.567 38.9719 324.579 38.7079C324.387 38.7199 324.159 38.7319 323.895 38.7439C323.643 38.7439 323.451 38.7499 323.319 38.7619V37.3939H323.499C324.243 37.3939 324.831 37.3339 325.263 37.2139C325.695 37.0939 325.971 36.9739 326.091 36.8539H327.081V42.3619C327.081 43.1419 327.183 43.7239 327.387 44.1079C327.591 44.4799 327.915 44.6659 328.359 44.6659C328.671 44.6659 328.983 44.5819 329.295 44.4139C329.619 44.2339 329.883 44.0299 330.087 43.8019V40.2739C330.087 40.0579 330.093 39.8119 330.105 39.5359C330.117 39.2479 330.135 38.9719 330.159 38.7079C329.967 38.7199 329.739 38.7319 329.475 38.7439C329.223 38.7439 329.031 38.7499 328.899 38.7619V37.3939H329.331C329.895 37.3939 330.393 37.3339 330.825 37.2139C331.257 37.0819 331.533 36.9619 331.653 36.8539H332.643V43.1359C332.643 43.3039 332.637 43.5439 332.625 43.8559C332.613 44.1559 332.595 44.4439 332.571 44.7199C332.763 44.6959 332.973 44.6839 333.201 44.6839C333.441 44.6719 333.621 44.6659 333.741 44.6659V46.0339H330.321C330.309 45.8779 330.291 45.7219 330.267 45.5659C330.255 45.4099 330.237 45.2539 330.213 45.0979C329.841 45.4099 329.439 45.6919 329.007 45.9439C328.587 46.1959 328.089 46.3219 327.513 46.3219ZM339.18 46.3219C338.304 46.3219 337.53 46.1299 336.858 45.7459C336.186 45.3499 335.664 44.7979 335.292 44.0899C334.92 43.3699 334.734 42.5239 334.734 41.5519C334.734 40.7119 334.92 39.9259 335.292 39.1939C335.664 38.4619 336.186 37.8739 336.858 37.4299C337.542 36.9739 338.334 36.7459 339.234 36.7459C339.738 36.7459 340.23 36.8179 340.71 36.9619C341.19 37.0939 341.622 37.3279 342.006 37.6639C342.402 37.9999 342.714 38.4559 342.942 39.0319C343.182 39.6079 343.296 40.3279 343.284 41.1919L337.38 41.2999C337.38 41.9479 337.458 42.5299 337.614 43.0459C337.782 43.5619 338.052 43.9699 338.424 44.2699C338.796 44.5699 339.294 44.7199 339.918 44.7199C340.158 44.7199 340.428 44.6779 340.728 44.5939C341.04 44.5099 341.352 44.3719 341.664 44.1799C341.988 43.9759 342.288 43.7059 342.564 43.3699L343.374 44.1259C342.942 44.7379 342.48 45.2059 341.988 45.5299C341.496 45.8419 341.004 46.0519 340.512 46.1599C340.032 46.2679 339.588 46.3219 339.18 46.3219ZM337.488 40.0399H340.8C340.788 39.5359 340.716 39.1399 340.584 38.8519C340.464 38.5519 340.296 38.3359 340.08 38.2039C339.864 38.0719 339.612 38.0059 339.324 38.0059C338.796 38.0059 338.382 38.1979 338.082 38.5819C337.782 38.9539 337.584 39.4399 337.488 40.0399ZM348.739 46.3219C348.223 46.3219 347.719 46.2559 347.227 46.1239C346.735 45.9919 346.351 45.8239 346.075 45.6199L346.111 46.1599H344.743L344.671 43.0639H345.841C345.877 43.4239 346.021 43.7539 346.273 44.0539C346.525 44.3539 346.855 44.5939 347.263 44.7739C347.671 44.9419 348.127 45.0259 348.631 45.0259C348.835 45.0259 349.027 44.9959 349.207 44.9359C349.399 44.8759 349.555 44.7799 349.675 44.6479C349.807 44.5039 349.873 44.3299 349.873 44.1259C349.873 43.8979 349.789 43.7119 349.621 43.5679C349.465 43.4239 349.231 43.2859 348.919 43.1539C348.619 43.0219 348.241 42.8719 347.785 42.7039C347.413 42.5599 347.035 42.4099 346.651 42.2539C346.279 42.0979 345.931 41.9119 345.607 41.6959C345.295 41.4679 345.043 41.1919 344.851 40.8679C344.659 40.5319 344.563 40.1239 344.563 39.6439C344.563 39.2959 344.629 38.9539 344.761 38.6179C344.893 38.2699 345.097 37.9579 345.373 37.6819C345.649 37.3939 345.997 37.1659 346.417 36.9979C346.849 36.8299 347.359 36.7459 347.947 36.7459C348.271 36.7459 348.637 36.7999 349.045 36.9079C349.465 37.0039 349.819 37.1539 350.107 37.3579V36.8359H351.475V40.0219H350.305C350.233 39.6019 350.083 39.2419 349.855 38.9419C349.639 38.6419 349.357 38.4139 349.009 38.2579C348.661 38.0899 348.271 38.0059 347.839 38.0059C347.539 38.0059 347.263 38.0779 347.011 38.2219C346.771 38.3659 346.651 38.6119 346.651 38.9599C346.651 39.2359 346.747 39.4579 346.939 39.6259C347.131 39.7819 347.395 39.9139 347.731 40.0219C348.067 40.1299 348.439 40.2559 348.847 40.3999C349.459 40.6039 349.999 40.8439 350.467 41.1199C350.947 41.3959 351.325 41.7319 351.601 42.1279C351.877 42.5119 352.015 42.9859 352.015 43.5499C352.015 44.1739 351.859 44.6899 351.547 45.0979C351.235 45.5059 350.827 45.8119 350.323 46.0159C349.831 46.2199 349.303 46.3219 348.739 46.3219ZM356.9 46.3219C356.54 46.3219 356.192 46.2799 355.856 46.1959C355.52 46.1119 355.22 45.9559 354.956 45.7279C354.692 45.4879 354.482 45.1399 354.326 44.6839C354.17 44.2279 354.092 43.6219 354.092 42.8659L354.128 38.5279H352.904V37.0339C353.276 37.0219 353.636 36.8959 353.984 36.6559C354.332 36.4159 354.626 36.1039 354.866 35.7199C355.118 35.3359 355.286 34.9339 355.37 34.5139H356.702L356.684 37.0339H358.97V38.4199L356.684 38.4739L356.666 42.9019C356.666 43.1779 356.69 43.4539 356.738 43.7299C356.798 43.9939 356.906 44.2159 357.062 44.3959C357.218 44.5639 357.446 44.6479 357.746 44.6479C357.914 44.6479 358.142 44.5879 358.43 44.4679C358.73 44.3479 359.048 44.0479 359.384 43.5679L360.248 44.3779C359.924 44.8579 359.588 45.2299 359.24 45.4939C358.892 45.7579 358.556 45.9499 358.232 46.0699C357.92 46.1899 357.644 46.2619 357.404 46.2859C357.164 46.3099 356.996 46.3219 356.9 46.3219ZM365.775 46.0339C365.751 45.8659 365.733 45.7279 365.721 45.6199C365.721 45.4999 365.715 45.3619 365.703 45.2059C365.295 45.6139 364.863 45.9019 364.407 46.0699C363.951 46.2379 363.489 46.3219 363.021 46.3219C362.253 46.3219 361.653 46.0939 361.221 45.6379C360.789 45.1819 360.573 44.6119 360.573 43.9279C360.573 43.3519 360.717 42.8599 361.005 42.4519C361.305 42.0439 361.695 41.7139 362.175 41.4619C362.667 41.1979 363.207 40.9999 363.795 40.8679C364.395 40.7239 364.995 40.6399 365.595 40.6159V39.6799C365.595 39.3679 365.553 39.0859 365.469 38.8339C365.397 38.5819 365.265 38.3839 365.073 38.2399C364.893 38.0959 364.635 38.0299 364.299 38.0419C364.071 38.0539 363.849 38.1019 363.633 38.1859C363.417 38.2699 363.231 38.3899 363.075 38.5459C363.171 38.6539 363.231 38.7739 363.255 38.9059C363.279 39.0259 363.291 39.1339 363.291 39.2299C363.291 39.4699 363.195 39.7219 363.003 39.9859C362.811 40.2379 362.505 40.3579 362.085 40.3459C361.725 40.3339 361.449 40.2079 361.257 39.9679C361.065 39.7279 360.969 39.4459 360.969 39.1219C360.969 38.6419 361.137 38.2279 361.473 37.8799C361.821 37.5199 362.283 37.2439 362.859 37.0519C363.435 36.8479 364.071 36.7459 364.767 36.7459C365.823 36.7459 366.639 37.0219 367.215 37.5739C367.803 38.1139 368.097 38.9839 368.097 40.1839C368.097 40.5919 368.097 40.9399 368.097 41.2279C368.097 41.5159 368.091 41.8039 368.079 42.0919C368.079 42.3799 368.079 42.7279 368.079 43.1359C368.079 43.3039 368.073 43.5439 368.061 43.8559C368.049 44.1559 368.031 44.4439 368.007 44.7199C368.211 44.6959 368.427 44.6839 368.655 44.6839C368.883 44.6719 369.057 44.6659 369.177 44.6659V46.0339H365.775ZM365.577 41.8939C365.241 41.9299 364.923 41.9899 364.623 42.0739C364.323 42.1579 364.059 42.2719 363.831 42.4159C363.615 42.5599 363.441 42.7339 363.309 42.9379C363.189 43.1419 363.129 43.3699 363.129 43.6219C363.141 43.9579 363.249 44.1979 363.453 44.3419C363.657 44.4859 363.891 44.5579 364.155 44.5579C364.431 44.5579 364.689 44.4979 364.929 44.3779C365.169 44.2579 365.385 44.1019 365.577 43.9099C365.577 43.7899 365.577 43.6759 365.577 43.5679C365.577 43.4479 365.577 43.3279 365.577 43.2079C365.577 42.9919 365.577 42.7759 365.577 42.5599C365.577 42.3319 365.577 42.1099 365.577 41.8939ZM374.351 46.3219C373.835 46.3219 373.331 46.2559 372.839 46.1239C372.347 45.9919 371.963 45.8239 371.687 45.6199L371.723 46.1599H370.355L370.283 43.0639H371.453C371.489 43.4239 371.633 43.7539 371.885 44.0539C372.137 44.3539 372.467 44.5939 372.875 44.7739C373.283 44.9419 373.739 45.0259 374.243 45.0259C374.447 45.0259 374.639 44.9959 374.819 44.9359C375.011 44.8759 375.167 44.7799 375.287 44.6479C375.419 44.5039 375.485 44.3299 375.485 44.1259C375.485 43.8979 375.401 43.7119 375.233 43.5679C375.077 43.4239 374.843 43.2859 374.531 43.1539C374.231 43.0219 373.853 42.8719 373.397 42.7039C373.025 42.5599 372.647 42.4099 372.263 42.2539C371.891 42.0979 371.543 41.9119 371.219 41.6959C370.907 41.4679 370.655 41.1919 370.463 40.8679C370.271 40.5319 370.175 40.1239 370.175 39.6439C370.175 39.2959 370.241 38.9539 370.373 38.6179C370.505 38.2699 370.709 37.9579 370.985 37.6819C371.261 37.3939 371.609 37.1659 372.029 36.9979C372.461 36.8299 372.971 36.7459 373.559 36.7459C373.883 36.7459 374.249 36.7999 374.657 36.9079C375.077 37.0039 375.431 37.1539 375.719 37.3579V36.8359H377.087V40.0219H375.917C375.845 39.6019 375.695 39.2419 375.467 38.9419C375.251 38.6419 374.969 38.4139 374.621 38.2579C374.273 38.0899 373.883 38.0059 373.451 38.0059C373.151 38.0059 372.875 38.0779 372.623 38.2219C372.383 38.3659 372.263 38.6119 372.263 38.9599C372.263 39.2359 372.359 39.4579 372.551 39.6259C372.743 39.7819 373.007 39.9139 373.343 40.0219C373.679 40.1299 374.051 40.2559 374.459 40.3999C375.071 40.6039 375.611 40.8439 376.079 41.1199C376.559 41.3959 376.937 41.7319 377.213 42.1279C377.489 42.5119 377.627 42.9859 377.627 43.5499C377.627 44.1739 377.471 44.6899 377.159 45.0979C376.847 45.5059 376.439 45.8119 375.935 46.0159C375.443 46.2199 374.915 46.3219 374.351 46.3219ZM385.602 50.9119C385.146 50.9119 384.756 50.7739 384.432 50.4979C384.12 50.2339 383.964 49.8799 383.964 49.4359C383.964 49.1119 384.066 48.8239 384.27 48.5719C384.486 48.3319 384.762 48.2059 385.098 48.1939C385.362 48.1819 385.584 48.2659 385.764 48.4459C385.956 48.6379 386.052 48.8959 386.052 49.2199C386.052 49.2559 386.052 49.2919 386.052 49.3279C386.052 49.3639 386.046 49.4059 386.034 49.4539C386.058 49.4539 386.088 49.4479 386.124 49.4359C386.232 49.3999 386.346 49.2979 386.466 49.1299C386.598 48.9739 386.724 48.7639 386.844 48.4999C386.976 48.2239 387.102 47.9119 387.222 47.5639C387.354 47.2279 387.468 46.8739 387.563 46.5019L384.72 40.7959C384.384 40.1239 384.162 39.6199 384.054 39.2839C383.958 38.9359 383.892 38.6299 383.856 38.3659L383.028 38.4019V37.0339H387.51V38.1859C387.066 38.2339 386.82 38.4019 386.772 38.6899C386.736 38.9779 386.79 39.2779 386.934 39.5899L388.698 43.6219C388.818 43.3099 388.974 42.8299 389.166 42.1819C389.358 41.5219 389.586 40.8079 389.85 40.0399C389.898 39.8839 389.958 39.7039 390.03 39.4999C390.114 39.2839 390.204 39.0739 390.3 38.8699C390.396 38.6539 390.498 38.4799 390.606 38.3479L389.58 38.4019V37.0339H392.784V38.1859C392.412 38.2699 392.1 38.4979 391.848 38.8699C391.608 39.2419 391.392 39.6979 391.2 40.2379L388.95 46.6639C388.614 47.6359 388.296 48.4339 387.996 49.0579C387.696 49.6939 387.36 50.1619 386.988 50.4619C386.616 50.7619 386.154 50.9119 385.602 50.9119ZM401.792 46.3219C401.072 46.3219 400.436 46.1359 399.884 45.7639C399.344 45.3919 398.918 44.8639 398.606 44.1799C398.306 43.4959 398.156 42.6919 398.156 41.7679C398.156 40.7959 398.342 39.9319 398.714 39.1759C399.086 38.4199 399.608 37.8259 400.28 37.3939C400.952 36.9619 401.732 36.7459 402.62 36.7459C402.944 36.7459 403.232 36.7819 403.484 36.8539C403.748 36.9139 403.994 36.9859 404.222 37.0699V35.8819C404.222 35.7139 404.228 35.4739 404.24 35.1619C404.252 34.8499 404.27 34.5619 404.294 34.2979C404.102 34.3099 403.874 34.3219 403.61 34.3339C403.346 34.3459 403.148 34.3519 403.016 34.3519V32.9839C403.58 32.9839 404.048 32.9539 404.42 32.8939C404.804 32.8339 405.104 32.7619 405.32 32.6779C405.548 32.5939 405.704 32.5159 405.788 32.4439H406.76V43.1359C406.76 43.3039 406.754 43.5439 406.742 43.8559C406.73 44.1559 406.712 44.4439 406.688 44.7199C406.892 44.6959 407.108 44.6839 407.336 44.6839C407.564 44.6719 407.738 44.6659 407.858 44.6659V46.0339H404.438C404.426 45.9019 404.408 45.7639 404.384 45.6199C404.372 45.4759 404.354 45.3379 404.33 45.2059C403.934 45.6139 403.526 45.9019 403.106 46.0699C402.686 46.2379 402.248 46.3219 401.792 46.3219ZM402.728 44.6839C403.04 44.6839 403.328 44.6059 403.592 44.4499C403.856 44.2819 404.066 44.0719 404.222 43.8199C404.222 43.6399 404.222 43.4599 404.222 43.2799C404.222 43.0999 404.222 42.9199 404.222 42.7399V38.4199C404.102 38.3239 403.922 38.2459 403.682 38.1859C403.442 38.1139 403.196 38.0779 402.944 38.0779C402.392 38.0899 401.96 38.2639 401.648 38.5999C401.336 38.9359 401.114 39.3619 400.982 39.8779C400.862 40.3939 400.802 40.9339 400.802 41.4979C400.802 42.0019 400.862 42.4999 400.982 42.9919C401.114 43.4839 401.318 43.8919 401.594 44.2159C401.882 44.5279 402.26 44.6839 402.728 44.6839ZM413.307 46.3219C412.431 46.3219 411.657 46.1299 410.985 45.7459C410.313 45.3499 409.791 44.7979 409.419 44.0899C409.047 43.3699 408.861 42.5239 408.861 41.5519C408.861 40.7119 409.047 39.9259 409.419 39.1939C409.791 38.4619 410.313 37.8739 410.985 37.4299C411.669 36.9739 412.461 36.7459 413.361 36.7459C413.865 36.7459 414.357 36.8179 414.837 36.9619C415.317 37.0939 415.749 37.3279 416.133 37.6639C416.529 37.9999 416.841 38.4559 417.069 39.0319C417.309 39.6079 417.423 40.3279 417.411 41.1919L411.507 41.2999C411.507 41.9479 411.585 42.5299 411.741 43.0459C411.909 43.5619 412.179 43.9699 412.551 44.2699C412.923 44.5699 413.421 44.7199 414.045 44.7199C414.285 44.7199 414.555 44.6779 414.855 44.5939C415.167 44.5099 415.479 44.3719 415.791 44.1799C416.115 43.9759 416.415 43.7059 416.691 43.3699L417.501 44.1259C417.069 44.7379 416.607 45.2059 416.115 45.5299C415.623 45.8419 415.131 46.0519 414.639 46.1599C414.159 46.2679 413.715 46.3219 413.307 46.3219ZM411.615 40.0399H414.927C414.915 39.5359 414.843 39.1399 414.711 38.8519C414.591 38.5519 414.423 38.3359 414.207 38.2039C413.991 38.0719 413.739 38.0059 413.451 38.0059C412.923 38.0059 412.509 38.1979 412.209 38.5819C411.909 38.9539 411.711 39.4399 411.615 40.0399ZM422.866 46.3219C422.35 46.3219 421.846 46.2559 421.354 46.1239C420.862 45.9919 420.478 45.8239 420.202 45.6199L420.238 46.1599H418.87L418.798 43.0639H419.968C420.004 43.4239 420.148 43.7539 420.4 44.0539C420.652 44.3539 420.982 44.5939 421.39 44.7739C421.798 44.9419 422.254 45.0259 422.758 45.0259C422.962 45.0259 423.154 44.9959 423.334 44.9359C423.526 44.8759 423.682 44.7799 423.802 44.6479C423.934 44.5039 424 44.3299 424 44.1259C424 43.8979 423.916 43.7119 423.748 43.5679C423.592 43.4239 423.358 43.2859 423.046 43.1539C422.746 43.0219 422.368 42.8719 421.912 42.7039C421.54 42.5599 421.162 42.4099 420.778 42.2539C420.406 42.0979 420.058 41.9119 419.734 41.6959C419.422 41.4679 419.17 41.1919 418.978 40.8679C418.786 40.5319 418.69 40.1239 418.69 39.6439C418.69 39.2959 418.756 38.9539 418.888 38.6179C419.02 38.2699 419.224 37.9579 419.5 37.6819C419.776 37.3939 420.124 37.1659 420.544 36.9979C420.976 36.8299 421.486 36.7459 422.074 36.7459C422.398 36.7459 422.764 36.7999 423.172 36.9079C423.592 37.0039 423.946 37.1539 424.234 37.3579V36.8359H425.602V40.0219H424.432C424.36 39.6019 424.21 39.2419 423.982 38.9419C423.766 38.6419 423.484 38.4139 423.136 38.2579C422.788 38.0899 422.398 38.0059 421.966 38.0059C421.666 38.0059 421.39 38.0779 421.138 38.2219C420.898 38.3659 420.778 38.6119 420.778 38.9599C420.778 39.2359 420.874 39.4579 421.066 39.6259C421.258 39.7819 421.522 39.9139 421.858 40.0219C422.194 40.1299 422.566 40.2559 422.974 40.3999C423.586 40.6039 424.126 40.8439 424.594 41.1199C425.074 41.3959 425.452 41.7319 425.728 42.1279C426.004 42.5119 426.142 42.9859 426.142 43.5499C426.142 44.1739 425.986 44.6899 425.674 45.0979C425.362 45.5059 424.954 45.8119 424.45 46.0159C423.958 46.2199 423.43 46.3219 422.866 46.3219ZM431.711 46.3219C430.907 46.3219 430.169 46.1419 429.497 45.7819C428.825 45.4219 428.285 44.8999 427.877 44.2159C427.481 43.5319 427.283 42.7039 427.283 41.7319C427.283 41.0479 427.397 40.4059 427.625 39.8059C427.853 39.2059 428.171 38.6779 428.579 38.2219C428.999 37.7659 429.491 37.4059 430.055 37.1419C430.631 36.8779 431.267 36.7459 431.963 36.7459C432.731 36.7459 433.367 36.8659 433.871 37.1059C434.387 37.3339 434.771 37.6399 435.023 38.0239C435.287 38.3959 435.419 38.7919 435.419 39.2119C435.419 39.5599 435.311 39.8719 435.095 40.1479C434.891 40.4119 434.597 40.5499 434.213 40.5619C433.757 40.5739 433.439 40.4479 433.259 40.1839C433.079 39.9079 432.989 39.6439 432.989 39.3919C432.989 39.2839 433.007 39.1579 433.043 39.0139C433.079 38.8579 433.133 38.7199 433.205 38.5999C433.121 38.4199 432.995 38.2879 432.827 38.2039C432.659 38.1199 432.485 38.0659 432.305 38.0419C432.137 38.0059 431.999 37.9939 431.891 38.0059C431.315 38.0419 430.841 38.3299 430.469 38.8699C430.097 39.4099 429.911 40.1899 429.911 41.2099C429.911 41.8099 429.983 42.3739 430.127 42.9019C430.283 43.4179 430.535 43.8439 430.883 44.1799C431.231 44.5159 431.699 44.6959 432.287 44.7199C432.791 44.7319 433.283 44.6119 433.763 44.3599C434.243 44.1079 434.651 43.7659 434.987 43.3339L435.815 44.1439C435.383 44.7439 434.933 45.1999 434.465 45.5119C433.997 45.8239 433.529 46.0339 433.061 46.1419C432.605 46.2619 432.155 46.3219 431.711 46.3219ZM440.505 46.3219C439.785 46.3219 439.203 46.1839 438.759 45.9079C438.327 45.6319 438.009 45.1999 437.805 44.6119C437.613 44.0239 437.517 43.2679 437.517 42.3439V40.2739C437.517 40.0579 437.523 39.8119 437.535 39.5359C437.547 39.2479 437.559 38.9719 437.571 38.7079C437.379 38.7199 437.151 38.7319 436.887 38.7439C436.635 38.7439 436.443 38.7499 436.311 38.7619V37.3939H436.491C437.235 37.3939 437.823 37.3339 438.255 37.2139C438.687 37.0939 438.963 36.9739 439.083 36.8539H440.073V42.3619C440.073 43.1419 440.175 43.7239 440.379 44.1079C440.583 44.4799 440.907 44.6659 441.351 44.6659C441.663 44.6659 441.975 44.5819 442.287 44.4139C442.611 44.2339 442.875 44.0299 443.079 43.8019V40.2739C443.079 40.0579 443.085 39.8119 443.097 39.5359C443.109 39.2479 443.127 38.9719 443.151 38.7079C442.959 38.7199 442.731 38.7319 442.467 38.7439C442.215 38.7439 442.023 38.7499 441.891 38.7619V37.3939H442.323C442.887 37.3939 443.385 37.3339 443.817 37.2139C444.249 37.0819 444.525 36.9619 444.645 36.8539H445.635V43.1359C445.635 43.3039 445.629 43.5439 445.617 43.8559C445.605 44.1559 445.587 44.4439 445.563 44.7199C445.755 44.6959 445.965 44.6839 446.193 44.6839C446.433 44.6719 446.613 44.6659 446.733 44.6659V46.0339H443.313C443.301 45.8779 443.283 45.7219 443.259 45.5659C443.247 45.4099 443.229 45.2539 443.205 45.0979C442.833 45.4099 442.431 45.6919 441.999 45.9439C441.579 46.1959 441.081 46.3219 440.505 46.3219ZM448.302 35.8639C448.302 35.6479 448.302 35.4019 448.302 35.1259C448.314 34.8379 448.332 34.5619 448.356 34.2979C448.164 34.3099 447.936 34.3219 447.672 34.3339C447.42 34.3339 447.228 34.3399 447.096 34.3519V32.9839C447.66 32.9839 448.128 32.9539 448.5 32.8939C448.884 32.8339 449.184 32.7619 449.4 32.6779C449.628 32.5939 449.784 32.5159 449.868 32.4439H450.84V37.7179C451.248 37.3579 451.662 37.1059 452.082 36.9619C452.502 36.8179 452.898 36.7459 453.27 36.7459C453.99 36.7459 454.62 36.9319 455.16 37.3039C455.712 37.6759 456.138 38.2039 456.438 38.8879C456.75 39.5719 456.906 40.3759 456.906 41.2999C456.906 42.2599 456.726 43.1239 456.366 43.8919C456.018 44.6479 455.52 45.2419 454.872 45.6739C454.224 46.1059 453.444 46.3219 452.532 46.3219C452.208 46.3219 451.794 46.2499 451.29 46.1059C450.798 45.9739 450.342 45.6859 449.922 45.2419L449.382 46.0339H448.302V35.8639ZM450.84 43.3339C450.84 43.7419 450.906 44.0659 451.038 44.3059C451.17 44.5459 451.338 44.7199 451.542 44.8279C451.746 44.9359 451.95 44.9959 452.154 45.0079C452.694 45.0199 453.114 44.8639 453.414 44.5399C453.726 44.2159 453.942 43.7899 454.062 43.2619C454.194 42.7219 454.26 42.1579 454.26 41.5699C454.26 41.0179 454.194 40.4959 454.062 40.0039C453.93 39.5119 453.72 39.1159 453.432 38.8159C453.144 38.5039 452.766 38.3539 452.298 38.3659C451.998 38.3779 451.722 38.4559 451.47 38.5999C451.218 38.7319 451.008 38.9119 450.84 39.1399V43.3339ZM458.224 44.8639C458.56 44.8639 458.8 44.7979 458.944 44.6659C459.088 44.5339 459.178 44.3479 459.214 44.1079C459.262 43.8559 459.286 43.5739 459.286 43.2619V40.2379C459.286 40.0219 459.292 39.7819 459.304 39.5179C459.316 39.2419 459.334 38.9719 459.358 38.7079C459.166 38.7199 458.938 38.7319 458.674 38.7439C458.422 38.7439 458.23 38.7499 458.098 38.7619V37.3939H458.818C459.286 37.3939 459.712 37.3339 460.096 37.2139C460.492 37.0939 460.75 36.9739 460.87 36.8539H461.752C461.776 36.9739 461.794 37.2019 461.806 37.5379C461.818 37.8619 461.824 38.1499 461.824 38.4019C462.148 38.0059 462.454 37.6879 462.742 37.4479C463.03 37.2079 463.312 37.0339 463.588 36.9259C463.876 36.8059 464.164 36.7459 464.452 36.7459C464.872 36.7459 465.238 36.8659 465.55 37.1059C465.862 37.3339 466.018 37.7119 466.018 38.2399C466.018 38.4199 465.976 38.6119 465.892 38.8159C465.808 39.0079 465.676 39.1699 465.496 39.3019C465.316 39.4339 465.07 39.4999 464.758 39.4999C464.518 39.4999 464.272 39.4279 464.02 39.2839C463.768 39.1399 463.624 38.8639 463.588 38.4559C463.348 38.4559 463.108 38.5579 462.868 38.7619C462.628 38.9539 462.412 39.1879 462.22 39.4639C462.04 39.7279 461.914 39.9739 461.842 40.2019V43.1359C461.842 43.3039 461.836 43.5439 461.824 43.8559C461.812 44.1559 461.794 44.4439 461.77 44.7199C461.962 44.6959 462.172 44.6839 462.4 44.6839C462.64 44.6719 462.82 44.6659 462.94 44.6659V46.0339H458.224V44.8639ZM466.873 44.8639C467.209 44.8639 467.449 44.7979 467.593 44.6659C467.737 44.5339 467.827 44.3479 467.863 44.1079C467.911 43.8559 467.935 43.5739 467.935 43.2619V40.2739C467.935 40.0579 467.941 39.8119 467.953 39.5359C467.965 39.2479 467.983 38.9719 468.007 38.7079C467.815 38.7199 467.587 38.7319 467.323 38.7439C467.071 38.7439 466.879 38.7499 466.747 38.7619V37.3939C467.299 37.3939 467.767 37.3639 468.151 37.3039C468.535 37.2439 468.835 37.1719 469.051 37.0879C469.279 37.0039 469.435 36.9259 469.519 36.8539H470.491V43.1359C470.491 43.3039 470.485 43.5439 470.473 43.8559C470.461 44.1559 470.443 44.4439 470.419 44.7199C470.611 44.6959 470.821 44.6839 471.049 44.6839C471.289 44.6719 471.469 44.6659 471.589 44.6659V46.0339H466.873V44.8639ZM468.169 35.8639L467.341 35.1259L468.817 32.6059C468.949 32.4019 469.105 32.2459 469.285 32.1379C469.477 32.0179 469.681 31.9579 469.897 31.9579C470.113 31.9459 470.317 32.0179 470.509 32.1739C470.701 32.3419 470.809 32.5399 470.833 32.7679C470.857 32.9839 470.821 33.1999 470.725 33.4159C470.641 33.6199 470.515 33.7999 470.347 33.9559L468.169 35.8639ZM481.054 46.3219C480.694 46.3219 480.346 46.2799 480.01 46.1959C479.674 46.1119 479.374 45.9559 479.11 45.7279C478.846 45.4879 478.636 45.1399 478.48 44.6839C478.324 44.2279 478.246 43.6219 478.246 42.8659L478.282 38.5279H477.058V37.0339C477.43 37.0219 477.79 36.8959 478.138 36.6559C478.486 36.4159 478.78 36.1039 479.02 35.7199C479.272 35.3359 479.44 34.9339 479.524 34.5139H480.856L480.838 37.0339H483.124V38.4199L480.838 38.4739L480.82 42.9019C480.82 43.1779 480.844 43.4539 480.892 43.7299C480.952 43.9939 481.06 44.2159 481.216 44.3959C481.372 44.5639 481.6 44.6479 481.9 44.6479C482.068 44.6479 482.296 44.5879 482.584 44.4679C482.884 44.3479 483.202 44.0479 483.538 43.5679L484.402 44.3779C484.078 44.8579 483.742 45.2299 483.394 45.4939C483.046 45.7579 482.71 45.9499 482.386 46.0699C482.074 46.1899 481.798 46.2619 481.558 46.2859C481.318 46.3099 481.15 46.3219 481.054 46.3219ZM488.652 46.3219C487.932 46.3219 487.35 46.1839 486.906 45.9079C486.474 45.6319 486.156 45.1999 485.952 44.6119C485.76 44.0239 485.664 43.2679 485.664 42.3439V40.2739C485.664 40.0579 485.67 39.8119 485.682 39.5359C485.694 39.2479 485.706 38.9719 485.718 38.7079C485.526 38.7199 485.298 38.7319 485.034 38.7439C484.782 38.7439 484.59 38.7499 484.458 38.7619V37.3939H484.638C485.382 37.3939 485.97 37.3339 486.402 37.2139C486.834 37.0939 487.11 36.9739 487.23 36.8539H488.22V42.3619C488.22 43.1419 488.322 43.7239 488.526 44.1079C488.73 44.4799 489.054 44.6659 489.498 44.6659C489.81 44.6659 490.122 44.5819 490.434 44.4139C490.758 44.2339 491.022 44.0299 491.226 43.8019V40.2739C491.226 40.0579 491.232 39.8119 491.244 39.5359C491.256 39.2479 491.274 38.9719 491.298 38.7079C491.106 38.7199 490.878 38.7319 490.614 38.7439C490.362 38.7439 490.17 38.7499 490.038 38.7619V37.3939H490.47C491.034 37.3939 491.532 37.3339 491.964 37.2139C492.396 37.0819 492.672 36.9619 492.792 36.8539H493.782V43.1359C493.782 43.3039 493.776 43.5439 493.764 43.8559C493.752 44.1559 493.734 44.4439 493.71 44.7199C493.902 44.6959 494.112 44.6839 494.34 44.6839C494.58 44.6719 494.76 44.6659 494.88 44.6659V46.0339H491.46C491.448 45.8779 491.43 45.7219 491.406 45.5659C491.394 45.4099 491.376 45.2539 491.352 45.0979C490.98 45.4099 490.578 45.6919 490.146 45.9439C489.726 46.1959 489.228 46.3219 488.652 46.3219ZM500.781 46.0339V44.8639C501.117 44.8639 501.357 44.7979 501.501 44.6659C501.645 44.5339 501.735 44.3479 501.771 44.1079C501.819 43.8559 501.843 43.5739 501.843 43.2619V40.2379C501.843 40.0219 501.849 39.7819 501.861 39.5179C501.873 39.2419 501.891 38.9719 501.915 38.7079C501.723 38.7199 501.495 38.7319 501.231 38.7439C500.979 38.7439 500.787 38.7499 500.655 38.7619V37.3939C501.207 37.3939 501.675 37.3639 502.059 37.3039C502.443 37.2439 502.743 37.1719 502.959 37.0879C503.187 37.0039 503.343 36.9259 503.427 36.8539H504.309C504.333 37.0099 504.345 37.1239 504.345 37.1959C504.345 37.2679 504.345 37.3399 504.345 37.4119C504.357 37.4719 504.381 37.5859 504.417 37.7539C504.657 37.5619 504.933 37.3939 505.245 37.2499C505.557 37.0939 505.869 36.9739 506.181 36.8899C506.493 36.7939 506.769 36.7459 507.009 36.7459C508.113 36.7459 508.893 37.0639 509.349 37.6999C509.817 38.3239 510.051 39.3319 510.051 40.7239V43.1359C510.051 43.3039 510.045 43.5439 510.033 43.8559C510.021 44.1559 510.003 44.4439 509.979 44.7199C510.183 44.6959 510.399 44.6839 510.627 44.6839C510.855 44.6719 511.029 44.6659 511.149 44.6659V46.0339H506.433V44.8639C506.769 44.8639 507.009 44.7979 507.153 44.6659C507.309 44.5339 507.405 44.3479 507.441 44.1079C507.489 43.8559 507.513 43.5739 507.513 43.2619L507.495 40.7059C507.495 39.9259 507.381 39.3499 507.153 38.9779C506.937 38.5939 506.565 38.4019 506.037 38.4019C505.737 38.4019 505.437 38.4679 505.137 38.5999C504.849 38.7319 504.603 38.8879 504.399 39.0679C504.399 39.2359 504.399 39.4099 504.399 39.5899C504.399 39.7579 504.399 39.9259 504.399 40.0939V43.1359C504.399 43.3039 504.393 43.5439 504.381 43.8559C504.369 44.1559 504.351 44.4439 504.327 44.7199C504.519 44.6959 504.729 44.6839 504.957 44.6839C505.197 44.6719 505.377 44.6659 505.497 44.6659V46.0339H500.781ZM512.259 44.8639C512.595 44.8639 512.835 44.7979 512.979 44.6659C513.123 44.5339 513.213 44.3479 513.249 44.1079C513.297 43.8559 513.321 43.5739 513.321 43.2619V40.2739C513.321 40.0579 513.327 39.8119 513.339 39.5359C513.351 39.2479 513.369 38.9719 513.393 38.7079C513.201 38.7199 512.973 38.7319 512.709 38.7439C512.457 38.7439 512.265 38.7499 512.133 38.7619V37.3939C512.685 37.3939 513.153 37.3639 513.537 37.3039C513.921 37.2439 514.221 37.1719 514.437 37.0879C514.665 37.0039 514.821 36.9259 514.905 36.8539H515.877V43.1359C515.877 43.3039 515.871 43.5439 515.859 43.8559C515.847 44.1559 515.829 44.4439 515.805 44.7199C515.997 44.6959 516.207 44.6839 516.435 44.6839C516.675 44.6719 516.855 44.6659 516.975 44.6659V46.0339H512.259V44.8639ZM514.509 35.4319C514.101 35.4319 513.765 35.2879 513.501 34.9999C513.237 34.7119 513.105 34.3639 513.105 33.9559C513.105 33.5479 513.243 33.1999 513.519 32.9119C513.795 32.6239 514.119 32.4799 514.491 32.4799C514.875 32.4799 515.193 32.6239 515.445 32.9119C515.709 33.1999 515.841 33.5479 515.841 33.9559C515.841 34.3639 515.721 34.7119 515.481 34.9999C515.241 35.2879 514.917 35.4319 514.509 35.4319ZM521.373 46.0879L518.529 39.8419C518.397 39.5419 518.301 39.3139 518.241 39.1579C518.193 39.0019 518.157 38.8699 518.133 38.7619C518.121 38.6419 518.097 38.5099 518.061 38.3659L517.395 38.4019V37.0339H521.607V38.1859C521.355 38.1979 521.187 38.2699 521.103 38.4019C521.019 38.5339 520.989 38.7079 521.013 38.9239C521.037 39.1279 521.091 39.3499 521.175 39.5899L522.111 41.8939C522.207 42.1219 522.303 42.3559 522.399 42.5959C522.495 42.8359 522.591 43.0759 522.687 43.3159H522.705C522.801 43.0639 522.891 42.8119 522.975 42.5599C523.071 42.3079 523.161 42.0559 523.245 41.8039L524.019 39.6079C524.127 39.3079 524.223 39.0679 524.307 38.8879C524.403 38.7079 524.505 38.5219 524.613 38.3299L523.497 38.4019V37.0339H526.917V38.1859C526.641 38.2339 526.395 38.3899 526.179 38.6539C525.963 38.9059 525.777 39.1939 525.621 39.5179C525.465 39.8299 525.339 40.1059 525.243 40.3459L522.939 46.0879H521.373ZM531.766 46.3219C530.89 46.3219 530.116 46.1299 529.444 45.7459C528.772 45.3499 528.25 44.7979 527.878 44.0899C527.506 43.3699 527.32 42.5239 527.32 41.5519C527.32 40.7119 527.506 39.9259 527.878 39.1939C528.25 38.4619 528.772 37.8739 529.444 37.4299C530.128 36.9739 530.92 36.7459 531.82 36.7459C532.324 36.7459 532.816 36.8179 533.296 36.9619C533.776 37.0939 534.208 37.3279 534.592 37.6639C534.988 37.9999 535.3 38.4559 535.528 39.0319C535.768 39.6079 535.882 40.3279 535.87 41.1919L529.966 41.2999C529.966 41.9479 530.044 42.5299 530.2 43.0459C530.368 43.5619 530.638 43.9699 531.01 44.2699C531.382 44.5699 531.88 44.7199 532.504 44.7199C532.744 44.7199 533.014 44.6779 533.314 44.5939C533.626 44.5099 533.938 44.3719 534.25 44.1799C534.574 43.9759 534.874 43.7059 535.15 43.3699L535.96 44.1259C535.528 44.7379 535.066 45.2059 534.574 45.5299C534.082 45.8419 533.59 46.0519 533.098 46.1599C532.618 46.2679 532.174 46.3219 531.766 46.3219ZM530.074 40.0399H533.386C533.374 39.5359 533.302 39.1399 533.17 38.8519C533.05 38.5519 532.882 38.3359 532.666 38.2039C532.45 38.0719 532.198 38.0059 531.91 38.0059C531.382 38.0059 530.968 38.1979 530.668 38.5819C530.368 38.9539 530.17 39.4399 530.074 40.0399ZM536.897 44.8639C537.233 44.8639 537.473 44.7979 537.617 44.6659C537.773 44.5339 537.869 44.3479 537.905 44.1079C537.941 43.8559 537.959 43.5739 537.959 43.2619V35.8639C537.959 35.6479 537.965 35.4019 537.977 35.1259C537.989 34.8379 538.007 34.5619 538.031 34.2979C537.839 34.3099 537.611 34.3219 537.347 34.3339C537.095 34.3339 536.903 34.3399 536.771 34.3519V32.9839C537.335 32.9839 537.803 32.9539 538.175 32.8939C538.559 32.8339 538.859 32.7619 539.075 32.6779C539.303 32.5939 539.459 32.5159 539.543 32.4439H540.515V43.1359C540.515 43.3039 540.509 43.5439 540.497 43.8559C540.485 44.1559 540.467 44.4439 540.443 44.7199C540.647 44.6959 540.863 44.6839 541.091 44.6839C541.319 44.6719 541.493 44.6659 541.613 44.6659V46.0339H536.897V44.8639ZM550.995 46.3219C550.275 46.3219 549.639 46.1359 549.087 45.7639C548.547 45.3919 548.121 44.8639 547.809 44.1799C547.509 43.4959 547.359 42.6919 547.359 41.7679C547.359 40.7959 547.545 39.9319 547.917 39.1759C548.289 38.4199 548.811 37.8259 549.483 37.3939C550.155 36.9619 550.935 36.7459 551.823 36.7459C552.147 36.7459 552.435 36.7819 552.687 36.8539C552.951 36.9139 553.197 36.9859 553.425 37.0699V35.8819C553.425 35.7139 553.431 35.4739 553.443 35.1619C553.455 34.8499 553.473 34.5619 553.497 34.2979C553.305 34.3099 553.077 34.3219 552.813 34.3339C552.549 34.3459 552.351 34.3519 552.219 34.3519V32.9839C552.783 32.9839 553.251 32.9539 553.623 32.8939C554.007 32.8339 554.307 32.7619 554.523 32.6779C554.751 32.5939 554.907 32.5159 554.991 32.4439H555.963V43.1359C555.963 43.3039 555.957 43.5439 555.945 43.8559C555.933 44.1559 555.915 44.4439 555.891 44.7199C556.095 44.6959 556.311 44.6839 556.539 44.6839C556.767 44.6719 556.941 44.6659 557.061 44.6659V46.0339H553.641C553.629 45.9019 553.611 45.7639 553.587 45.6199C553.575 45.4759 553.557 45.3379 553.533 45.2059C553.137 45.6139 552.729 45.9019 552.309 46.0699C551.889 46.2379 551.451 46.3219 550.995 46.3219ZM551.931 44.6839C552.243 44.6839 552.531 44.6059 552.795 44.4499C553.059 44.2819 553.269 44.0719 553.425 43.8199C553.425 43.6399 553.425 43.4599 553.425 43.2799C553.425 43.0999 553.425 42.9199 553.425 42.7399V38.4199C553.305 38.3239 553.125 38.2459 552.885 38.1859C552.645 38.1139 552.399 38.0779 552.147 38.0779C551.595 38.0899 551.163 38.2639 550.851 38.5999C550.539 38.9359 550.317 39.3619 550.185 39.8779C550.065 40.3939 550.005 40.9339 550.005 41.4979C550.005 42.0019 550.065 42.4999 550.185 42.9919C550.317 43.4839 550.521 43.8919 550.797 44.2159C551.085 44.5279 551.463 44.6839 551.931 44.6839ZM562.51 46.3219C561.634 46.3219 560.86 46.1299 560.188 45.7459C559.516 45.3499 558.994 44.7979 558.622 44.0899C558.25 43.3699 558.064 42.5239 558.064 41.5519C558.064 40.7119 558.25 39.9259 558.622 39.1939C558.994 38.4619 559.516 37.8739 560.188 37.4299C560.872 36.9739 561.664 36.7459 562.564 36.7459C563.068 36.7459 563.56 36.8179 564.04 36.9619C564.52 37.0939 564.952 37.3279 565.336 37.6639C565.732 37.9999 566.044 38.4559 566.272 39.0319C566.512 39.6079 566.626 40.3279 566.614 41.1919L560.71 41.2999C560.71 41.9479 560.788 42.5299 560.944 43.0459C561.112 43.5619 561.382 43.9699 561.754 44.2699C562.126 44.5699 562.624 44.7199 563.248 44.7199C563.488 44.7199 563.758 44.6779 564.058 44.5939C564.37 44.5099 564.682 44.3719 564.994 44.1799C565.318 43.9759 565.618 43.7059 565.894 43.3699L566.704 44.1259C566.272 44.7379 565.81 45.2059 565.318 45.5299C564.826 45.8419 564.334 46.0519 563.842 46.1599C563.362 46.2679 562.918 46.3219 562.51 46.3219ZM560.818 40.0399H564.13C564.118 39.5359 564.046 39.1399 563.914 38.8519C563.794 38.5519 563.626 38.3359 563.41 38.2039C563.194 38.0719 562.942 38.0059 562.654 38.0059C562.126 38.0059 561.712 38.1979 561.412 38.5819C561.112 38.9539 560.914 39.4399 560.818 40.0399ZM572.478 50.6239V49.4539C572.814 49.4539 573.054 49.3879 573.198 49.2559C573.354 49.1239 573.45 48.9319 573.486 48.6799C573.534 48.4399 573.558 48.1639 573.558 47.8519V40.2379C573.558 40.0219 573.564 39.7819 573.576 39.5179C573.588 39.2419 573.606 38.9719 573.63 38.7079C573.438 38.7199 573.21 38.7319 572.946 38.7439C572.682 38.7439 572.484 38.7499 572.352 38.7619V37.3939C572.916 37.3939 573.384 37.3639 573.756 37.3039C574.14 37.2439 574.44 37.1719 574.656 37.0879C574.884 37.0039 575.04 36.9259 575.124 36.8539H576.006C576.03 36.9739 576.048 37.1239 576.06 37.3039C576.072 37.4719 576.084 37.6099 576.096 37.7179C576.516 37.3579 576.93 37.1059 577.338 36.9619C577.758 36.8179 578.154 36.7459 578.526 36.7459C579.246 36.7459 579.876 36.9319 580.416 37.3039C580.968 37.6759 581.394 38.2039 581.694 38.8879C582.006 39.5719 582.162 40.3759 582.162 41.2999C582.162 42.2599 581.976 43.1239 581.604 43.8919C581.232 44.6479 580.71 45.2419 580.038 45.6739C579.378 46.1059 578.598 46.3219 577.698 46.3219C577.374 46.3219 577.08 46.2859 576.816 46.2139C576.564 46.1539 576.324 46.0819 576.096 45.9979V47.7259C576.096 47.8939 576.09 48.1279 576.078 48.4279C576.078 48.7399 576.066 49.0339 576.042 49.3099C576.234 49.2859 576.444 49.2679 576.672 49.2559C576.9 49.2559 577.074 49.2559 577.194 49.2559V50.6239H572.478ZM577.41 44.9719C577.962 44.9599 578.388 44.7979 578.688 44.4859C579 44.1619 579.216 43.7419 579.336 43.2259C579.456 42.7099 579.516 42.1579 579.516 41.5699C579.516 41.0179 579.45 40.4959 579.318 40.0039C579.186 39.5119 578.976 39.1159 578.688 38.8159C578.4 38.5039 578.022 38.3539 577.554 38.3659C577.254 38.3779 576.978 38.4559 576.726 38.5999C576.474 38.7319 576.264 38.9179 576.096 39.1579C576.096 39.5299 576.096 39.9019 576.096 40.2739C576.096 40.6339 576.096 40.9939 576.096 41.3539C576.096 41.7139 576.096 42.0799 576.096 42.4519C576.096 42.8119 576.096 43.1779 576.096 43.5499C576.096 43.9099 576.096 44.2759 576.096 44.6479C576.228 44.7319 576.414 44.8099 576.654 44.8819C576.894 44.9539 577.146 44.9839 577.41 44.9719ZM583.468 44.8639C583.804 44.8639 584.044 44.7979 584.188 44.6659C584.332 44.5339 584.422 44.3479 584.458 44.1079C584.506 43.8559 584.53 43.5739 584.53 43.2619V40.2379C584.53 40.0219 584.536 39.7819 584.548 39.5179C584.56 39.2419 584.578 38.9719 584.602 38.7079C584.41 38.7199 584.182 38.7319 583.918 38.7439C583.666 38.7439 583.474 38.7499 583.342 38.7619V37.3939H584.062C584.53 37.3939 584.956 37.3339 585.34 37.2139C585.736 37.0939 585.994 36.9739 586.114 36.8539H586.996C587.02 36.9739 587.038 37.2019 587.05 37.5379C587.062 37.8619 587.068 38.1499 587.068 38.4019C587.392 38.0059 587.698 37.6879 587.986 37.4479C588.274 37.2079 588.556 37.0339 588.832 36.9259C589.12 36.8059 589.408 36.7459 589.696 36.7459C590.116 36.7459 590.482 36.8659 590.794 37.1059C591.106 37.3339 591.262 37.7119 591.262 38.2399C591.262 38.4199 591.22 38.6119 591.136 38.8159C591.052 39.0079 590.92 39.1699 590.74 39.3019C590.56 39.4339 590.314 39.4999 590.002 39.4999C589.762 39.4999 589.516 39.4279 589.264 39.2839C589.012 39.1399 588.868 38.8639 588.832 38.4559C588.592 38.4559 588.352 38.5579 588.112 38.7619C587.872 38.9539 587.656 39.1879 587.464 39.4639C587.284 39.7279 587.158 39.9739 587.086 40.2019V43.1359C587.086 43.3039 587.08 43.5439 587.068 43.8559C587.056 44.1559 587.038 44.4439 587.014 44.7199C587.206 44.6959 587.416 44.6839 587.644 44.6839C587.884 44.6719 588.064 44.6659 588.184 44.6659V46.0339H583.468V44.8639ZM596.242 46.3219C595.366 46.3219 594.592 46.1299 593.92 45.7459C593.248 45.3499 592.726 44.7979 592.354 44.0899C591.982 43.3699 591.796 42.5239 591.796 41.5519C591.796 40.7119 591.982 39.9259 592.354 39.1939C592.726 38.4619 593.248 37.8739 593.92 37.4299C594.604 36.9739 595.396 36.7459 596.296 36.7459C596.8 36.7459 597.292 36.8179 597.772 36.9619C598.252 37.0939 598.684 37.3279 599.068 37.6639C599.464 37.9999 599.776 38.4559 600.004 39.0319C600.244 39.6079 600.358 40.3279 600.346 41.1919L594.442 41.2999C594.442 41.9479 594.52 42.5299 594.676 43.0459C594.844 43.5619 595.114 43.9699 595.486 44.2699C595.858 44.5699 596.356 44.7199 596.98 44.7199C597.22 44.7199 597.49 44.6779 597.79 44.5939C598.102 44.5099 598.414 44.3719 598.726 44.1799C599.05 43.9759 599.35 43.7059 599.626 43.3699L600.436 44.1259C600.004 44.7379 599.542 45.2059 599.05 45.5299C598.558 45.8419 598.066 46.0519 597.574 46.1599C597.094 46.2679 596.65 46.3219 596.242 46.3219ZM594.55 40.0399H597.862C597.85 39.5359 597.778 39.1399 597.646 38.8519C597.526 38.5519 597.358 38.3359 597.142 38.2039C596.926 38.0719 596.674 38.0059 596.386 38.0059C595.858 38.0059 595.444 38.1979 595.144 38.5819C594.844 38.9539 594.646 39.4399 594.55 40.0399ZM601.482 50.6239V49.4539C601.818 49.4539 602.058 49.3879 602.202 49.2559C602.358 49.1239 602.454 48.9319 602.49 48.6799C602.538 48.4399 602.562 48.1639 602.562 47.8519V40.2379C602.562 40.0219 602.568 39.7819 602.58 39.5179C602.592 39.2419 602.61 38.9719 602.634 38.7079C602.442 38.7199 602.214 38.7319 601.95 38.7439C601.686 38.7439 601.488 38.7499 601.356 38.7619V37.3939C601.92 37.3939 602.388 37.3639 602.76 37.3039C603.144 37.2439 603.444 37.1719 603.66 37.0879C603.888 37.0039 604.044 36.9259 604.128 36.8539H605.01C605.034 36.9739 605.052 37.1239 605.064 37.3039C605.076 37.4719 605.088 37.6099 605.1 37.7179C605.52 37.3579 605.934 37.1059 606.342 36.9619C606.762 36.8179 607.158 36.7459 607.53 36.7459C608.25 36.7459 608.88 36.9319 609.42 37.3039C609.972 37.6759 610.398 38.2039 610.698 38.8879C611.01 39.5719 611.166 40.3759 611.166 41.2999C611.166 42.2599 610.98 43.1239 610.608 43.8919C610.236 44.6479 609.714 45.2419 609.042 45.6739C608.382 46.1059 607.602 46.3219 606.702 46.3219C606.378 46.3219 606.084 46.2859 605.82 46.2139C605.568 46.1539 605.328 46.0819 605.1 45.9979V47.7259C605.1 47.8939 605.094 48.1279 605.082 48.4279C605.082 48.7399 605.07 49.0339 605.046 49.3099C605.238 49.2859 605.448 49.2679 605.676 49.2559C605.904 49.2559 606.078 49.2559 606.198 49.2559V50.6239H601.482ZM606.414 44.9719C606.966 44.9599 607.392 44.7979 607.692 44.4859C608.004 44.1619 608.22 43.7419 608.34 43.2259C608.46 42.7099 608.52 42.1579 608.52 41.5699C608.52 41.0179 608.454 40.4959 608.322 40.0039C608.19 39.5119 607.98 39.1159 607.692 38.8159C607.404 38.5039 607.026 38.3539 606.558 38.3659C606.258 38.3779 605.982 38.4559 605.73 38.5999C605.478 38.7319 605.268 38.9179 605.1 39.1579C605.1 39.5299 605.1 39.9019 605.1 40.2739C605.1 40.6339 605.1 40.9939 605.1 41.3539C605.1 41.7139 605.1 42.0799 605.1 42.4519C605.1 42.8119 605.1 43.1779 605.1 43.5499C605.1 43.9099 605.1 44.2759 605.1 44.6479C605.232 44.7319 605.418 44.8099 605.658 44.8819C605.898 44.9539 606.15 44.9839 606.414 44.9719ZM617.476 46.0339C617.452 45.8659 617.434 45.7279 617.422 45.6199C617.422 45.4999 617.416 45.3619 617.404 45.2059C616.996 45.6139 616.564 45.9019 616.108 46.0699C615.652 46.2379 615.19 46.3219 614.722 46.3219C613.954 46.3219 613.354 46.0939 612.922 45.6379C612.49 45.1819 612.274 44.6119 612.274 43.9279C612.274 43.3519 612.418 42.8599 612.706 42.4519C613.006 42.0439 613.396 41.7139 613.876 41.4619C614.368 41.1979 614.908 40.9999 615.496 40.8679C616.096 40.7239 616.696 40.6399 617.296 40.6159V39.6799C617.296 39.3679 617.254 39.0859 617.17 38.8339C617.098 38.5819 616.966 38.3839 616.774 38.2399C616.594 38.0959 616.336 38.0299 616 38.0419C615.772 38.0539 615.55 38.1019 615.334 38.1859C615.118 38.2699 614.932 38.3899 614.776 38.5459C614.872 38.6539 614.932 38.7739 614.956 38.9059C614.98 39.0259 614.992 39.1339 614.992 39.2299C614.992 39.4699 614.896 39.7219 614.704 39.9859C614.512 40.2379 614.206 40.3579 613.786 40.3459C613.426 40.3339 613.15 40.2079 612.958 39.9679C612.766 39.7279 612.67 39.4459 612.67 39.1219C612.67 38.6419 612.838 38.2279 613.174 37.8799C613.522 37.5199 613.984 37.2439 614.56 37.0519C615.136 36.8479 615.772 36.7459 616.468 36.7459C617.524 36.7459 618.34 37.0219 618.916 37.5739C619.504 38.1139 619.798 38.9839 619.798 40.1839C619.798 40.5919 619.798 40.9399 619.798 41.2279C619.798 41.5159 619.792 41.8039 619.78 42.0919C619.78 42.3799 619.78 42.7279 619.78 43.1359C619.78 43.3039 619.774 43.5439 619.762 43.8559C619.75 44.1559 619.732 44.4439 619.708 44.7199C619.912 44.6959 620.128 44.6839 620.356 44.6839C620.584 44.6719 620.758 44.6659 620.878 44.6659V46.0339H617.476ZM617.278 41.8939C616.942 41.9299 616.624 41.9899 616.324 42.0739C616.024 42.1579 615.76 42.2719 615.532 42.4159C615.316 42.5599 615.142 42.7339 615.01 42.9379C614.89 43.1419 614.83 43.3699 614.83 43.6219C614.842 43.9579 614.95 44.1979 615.154 44.3419C615.358 44.4859 615.592 44.5579 615.856 44.5579C616.132 44.5579 616.39 44.4979 616.63 44.3779C616.87 44.2579 617.086 44.1019 617.278 43.9099C617.278 43.7899 617.278 43.6759 617.278 43.5679C617.278 43.4479 617.278 43.3279 617.278 43.2079C617.278 42.9919 617.278 42.7759 617.278 42.5599C617.278 42.3319 617.278 42.1099 617.278 41.8939ZM621.912 44.8639C622.248 44.8639 622.488 44.7979 622.632 44.6659C622.776 44.5339 622.866 44.3479 622.902 44.1079C622.95 43.8559 622.974 43.5739 622.974 43.2619V40.2379C622.974 40.0219 622.98 39.7819 622.992 39.5179C623.004 39.2419 623.022 38.9719 623.046 38.7079C622.854 38.7199 622.626 38.7319 622.362 38.7439C622.11 38.7439 621.918 38.7499 621.786 38.7619V37.3939H622.506C622.974 37.3939 623.4 37.3339 623.784 37.2139C624.18 37.0939 624.438 36.9739 624.558 36.8539H625.44C625.464 36.9739 625.482 37.2019 625.494 37.5379C625.506 37.8619 625.512 38.1499 625.512 38.4019C625.836 38.0059 626.142 37.6879 626.43 37.4479C626.718 37.2079 627 37.0339 627.276 36.9259C627.564 36.8059 627.852 36.7459 628.14 36.7459C628.56 36.7459 628.926 36.8659 629.238 37.1059C629.55 37.3339 629.706 37.7119 629.706 38.2399C629.706 38.4199 629.664 38.6119 629.58 38.8159C629.496 39.0079 629.364 39.1699 629.184 39.3019C629.004 39.4339 628.758 39.4999 628.446 39.4999C628.206 39.4999 627.96 39.4279 627.708 39.2839C627.456 39.1399 627.312 38.8639 627.276 38.4559C627.036 38.4559 626.796 38.5579 626.556 38.7619C626.316 38.9539 626.1 39.1879 625.908 39.4639C625.728 39.7279 625.602 39.9739 625.53 40.2019V43.1359C625.53 43.3039 625.524 43.5439 625.512 43.8559C625.5 44.1559 625.482 44.4439 625.458 44.7199C625.65 44.6959 625.86 44.6839 626.088 44.6839C626.328 44.6719 626.508 44.6659 626.628 44.6659V46.0339H621.912V44.8639ZM635.476 46.0339C635.452 45.8659 635.434 45.7279 635.422 45.6199C635.422 45.4999 635.416 45.3619 635.404 45.2059C634.996 45.6139 634.564 45.9019 634.108 46.0699C633.652 46.2379 633.19 46.3219 632.722 46.3219C631.954 46.3219 631.354 46.0939 630.922 45.6379C630.49 45.1819 630.274 44.6119 630.274 43.9279C630.274 43.3519 630.418 42.8599 630.706 42.4519C631.006 42.0439 631.396 41.7139 631.876 41.4619C632.368 41.1979 632.908 40.9999 633.496 40.8679C634.096 40.7239 634.696 40.6399 635.296 40.6159V39.6799C635.296 39.3679 635.254 39.0859 635.17 38.8339C635.098 38.5819 634.966 38.3839 634.774 38.2399C634.594 38.0959 634.336 38.0299 634 38.0419C633.772 38.0539 633.55 38.1019 633.334 38.1859C633.118 38.2699 632.932 38.3899 632.776 38.5459C632.872 38.6539 632.932 38.7739 632.956 38.9059C632.98 39.0259 632.992 39.1339 632.992 39.2299C632.992 39.4699 632.896 39.7219 632.704 39.9859C632.512 40.2379 632.206 40.3579 631.786 40.3459C631.426 40.3339 631.15 40.2079 630.958 39.9679C630.766 39.7279 630.67 39.4459 630.67 39.1219C630.67 38.6419 630.838 38.2279 631.174 37.8799C631.522 37.5199 631.984 37.2439 632.56 37.0519C633.136 36.8479 633.772 36.7459 634.468 36.7459C635.524 36.7459 636.34 37.0219 636.916 37.5739C637.504 38.1139 637.798 38.9839 637.798 40.1839C637.798 40.5919 637.798 40.9399 637.798 41.2279C637.798 41.5159 637.792 41.8039 637.78 42.0919C637.78 42.3799 637.78 42.7279 637.78 43.1359C637.78 43.3039 637.774 43.5439 637.762 43.8559C637.75 44.1559 637.732 44.4439 637.708 44.7199C637.912 44.6959 638.128 44.6839 638.356 44.6839C638.584 44.6719 638.758 44.6659 638.878 44.6659V46.0339H635.476ZM635.278 41.8939C634.942 41.9299 634.624 41.9899 634.324 42.0739C634.024 42.1579 633.76 42.2719 633.532 42.4159C633.316 42.5599 633.142 42.7339 633.01 42.9379C632.89 43.1419 632.83 43.3699 632.83 43.6219C632.842 43.9579 632.95 44.1979 633.154 44.3419C633.358 44.4859 633.592 44.5579 633.856 44.5579C634.132 44.5579 634.39 44.4979 634.63 44.3779C634.87 44.2579 635.086 44.1019 635.278 43.9099C635.278 43.7899 635.278 43.6759 635.278 43.5679C635.278 43.4479 635.278 43.3279 635.278 43.2079C635.278 42.9919 635.278 42.7759 635.278 42.5599C635.278 42.3319 635.278 42.1099 635.278 41.8939ZM644.16 46.3219C643.356 46.3219 642.618 46.1419 641.946 45.7819C641.274 45.4219 640.734 44.8999 640.326 44.2159C639.93 43.5319 639.732 42.7039 639.732 41.7319C639.732 41.0479 639.846 40.4059 640.074 39.8059C640.302 39.2059 640.62 38.6779 641.028 38.2219C641.448 37.7659 641.94 37.4059 642.504 37.1419C643.08 36.8779 643.716 36.7459 644.412 36.7459C645.18 36.7459 645.816 36.8659 646.32 37.1059C646.836 37.3339 647.22 37.6399 647.472 38.0239C647.736 38.3959 647.868 38.7919 647.868 39.2119C647.868 39.5599 647.76 39.8719 647.544 40.1479C647.34 40.4119 647.046 40.5499 646.662 40.5619C646.206 40.5739 645.888 40.4479 645.708 40.1839C645.528 39.9079 645.438 39.6439 645.438 39.3919C645.438 39.2839 645.456 39.1579 645.492 39.0139C645.528 38.8579 645.582 38.7199 645.654 38.5999C645.57 38.4199 645.444 38.2879 645.276 38.2039C645.108 38.1199 644.934 38.0659 644.754 38.0419C644.586 38.0059 644.448 37.9939 644.34 38.0059C643.764 38.0419 643.29 38.3299 642.918 38.8699C642.546 39.4099 642.36 40.1899 642.36 41.2099C642.36 41.8099 642.432 42.3739 642.576 42.9019C642.732 43.4179 642.984 43.8439 643.332 44.1799C643.68 44.5159 644.148 44.6959 644.736 44.7199C645.24 44.7319 645.732 44.6119 646.212 44.3599C646.692 44.1079 647.1 43.7659 647.436 43.3339L648.264 44.1439C647.832 44.7439 647.382 45.1999 646.914 45.5119C646.446 45.8239 645.978 46.0339 645.51 46.1419C645.054 46.2619 644.604 46.3219 644.16 46.3219ZM649.228 44.8639C649.564 44.8639 649.804 44.7979 649.948 44.6659C650.092 44.5339 650.182 44.3479 650.218 44.1079C650.266 43.8559 650.29 43.5739 650.29 43.2619V40.2739C650.29 40.0579 650.296 39.8119 650.308 39.5359C650.32 39.2479 650.338 38.9719 650.362 38.7079C650.17 38.7199 649.942 38.7319 649.678 38.7439C649.426 38.7439 649.234 38.7499 649.102 38.7619V37.3939C649.654 37.3939 650.122 37.3639 650.506 37.3039C650.89 37.2439 651.19 37.1719 651.406 37.0879C651.634 37.0039 651.79 36.9259 651.874 36.8539H652.846V43.1359C652.846 43.3039 652.84 43.5439 652.828 43.8559C652.816 44.1559 652.798 44.4439 652.774 44.7199C652.966 44.6959 653.176 44.6839 653.404 44.6839C653.644 44.6719 653.824 44.6659 653.944 44.6659V46.0339H649.228V44.8639ZM651.478 35.4319C651.07 35.4319 650.734 35.2879 650.47 34.9999C650.206 34.7119 650.074 34.3639 650.074 33.9559C650.074 33.5479 650.212 33.1999 650.488 32.9119C650.764 32.6239 651.088 32.4799 651.46 32.4799C651.844 32.4799 652.162 32.6239 652.414 32.9119C652.678 33.1999 652.81 33.5479 652.81 33.9559C652.81 34.3639 652.69 34.7119 652.45 34.9999C652.21 35.2879 651.886 35.4319 651.478 35.4319ZM659.527 46.3219C658.663 46.3219 657.883 46.1359 657.187 45.7639C656.491 45.3919 655.939 44.8639 655.531 44.1799C655.135 43.4839 654.937 42.6679 654.937 41.7319C654.937 40.7359 655.141 39.8659 655.549 39.1219C655.969 38.3659 656.521 37.7839 657.205 37.3759C657.901 36.9559 658.657 36.7459 659.473 36.7459C660.337 36.7459 661.111 36.9319 661.795 37.3039C662.479 37.6759 663.019 38.2099 663.415 38.9059C663.811 39.5899 664.009 40.4119 664.009 41.3719C664.009 42.3799 663.817 43.2559 663.433 43.9999C663.049 44.7439 662.521 45.3199 661.849 45.7279C661.177 46.1239 660.403 46.3219 659.527 46.3219ZM659.599 45.0439C660.079 45.0319 660.439 44.8639 660.679 44.5399C660.931 44.2159 661.105 43.8079 661.201 43.3159C661.297 42.8239 661.345 42.3259 661.345 41.8219C661.345 41.3779 661.309 40.9279 661.237 40.4719C661.177 40.0159 661.075 39.6019 660.931 39.2299C660.787 38.8579 660.589 38.5579 660.337 38.3299C660.097 38.1019 659.797 37.9939 659.437 38.0059C658.969 38.0179 658.597 38.1859 658.321 38.5099C658.057 38.8339 657.865 39.2419 657.745 39.7339C657.637 40.2139 657.583 40.7179 657.583 41.2459C657.583 41.8579 657.649 42.4579 657.781 43.0459C657.913 43.6339 658.123 44.1199 658.411 44.5039C658.711 44.8759 659.107 45.0559 659.599 45.0439ZM658.555 35.8639L657.727 35.1259L659.203 32.6059C659.335 32.4019 659.491 32.2459 659.671 32.1379C659.863 32.0179 660.067 31.9579 660.283 31.9579C660.499 31.9459 660.703 32.0179 660.895 32.1739C661.087 32.3419 661.195 32.5399 661.219 32.7679C661.243 32.9839 661.207 33.1999 661.111 33.4159C661.027 33.6199 660.901 33.7999 660.733 33.9559L658.555 35.8639ZM665.312 46.0339V44.8639C665.648 44.8639 665.888 44.7979 666.032 44.6659C666.176 44.5339 666.266 44.3479 666.302 44.1079C666.35 43.8559 666.374 43.5739 666.374 43.2619V40.2379C666.374 40.0219 666.38 39.7819 666.392 39.5179C666.404 39.2419 666.422 38.9719 666.446 38.7079C666.254 38.7199 666.026 38.7319 665.762 38.7439C665.51 38.7439 665.318 38.7499 665.186 38.7619V37.3939C665.738 37.3939 666.206 37.3639 666.59 37.3039C666.974 37.2439 667.274 37.1719 667.49 37.0879C667.718 37.0039 667.874 36.9259 667.958 36.8539H668.84C668.864 37.0099 668.876 37.1239 668.876 37.1959C668.876 37.2679 668.876 37.3399 668.876 37.4119C668.888 37.4719 668.912 37.5859 668.948 37.7539C669.188 37.5619 669.464 37.3939 669.776 37.2499C670.088 37.0939 670.4 36.9739 670.712 36.8899C671.024 36.7939 671.3 36.7459 671.54 36.7459C672.644 36.7459 673.424 37.0639 673.88 37.6999C674.348 38.3239 674.582 39.3319 674.582 40.7239V43.1359C674.582 43.3039 674.576 43.5439 674.564 43.8559C674.552 44.1559 674.534 44.4439 674.51 44.7199C674.714 44.6959 674.93 44.6839 675.158 44.6839C675.386 44.6719 675.56 44.6659 675.68 44.6659V46.0339H670.964V44.8639C671.3 44.8639 671.54 44.7979 671.684 44.6659C671.84 44.5339 671.936 44.3479 671.972 44.1079C672.02 43.8559 672.044 43.5739 672.044 43.2619L672.026 40.7059C672.026 39.9259 671.912 39.3499 671.684 38.9779C671.468 38.5939 671.096 38.4019 670.568 38.4019C670.268 38.4019 669.968 38.4679 669.668 38.5999C669.38 38.7319 669.134 38.8879 668.93 39.0679C668.93 39.2359 668.93 39.4099 668.93 39.5899C668.93 39.7579 668.93 39.9259 668.93 40.0939V43.1359C668.93 43.3039 668.924 43.5439 668.912 43.8559C668.9 44.1559 668.882 44.4439 668.858 44.7199C669.05 44.6959 669.26 44.6839 669.488 44.6839C669.728 44.6719 669.908 44.6659 670.028 44.6659V46.0339H665.312ZM678.159 46.3219C677.775 46.3219 677.457 46.1839 677.205 45.9079C676.965 45.6319 676.845 45.3019 676.845 44.9179C676.845 44.5339 676.977 44.2039 677.241 43.9279C677.505 43.6519 677.811 43.5139 678.159 43.5139C678.531 43.5139 678.837 43.6519 679.077 43.9279C679.329 44.2039 679.455 44.5339 679.455 44.9179C679.455 45.3019 679.335 45.6319 679.095 45.9079C678.867 46.1839 678.555 46.3219 678.159 46.3219Z" fill="#2E7D33"/>
</svg>
