<svg width="24" height="25" viewBox="0 0 24 25" fill="none" xmlns="http://www.w3.org/2000/svg">
<path d="M22.2355 11.1207H20.3331C20.1385 9.21303 19.2913 7.43122 17.9348 6.07699C16.5783 4.72276 14.796 3.87932 12.8895 3.68946V1.78522C12.8895 1.54912 12.7958 1.32268 12.629 1.15573C12.4622 0.988781 12.236 0.894989 12.0001 0.894989C11.7642 0.894989 11.538 0.988781 11.3712 1.15573C11.2044 1.32268 11.1107 1.54912 11.1107 1.78522V3.68946C9.20765 3.88345 7.42976 4.72872 6.07714 6.08257C4.72452 7.43643 3.88002 9.21595 3.6862 11.1207H1.7837C1.54782 11.1207 1.32159 11.2145 1.15479 11.3815C0.987993 11.5484 0.894287 11.7749 0.894287 12.011C0.894287 12.2471 0.987993 12.4735 1.15479 12.6405C1.32159 12.8074 1.54782 12.9012 1.7837 12.9012H3.6862C3.88002 14.806 4.72452 16.5855 6.07714 17.9394C7.42976 19.2932 9.20765 20.1385 11.1107 20.3325V22.2367C11.1107 22.4728 11.2044 22.6993 11.3712 22.8662C11.538 23.0332 11.7642 23.1269 12.0001 23.1269C12.236 23.1269 12.4622 23.0332 12.629 22.8662C12.7958 22.6993 12.8895 22.4728 12.8895 22.2367V20.3325C14.7926 20.1385 16.5705 19.2932 17.9231 17.9394C19.2757 16.5855 20.1202 14.806 20.314 12.9012H22.2165C22.4524 12.9012 22.6786 12.8074 22.8454 12.6405C23.0122 12.4735 23.1059 12.2471 23.1059 12.011C23.1059 11.7749 23.0122 11.5484 22.8454 11.3815C22.6786 11.2145 22.4524 11.1207 22.2165 11.1207H22.2355ZM18.5923 12.011C18.5923 13.316 18.2056 14.5917 17.4813 15.6767C16.7569 16.7618 15.7274 17.6075 14.5228 18.1069C13.3183 18.6063 11.9928 18.737 10.714 18.4824C9.4353 18.2278 8.26069 17.5994 7.33876 16.6766C6.41683 15.7538 5.78899 14.5781 5.53463 13.2982C5.28027 12.0183 5.41081 10.6916 5.90976 9.48595C6.4087 8.28029 7.25364 7.2498 8.33771 6.52478C9.42178 5.79977 10.6963 5.41279 12.0001 5.41279C13.7477 5.41531 15.423 6.11128 16.6587 7.34813C17.8944 8.58498 18.5898 10.2618 18.5923 12.011Z" fill="#3E5A7E"/>
<path d="M12 16.0242C14.2144 16.0242 16.0095 14.2274 16.0095 12.011C16.0095 9.79456 14.2144 7.9978 12 7.9978C9.7856 7.9978 7.99048 9.79456 7.99048 12.011C7.99048 14.2274 9.7856 16.0242 12 16.0242Z" fill="#3E5A7E"/>
</svg>
