<svg width="517" height="48" viewBox="0 0 517 48" fill="none" xmlns="http://www.w3.org/2000/svg">
<path d="M26.082 13.5461C26.082 11.8901 25.852 10.5254 25.392 9.4521C24.932 8.3481 24.2727 7.53543 23.414 7.0141C22.586 6.4621 21.5893 6.20143 20.424 6.2321H18.216V27.8061C18.216 28.6341 18.2007 29.4314 18.17 30.1981C18.1393 30.9648 18.0933 31.5474 18.032 31.9461C18.5533 31.8848 19.2127 31.8541 20.01 31.8541C20.838 31.8234 21.4053 31.8081 21.712 31.8081V35.3501H8.28V32.3141C8.98533 32.2834 9.568 32.1914 10.028 32.0381C10.5187 31.8848 10.8867 31.5321 11.132 30.9801C11.408 30.4281 11.546 29.5388 11.546 28.3121V6.2781H9.43C7.682 6.30876 6.302 6.90676 5.29 8.0721C4.278 9.23743 3.772 11.0621 3.772 13.5461H0.736L0.966 3.1501H28.842L29.118 13.5461H26.082ZM40.37 36.0861C38.1314 36.0861 36.1534 35.5954 34.436 34.6141C32.7187 33.6021 31.3847 32.1914 30.434 30.3821C29.4834 28.5421 29.008 26.3801 29.008 23.8961C29.008 21.7494 29.4834 19.7408 30.434 17.8701C31.3847 15.9994 32.7187 14.4968 34.436 13.3621C36.184 12.1968 38.208 11.6141 40.508 11.6141C41.796 11.6141 43.0534 11.7981 44.28 12.1661C45.5067 12.5034 46.6107 13.1014 47.592 13.9601C48.604 14.8188 49.4014 15.9841 49.984 17.4561C50.5974 18.9281 50.8887 20.7681 50.858 22.9761L35.77 23.2521C35.77 24.9081 35.9694 26.3954 36.368 27.7141C36.7974 29.0328 37.4874 30.0754 38.438 30.8421C39.3887 31.6088 40.6614 31.9921 42.256 31.9921C42.8694 31.9921 43.5594 31.8848 44.326 31.6701C45.1234 31.4554 45.9207 31.1028 46.718 30.6121C47.546 30.0908 48.3127 29.4008 49.018 28.5421L51.088 30.4741C49.984 32.0381 48.8034 33.2341 47.546 34.0621C46.2887 34.8594 45.0314 35.3961 43.774 35.6721C42.5474 35.9481 41.4127 36.0861 40.37 36.0861ZM36.046 20.0321H44.51C44.4794 18.7441 44.2954 17.7321 43.958 16.9961C43.6514 16.2294 43.222 15.6774 42.67 15.3401C42.118 15.0028 41.474 14.8341 40.738 14.8341C39.3887 14.8341 38.3307 15.3248 37.564 16.3061C36.7974 17.2568 36.2914 18.4988 36.046 20.0321ZM64.8 36.0861C63.4813 36.0861 62.1933 35.9174 60.936 35.5801C59.6787 35.2428 58.6973 34.8134 57.992 34.2921L58.084 35.6721H54.588L54.404 27.7601H57.394C57.486 28.6801 57.854 29.5234 58.498 30.2901C59.142 31.0568 59.9853 31.6701 61.028 32.1301C62.0707 32.5594 63.236 32.7741 64.524 32.7741C65.0453 32.7741 65.536 32.6974 65.996 32.5441C66.4867 32.3908 66.8853 32.1454 67.192 31.8081C67.5293 31.4401 67.698 30.9954 67.698 30.4741C67.698 29.8914 67.4833 29.4161 67.054 29.0481C66.6553 28.6801 66.0573 28.3274 65.26 27.9901C64.4933 27.6528 63.5273 27.2694 62.362 26.8401C61.4113 26.4721 60.4453 26.0888 59.464 25.6901C58.5133 25.2914 57.624 24.8161 56.796 24.2641C55.9987 23.6814 55.3547 22.9761 54.864 22.1481C54.3733 21.2894 54.128 20.2468 54.128 19.0201C54.128 18.1308 54.2967 17.2568 54.634 16.3981C54.9713 15.5088 55.4927 14.7114 56.198 14.0061C56.9033 13.2701 57.7927 12.6874 58.866 12.2581C59.97 11.8288 61.2733 11.6141 62.776 11.6141C63.604 11.6141 64.5393 11.7521 65.582 12.0281C66.6553 12.2734 67.56 12.6568 68.296 13.1781V11.8441H71.792V19.9861H68.802C68.618 18.9128 68.2347 17.9928 67.652 17.2261C67.1 16.4594 66.3793 15.8768 65.49 15.4781C64.6007 15.0488 63.604 14.8341 62.5 14.8341C61.7333 14.8341 61.028 15.0181 60.384 15.3861C59.7707 15.7541 59.464 16.3828 59.464 17.2721C59.464 17.9774 59.7093 18.5448 60.2 18.9741C60.6907 19.3728 61.3653 19.7101 62.224 19.9861C63.0827 20.2621 64.0333 20.5841 65.076 20.9521C66.64 21.4734 68.02 22.0868 69.216 22.7921C70.4427 23.4974 71.4087 24.3561 72.114 25.3681C72.8193 26.3494 73.172 27.5608 73.172 29.0021C73.172 30.5968 72.7733 31.9154 71.976 32.9581C71.1787 34.0008 70.136 34.7828 68.848 35.3041C67.5907 35.8254 66.2413 36.0861 64.8 36.0861ZM85.6542 36.0861C84.7342 36.0861 83.8448 35.9788 82.9862 35.7641C82.1275 35.5494 81.3608 35.1508 80.6862 34.5681C80.0115 33.9548 79.4748 33.0654 79.0762 31.9001C78.6775 30.7348 78.4782 29.1861 78.4782 27.2541L78.5702 16.1681H75.4422V12.3501C76.3928 12.3194 77.3128 11.9974 78.2022 11.3841C79.0915 10.7708 79.8428 9.97343 80.4562 8.9921C81.1002 8.01076 81.5295 6.98343 81.7442 5.9101H85.1482L85.1022 12.3501H90.9442V15.8921L85.1022 16.0301L85.0562 27.3461C85.0562 28.0514 85.1175 28.7568 85.2402 29.4621C85.3935 30.1368 85.6695 30.7041 86.0682 31.1641C86.4668 31.5934 87.0495 31.8081 87.8162 31.8081C88.2455 31.8081 88.8282 31.6548 89.5642 31.3481C90.3308 31.0414 91.1435 30.2748 92.0022 29.0481L94.2102 31.1181C93.3822 32.3448 92.5235 33.2954 91.6342 33.9701C90.7448 34.6448 89.8862 35.1354 89.0582 35.4421C88.2608 35.7488 87.5555 35.9328 86.9422 35.9941C86.3288 36.0554 85.8995 36.0861 85.6542 36.0861ZM116.51 36.0861C114.67 36.0861 113.045 35.6108 111.634 34.6601C110.254 33.7094 109.165 32.3601 108.368 30.6121C107.601 28.8641 107.218 26.8094 107.218 24.4481C107.218 21.9641 107.693 19.7561 108.644 17.8241C109.595 15.8921 110.929 14.3741 112.646 13.2701C114.363 12.1661 116.357 11.6141 118.626 11.6141C119.454 11.6141 120.19 11.7061 120.834 11.8901C121.509 12.0434 122.137 12.2274 122.72 12.4421V9.4061C122.72 8.97676 122.735 8.36343 122.766 7.5661C122.797 6.76876 122.843 6.03276 122.904 5.3581C122.413 5.38876 121.831 5.41943 121.156 5.4501C120.481 5.48076 119.975 5.4961 119.638 5.4961V2.0001C121.079 2.0001 122.275 1.92343 123.226 1.7701C124.207 1.61676 124.974 1.43276 125.526 1.2181C126.109 1.00343 126.507 0.804096 126.722 0.620095H129.206V27.9441C129.206 28.3734 129.191 28.9868 129.16 29.7841C129.129 30.5508 129.083 31.2868 129.022 31.9921C129.543 31.9308 130.095 31.9001 130.678 31.9001C131.261 31.8694 131.705 31.8541 132.012 31.8541V35.3501H123.272C123.241 35.0128 123.195 34.6601 123.134 34.2921C123.103 33.9241 123.057 33.5714 122.996 33.2341C121.984 34.2768 120.941 35.0128 119.868 35.4421C118.795 35.8714 117.675 36.0861 116.51 36.0861ZM118.902 31.9001C119.699 31.9001 120.435 31.7008 121.11 31.3021C121.785 30.8728 122.321 30.3361 122.72 29.6921C122.72 29.2321 122.72 28.7721 122.72 28.3121C122.72 27.8521 122.72 27.3921 122.72 26.9321V15.8921C122.413 15.6468 121.953 15.4474 121.34 15.2941C120.727 15.1101 120.098 15.0181 119.454 15.0181C118.043 15.0488 116.939 15.4934 116.142 16.3521C115.345 17.2108 114.777 18.2994 114.44 19.6181C114.133 20.9368 113.98 22.3168 113.98 23.7581C113.98 25.0461 114.133 26.3188 114.44 27.5761C114.777 28.8334 115.299 29.8761 116.004 30.7041C116.74 31.5014 117.706 31.9001 118.902 31.9001ZM145.936 36.0861C143.698 36.0861 141.72 35.5954 140.002 34.6141C138.285 33.6021 136.951 32.1914 136 30.3821C135.05 28.5421 134.574 26.3801 134.574 23.8961C134.574 21.7494 135.05 19.7408 136 17.8701C136.951 15.9994 138.285 14.4968 140.002 13.3621C141.75 12.1968 143.774 11.6141 146.074 11.6141C147.362 11.6141 148.62 11.7981 149.846 12.1661C151.073 12.5034 152.177 13.1014 153.158 13.9601C154.17 14.8188 154.968 15.9841 155.55 17.4561C156.164 18.9281 156.455 20.7681 156.424 22.9761L141.336 23.2521C141.336 24.9081 141.536 26.3954 141.934 27.7141C142.364 29.0328 143.054 30.0754 144.004 30.8421C144.955 31.6088 146.228 31.9921 147.822 31.9921C148.436 31.9921 149.126 31.8848 149.892 31.6701C150.69 31.4554 151.487 31.1028 152.284 30.6121C153.112 30.0908 153.879 29.4008 154.584 28.5421L156.654 30.4741C155.55 32.0381 154.37 33.2341 153.112 34.0621C151.855 34.8594 150.598 35.3961 149.34 35.6721C148.114 35.9481 146.979 36.0861 145.936 36.0861ZM141.612 20.0321H150.076C150.046 18.7441 149.862 17.7321 149.524 16.9961C149.218 16.2294 148.788 15.6774 148.236 15.3401C147.684 15.0028 147.04 14.8341 146.304 14.8341C144.955 14.8341 143.897 15.3248 143.13 16.3061C142.364 17.2568 141.858 18.4988 141.612 20.0321ZM187.924 24.2641C187.924 22.9761 187.725 22.0408 187.326 21.4581C186.928 20.8754 186.376 20.5228 185.67 20.4001C184.996 20.2468 184.244 20.1854 183.416 20.2161L182.22 20.2621V27.8061C182.22 28.6341 182.205 29.4161 182.174 30.1521C182.144 30.8881 182.098 31.4554 182.036 31.8541H188.2C189.12 31.8541 190.01 31.6548 190.868 31.2561C191.727 30.8268 192.432 30.1368 192.984 29.1861C193.536 28.2048 193.812 26.8861 193.812 25.2301H196.802L196.572 35.3501H172.284V32.3141C172.99 32.2834 173.572 32.1914 174.032 32.0381C174.523 31.8848 174.891 31.5321 175.136 30.9801C175.412 30.4281 175.55 29.5388 175.55 28.3121V10.6941C175.55 9.8661 175.566 9.06876 175.596 8.3021C175.658 7.53543 175.704 6.95276 175.734 6.5541C175.244 6.58476 174.63 6.61543 173.894 6.6461C173.158 6.6461 172.622 6.66143 172.284 6.6921V3.1501H195.284L195.56 12.0741H192.524C192.524 10.3874 192.233 9.11476 191.65 8.2561C191.068 7.39743 190.347 6.8301 189.488 6.5541C188.63 6.24743 187.786 6.10943 186.958 6.1401L185.302 6.1861C184.658 6.1861 184.106 6.2781 183.646 6.4621C183.186 6.61543 182.834 6.98343 182.588 7.5661C182.343 8.1181 182.22 8.9921 182.22 10.1881V17.0881H187.602L187.418 13.0861H190.96V24.2641H187.924ZM200.351 35.3501V32.3601C201.21 32.3601 201.823 32.1914 202.191 31.8541C202.559 31.5168 202.789 31.0414 202.881 30.4281C203.004 29.7841 203.065 29.0634 203.065 28.2661V20.5381C203.065 19.9861 203.08 19.3728 203.111 18.6981C203.142 17.9928 203.188 17.3028 203.249 16.6281C202.758 16.6588 202.176 16.6894 201.501 16.7201C200.857 16.7201 200.366 16.7354 200.029 16.7661V13.2701C201.44 13.2701 202.636 13.1934 203.617 13.0401C204.598 12.8868 205.365 12.7028 205.917 12.4881C206.5 12.2734 206.898 12.0741 207.113 11.8901H209.367C209.428 12.1968 209.459 12.5801 209.459 13.0401C209.49 13.5001 209.52 13.8834 209.551 14.1901C210.594 13.3928 211.713 12.7641 212.909 12.3041C214.136 11.8441 215.286 11.6141 216.359 11.6141C217.77 11.6141 218.935 11.8748 219.855 12.3961C220.775 12.8868 221.511 13.6381 222.063 14.6501C223.167 13.7301 224.378 12.9941 225.697 12.4421C227.046 11.8901 228.334 11.6141 229.561 11.6141C232.045 11.6141 233.916 12.3348 235.173 13.7761C236.461 15.1868 237.105 17.6554 237.105 21.1821V27.9441C237.105 28.3734 237.09 28.9868 237.059 29.7841C237.028 30.5508 236.982 31.2868 236.921 31.9921C237.412 31.9308 237.948 31.9001 238.531 31.9001C239.144 31.8694 239.604 31.8541 239.911 31.8541V35.3501H228.273V32.3601C228.978 32.3601 229.484 32.1914 229.791 31.8541C230.128 31.5168 230.343 31.0414 230.435 30.4281C230.527 29.7841 230.573 29.0634 230.573 28.2661V21.2281C230.542 19.2348 230.205 17.8548 229.561 17.0881C228.948 16.3214 228.12 15.9228 227.077 15.8921C226.28 15.8614 225.528 15.9994 224.823 16.3061C224.148 16.6128 223.535 16.9808 222.983 17.4101C223.136 18.0234 223.244 18.6981 223.305 19.4341C223.366 20.1701 223.397 20.9521 223.397 21.7801C223.397 22.8228 223.397 23.8501 223.397 24.8621C223.397 25.8741 223.397 26.9014 223.397 27.9441C223.397 28.3734 223.382 28.9868 223.351 29.7841C223.32 30.5508 223.274 31.2868 223.213 31.9921C223.704 31.9308 224.24 31.9001 224.823 31.9001C225.406 31.8694 225.866 31.8541 226.203 31.8541V35.3501H214.335V32.3601C215.132 32.3601 215.7 32.1914 216.037 31.8541C216.405 31.5168 216.635 31.0414 216.727 30.4281C216.819 29.7841 216.865 29.0634 216.865 28.2661L216.819 21.0901C216.819 19.0968 216.528 17.7321 215.945 16.9961C215.362 16.2601 214.55 15.8768 213.507 15.8461C212.74 15.8461 212.02 16.0148 211.345 16.3521C210.701 16.6894 210.118 17.0881 209.597 17.5481C209.597 17.9468 209.597 18.3301 209.597 18.6981C209.597 19.0661 209.597 19.4494 209.597 19.8481V27.9441C209.597 28.3734 209.582 28.9868 209.551 29.7841C209.52 30.5508 209.474 31.2868 209.413 31.9921C209.904 31.9308 210.41 31.9001 210.931 31.9001C211.452 31.8694 211.866 31.8541 212.173 31.8541V35.3501H200.351ZM242.028 47.0801V44.0901C242.886 44.0901 243.5 43.9214 243.868 43.5841C244.266 43.2468 244.512 42.7561 244.604 42.1121C244.726 41.4988 244.788 40.7934 244.788 39.9961V20.5381C244.788 19.9861 244.803 19.3728 244.834 18.6981C244.864 17.9928 244.91 17.3028 244.972 16.6281C244.481 16.6588 243.898 16.6894 243.224 16.7201C242.549 16.7201 242.043 16.7354 241.706 16.7661V13.2701C243.147 13.2701 244.343 13.1934 245.294 13.0401C246.275 12.8868 247.042 12.7028 247.594 12.4881C248.176 12.2734 248.575 12.0741 248.79 11.8901H251.044C251.105 12.1968 251.151 12.5801 251.182 13.0401C251.212 13.4694 251.243 13.8221 251.274 14.0981C252.347 13.1781 253.405 12.5341 254.448 12.1661C255.521 11.7981 256.533 11.6141 257.484 11.6141C259.324 11.6141 260.934 12.0894 262.314 13.0401C263.724 13.9908 264.813 15.3401 265.58 17.0881C266.377 18.8361 266.776 20.8908 266.776 23.2521C266.776 25.7054 266.3 27.9134 265.35 29.8761C264.399 31.8081 263.065 33.3261 261.348 34.4301C259.661 35.5341 257.668 36.0861 255.368 36.0861C254.54 36.0861 253.788 35.9941 253.114 35.8101C252.47 35.6568 251.856 35.4728 251.274 35.2581V39.6741C251.274 40.1034 251.258 40.7014 251.228 41.4681C251.228 42.2654 251.197 43.0168 251.136 43.7221C251.626 43.6608 252.163 43.6148 252.746 43.5841C253.328 43.5841 253.773 43.5841 254.08 43.5841V47.0801H242.028ZM254.632 32.6361C256.042 32.6054 257.131 32.1914 257.898 31.3941C258.695 30.5661 259.247 29.4928 259.554 28.1741C259.86 26.8554 260.014 25.4448 260.014 23.9421C260.014 22.5314 259.845 21.1974 259.508 19.9401C259.17 18.6828 258.634 17.6708 257.898 16.9041C257.162 16.1068 256.196 15.7234 255 15.7541C254.233 15.7848 253.528 15.9841 252.884 16.3521C252.24 16.6894 251.703 17.1648 251.274 17.7781C251.274 18.7288 251.274 19.6794 251.274 20.6301C251.274 21.5501 251.274 22.4701 251.274 23.3901C251.274 24.3101 251.274 25.2454 251.274 26.1961C251.274 27.1161 251.274 28.0514 251.274 29.0021C251.274 29.9221 251.274 30.8574 251.274 31.8081C251.611 32.0228 252.086 32.2221 252.7 32.4061C253.313 32.5901 253.957 32.6668 254.632 32.6361ZM270.115 32.3601C270.973 32.3601 271.587 32.1914 271.955 31.8541C272.323 31.5168 272.553 31.0414 272.645 30.4281C272.767 29.7841 272.829 29.0634 272.829 28.2661V20.5381C272.829 19.9861 272.844 19.3728 272.875 18.6981C272.905 17.9928 272.951 17.3028 273.013 16.6281C272.522 16.6588 271.939 16.6894 271.265 16.7201C270.621 16.7201 270.13 16.7354 269.793 16.7661V13.2701H271.633C272.829 13.2701 273.917 13.1168 274.899 12.8101C275.911 12.5034 276.57 12.1968 276.877 11.8901H279.131C279.192 12.1968 279.238 12.7794 279.269 13.6381C279.299 14.4661 279.315 15.2021 279.315 15.8461C280.143 14.8341 280.925 14.0214 281.661 13.4081C282.397 12.7948 283.117 12.3501 283.823 12.0741C284.559 11.7674 285.295 11.6141 286.031 11.6141C287.104 11.6141 288.039 11.9208 288.837 12.5341C289.634 13.1168 290.033 14.0828 290.033 15.4321C290.033 15.8921 289.925 16.3828 289.711 16.9041C289.496 17.3948 289.159 17.8088 288.699 18.1461C288.239 18.4834 287.61 18.6521 286.813 18.6521C286.199 18.6521 285.571 18.4681 284.927 18.1001C284.283 17.7321 283.915 17.0268 283.823 15.9841C283.209 15.9841 282.596 16.2448 281.983 16.7661C281.369 17.2568 280.817 17.8548 280.327 18.5601C279.867 19.2348 279.545 19.8634 279.361 20.4461V27.9441C279.361 28.3734 279.345 28.9868 279.315 29.7841C279.284 30.5508 279.238 31.2868 279.177 31.9921C279.667 31.9308 280.204 31.9001 280.787 31.9001C281.4 31.8694 281.86 31.8541 282.167 31.8541V35.3501H270.115V32.3601ZM302.759 36.0861C300.52 36.0861 298.542 35.5954 296.825 34.6141C295.107 33.6021 293.773 32.1914 292.823 30.3821C291.872 28.5421 291.397 26.3801 291.397 23.8961C291.397 21.7494 291.872 19.7408 292.823 17.8701C293.773 15.9994 295.107 14.4968 296.825 13.3621C298.573 12.1968 300.597 11.6141 302.897 11.6141C304.185 11.6141 305.442 11.7981 306.669 12.1661C307.895 12.5034 308.999 13.1014 309.981 13.9601C310.993 14.8188 311.79 15.9841 312.373 17.4561C312.986 18.9281 313.277 20.7681 313.247 22.9761L298.159 23.2521C298.159 24.9081 298.358 26.3954 298.757 27.7141C299.186 29.0328 299.876 30.0754 300.827 30.8421C301.777 31.6088 303.05 31.9921 304.645 31.9921C305.258 31.9921 305.948 31.8848 306.715 31.6701C307.512 31.4554 308.309 31.1028 309.107 30.6121C309.935 30.0908 310.701 29.4008 311.407 28.5421L313.477 30.4741C312.373 32.0381 311.192 33.2341 309.935 34.0621C308.677 34.8594 307.42 35.3961 306.163 35.6721C304.936 35.9481 303.801 36.0861 302.759 36.0861ZM298.435 20.0321H306.899C306.868 18.7441 306.684 17.7321 306.347 16.9961C306.04 16.2294 305.611 15.6774 305.059 15.3401C304.507 15.0028 303.863 14.8341 303.127 14.8341C301.777 14.8341 300.719 15.3248 299.953 16.3061C299.186 17.2568 298.68 18.4988 298.435 20.0321ZM316.609 35.3501V32.3601C317.467 32.3601 318.081 32.1914 318.449 31.8541C318.817 31.5168 319.047 31.0414 319.139 30.4281C319.261 29.7841 319.323 29.0634 319.323 28.2661V20.5381C319.323 19.9861 319.338 19.3728 319.369 18.6981C319.399 17.9928 319.445 17.3028 319.507 16.6281C319.016 16.6588 318.433 16.6894 317.759 16.7201C317.115 16.7201 316.624 16.7354 316.287 16.7661V13.2701C317.697 13.2701 318.893 13.1934 319.875 13.0401C320.856 12.8868 321.623 12.7028 322.175 12.4881C322.757 12.2734 323.156 12.0741 323.371 11.8901H325.625C325.686 12.2888 325.717 12.5801 325.717 12.7641C325.717 12.9481 325.717 13.1321 325.717 13.3161C325.747 13.4694 325.809 13.7608 325.901 14.1901C326.514 13.6994 327.219 13.2701 328.017 12.9021C328.814 12.5034 329.611 12.1968 330.409 11.9821C331.206 11.7368 331.911 11.6141 332.525 11.6141C335.346 11.6141 337.339 12.4268 338.505 14.0521C339.701 15.6468 340.299 18.2228 340.299 21.7801V27.9441C340.299 28.3734 340.283 28.9868 340.253 29.7841C340.222 30.5508 340.176 31.2868 340.115 31.9921C340.636 31.9308 341.188 31.9001 341.771 31.9001C342.353 31.8694 342.798 31.8541 343.105 31.8541V35.3501H331.053V32.3601C331.911 32.3601 332.525 32.1914 332.893 31.8541C333.291 31.5168 333.537 31.0414 333.629 30.4281C333.751 29.7841 333.813 29.0634 333.813 28.2661L333.767 21.7341C333.767 19.7408 333.475 18.2688 332.893 17.3181C332.341 16.3368 331.39 15.8461 330.041 15.8461C329.274 15.8461 328.507 16.0148 327.741 16.3521C327.005 16.6894 326.376 17.0881 325.855 17.5481C325.855 17.9774 325.855 18.4221 325.855 18.8821C325.855 19.3114 325.855 19.7408 325.855 20.1701V27.9441C325.855 28.3734 325.839 28.9868 325.809 29.7841C325.778 30.5508 325.732 31.2868 325.671 31.9921C326.161 31.9308 326.698 31.9001 327.281 31.9001C327.894 31.8694 328.354 31.8541 328.661 31.8541V35.3501H316.609ZM354.731 36.0861C352.891 36.0861 351.265 35.6108 349.855 34.6601C348.475 33.7094 347.386 32.3601 346.589 30.6121C345.822 28.8641 345.439 26.8094 345.439 24.4481C345.439 21.9641 345.914 19.7561 346.865 17.8241C347.815 15.8921 349.149 14.3741 350.867 13.2701C352.584 12.1661 354.577 11.6141 356.847 11.6141C357.675 11.6141 358.411 11.7061 359.055 11.8901C359.729 12.0434 360.358 12.2274 360.941 12.4421V9.4061C360.941 8.97676 360.956 8.36343 360.987 7.5661C361.017 6.76876 361.063 6.03276 361.125 5.3581C360.634 5.38876 360.051 5.41943 359.377 5.4501C358.702 5.48076 358.196 5.4961 357.859 5.4961V2.0001C359.3 2.0001 360.496 1.92343 361.447 1.7701C362.428 1.61676 363.195 1.43276 363.747 1.2181C364.329 1.00343 364.728 0.804096 364.943 0.620095H367.427V27.9441C367.427 28.3734 367.411 28.9868 367.381 29.7841C367.35 30.5508 367.304 31.2868 367.243 31.9921C367.764 31.9308 368.316 31.9001 368.899 31.9001C369.481 31.8694 369.926 31.8541 370.233 31.8541V35.3501H361.493C361.462 35.0128 361.416 34.6601 361.355 34.2921C361.324 33.9241 361.278 33.5714 361.217 33.2341C360.205 34.2768 359.162 35.0128 358.089 35.4421C357.015 35.8714 355.896 36.0861 354.731 36.0861ZM357.123 31.9001C357.92 31.9001 358.656 31.7008 359.331 31.3021C360.005 30.8728 360.542 30.3361 360.941 29.6921C360.941 29.2321 360.941 28.7721 360.941 28.3121C360.941 27.8521 360.941 27.3921 360.941 26.9321V15.8921C360.634 15.6468 360.174 15.4474 359.561 15.2941C358.947 15.1101 358.319 15.0181 357.675 15.0181C356.264 15.0488 355.16 15.4934 354.363 16.3521C353.565 17.2108 352.998 18.2994 352.661 19.6181C352.354 20.9368 352.201 22.3168 352.201 23.7581C352.201 25.0461 352.354 26.3188 352.661 27.5761C352.998 28.8334 353.519 29.8761 354.225 30.7041C354.961 31.5014 355.927 31.9001 357.123 31.9001ZM384.157 36.0861C381.918 36.0861 379.94 35.5954 378.223 34.6141C376.506 33.6021 375.172 32.1914 374.221 30.3821C373.27 28.5421 372.795 26.3801 372.795 23.8961C372.795 21.7494 373.27 19.7408 374.221 17.8701C375.172 15.9994 376.506 14.4968 378.223 13.3621C379.971 12.1968 381.995 11.6141 384.295 11.6141C385.583 11.6141 386.84 11.7981 388.067 12.1661C389.294 12.5034 390.398 13.1014 391.379 13.9601C392.391 14.8188 393.188 15.9841 393.771 17.4561C394.384 18.9281 394.676 20.7681 394.645 22.9761L379.557 23.2521C379.557 24.9081 379.756 26.3954 380.155 27.7141C380.584 29.0328 381.274 30.0754 382.225 30.8421C383.176 31.6088 384.448 31.9921 386.043 31.9921C386.656 31.9921 387.346 31.8848 388.113 31.6701C388.91 31.4554 389.708 31.1028 390.505 30.6121C391.333 30.0908 392.1 29.4008 392.805 28.5421L394.875 30.4741C393.771 32.0381 392.59 33.2341 391.333 34.0621C390.076 34.8594 388.818 35.3961 387.561 35.6721C386.334 35.9481 385.2 36.0861 384.157 36.0861ZM379.833 20.0321H388.297C388.266 18.7441 388.082 17.7321 387.745 16.9961C387.438 16.2294 387.009 15.6774 386.457 15.3401C385.905 15.0028 385.261 14.8341 384.525 14.8341C383.176 14.8341 382.118 15.3248 381.351 16.3061C380.584 17.2568 380.078 18.4988 379.833 20.0321ZM406.885 36.0861C405.045 36.0861 403.42 35.6108 402.009 34.6601C400.629 33.7094 399.54 32.3601 398.743 30.6121C397.976 28.8641 397.593 26.8094 397.593 24.4481C397.593 21.9641 398.068 19.7561 399.019 17.8241C399.97 15.8921 401.304 14.3741 403.021 13.2701C404.738 12.1661 406.732 11.6141 409.001 11.6141C409.829 11.6141 410.565 11.7061 411.209 11.8901C411.884 12.0434 412.512 12.2274 413.095 12.4421V9.4061C413.095 8.97676 413.11 8.36343 413.141 7.5661C413.172 6.76876 413.218 6.03276 413.279 5.3581C412.788 5.38876 412.206 5.41943 411.531 5.4501C410.856 5.48076 410.35 5.4961 410.013 5.4961V2.0001C411.454 2.0001 412.65 1.92343 413.601 1.7701C414.582 1.61676 415.349 1.43276 415.901 1.2181C416.484 1.00343 416.882 0.804096 417.097 0.620095H419.581V27.9441C419.581 28.3734 419.566 28.9868 419.535 29.7841C419.504 30.5508 419.458 31.2868 419.397 31.9921C419.918 31.9308 420.47 31.9001 421.053 31.9001C421.636 31.8694 422.08 31.8541 422.387 31.8541V35.3501H413.647C413.616 35.0128 413.57 34.6601 413.509 34.2921C413.478 33.9241 413.432 33.5714 413.371 33.2341C412.359 34.2768 411.316 35.0128 410.243 35.4421C409.17 35.8714 408.05 36.0861 406.885 36.0861ZM409.277 31.9001C410.074 31.9001 410.81 31.7008 411.485 31.3021C412.16 30.8728 412.696 30.3361 413.095 29.6921C413.095 29.2321 413.095 28.7721 413.095 28.3121C413.095 27.8521 413.095 27.3921 413.095 26.9321V15.8921C412.788 15.6468 412.328 15.4474 411.715 15.2941C411.102 15.1101 410.473 15.0181 409.829 15.0181C408.418 15.0488 407.314 15.4934 406.517 16.3521C405.72 17.2108 405.152 18.2994 404.815 19.6181C404.508 20.9368 404.355 22.3168 404.355 23.7581C404.355 25.0461 404.508 26.3188 404.815 27.5761C405.152 28.8334 405.674 29.8761 406.379 30.7041C407.115 31.5014 408.081 31.9001 409.277 31.9001ZM436.679 36.0861C434.471 36.0861 432.478 35.6108 430.699 34.6601C428.921 33.7094 427.51 32.3601 426.467 30.6121C425.455 28.8334 424.949 26.7481 424.949 24.3561C424.949 21.8108 425.471 19.5874 426.513 17.6861C427.587 15.7541 428.997 14.2668 430.745 13.2241C432.524 12.1508 434.456 11.6141 436.541 11.6141C438.749 11.6141 440.727 12.0894 442.475 13.0401C444.223 13.9908 445.603 15.3554 446.615 17.1341C447.627 18.8821 448.133 20.9828 448.133 23.4361C448.133 26.0121 447.643 28.2508 446.661 30.1521C445.68 32.0534 444.331 33.5254 442.613 34.5681C440.896 35.5801 438.918 36.0861 436.679 36.0861ZM436.863 32.8201C438.09 32.7894 439.01 32.3601 439.623 31.5321C440.267 30.7041 440.712 29.6614 440.957 28.4041C441.203 27.1468 441.325 25.8741 441.325 24.5861C441.325 23.4514 441.233 22.3014 441.049 21.1361C440.896 19.9708 440.635 18.9128 440.267 17.9621C439.899 17.0114 439.393 16.2448 438.749 15.6621C438.136 15.0794 437.369 14.8034 436.449 14.8341C435.253 14.8648 434.303 15.2941 433.597 16.1221C432.923 16.9501 432.432 17.9928 432.125 19.2501C431.849 20.4768 431.711 21.7648 431.711 23.1141C431.711 24.6781 431.88 26.2114 432.217 27.7141C432.555 29.2168 433.091 30.4588 433.827 31.4401C434.594 32.3908 435.606 32.8508 436.863 32.8201ZM451.464 32.3601C452.323 32.3601 452.936 32.1914 453.304 31.8541C453.672 31.5168 453.902 31.0414 453.994 30.4281C454.117 29.7841 454.178 29.0634 454.178 28.2661V20.5381C454.178 19.9861 454.193 19.3728 454.224 18.6981C454.255 17.9928 454.301 17.3028 454.362 16.6281C453.871 16.6588 453.289 16.6894 452.614 16.7201C451.97 16.7201 451.479 16.7354 451.142 16.7661V13.2701H452.982C454.178 13.2701 455.267 13.1168 456.248 12.8101C457.26 12.5034 457.919 12.1968 458.226 11.8901H460.48C460.541 12.1968 460.587 12.7794 460.618 13.6381C460.649 14.4661 460.664 15.2021 460.664 15.8461C461.492 14.8341 462.274 14.0214 463.01 13.4081C463.746 12.7948 464.467 12.3501 465.172 12.0741C465.908 11.7674 466.644 11.6141 467.38 11.6141C468.453 11.6141 469.389 11.9208 470.186 12.5341C470.983 13.1168 471.382 14.0828 471.382 15.4321C471.382 15.8921 471.275 16.3828 471.06 16.9041C470.845 17.3948 470.508 17.8088 470.048 18.1461C469.588 18.4834 468.959 18.6521 468.162 18.6521C467.549 18.6521 466.92 18.4681 466.276 18.1001C465.632 17.7321 465.264 17.0268 465.172 15.9841C464.559 15.9841 463.945 16.2448 463.332 16.7661C462.719 17.2568 462.167 17.8548 461.676 18.5601C461.216 19.2348 460.894 19.8634 460.71 20.4461V27.9441C460.71 28.3734 460.695 28.9868 460.664 29.7841C460.633 30.5508 460.587 31.2868 460.526 31.9921C461.017 31.9308 461.553 31.9001 462.136 31.9001C462.749 31.8694 463.209 31.8541 463.516 31.8541V35.3501H451.464V32.3601ZM484.108 36.0861C481.87 36.0861 479.892 35.5954 478.174 34.6141C476.457 33.6021 475.123 32.1914 474.172 30.3821C473.222 28.5421 472.746 26.3801 472.746 23.8961C472.746 21.7494 473.222 19.7408 474.172 17.8701C475.123 15.9994 476.457 14.4968 478.174 13.3621C479.922 12.1968 481.946 11.6141 484.246 11.6141C485.534 11.6141 486.792 11.7981 488.018 12.1661C489.245 12.5034 490.349 13.1014 491.33 13.9601C492.342 14.8188 493.14 15.9841 493.722 17.4561C494.336 18.9281 494.627 20.7681 494.596 22.9761L479.508 23.2521C479.508 24.9081 479.708 26.3954 480.106 27.7141C480.536 29.0328 481.226 30.0754 482.176 30.8421C483.127 31.6088 484.4 31.9921 485.994 31.9921C486.608 31.9921 487.298 31.8848 488.064 31.6701C488.862 31.4554 489.659 31.1028 490.456 30.6121C491.284 30.0908 492.051 29.4008 492.756 28.5421L494.826 30.4741C493.722 32.0381 492.542 33.2341 491.284 34.0621C490.027 34.8594 488.77 35.3961 487.512 35.6721C486.286 35.9481 485.151 36.0861 484.108 36.0861ZM479.784 20.0321H488.248C488.218 18.7441 488.034 17.7321 487.696 16.9961C487.39 16.2294 486.96 15.6774 486.408 15.3401C485.856 15.0028 485.212 14.8341 484.476 14.8341C483.127 14.8341 482.069 15.3248 481.302 16.3061C480.536 17.2568 480.03 18.4988 479.784 20.0321ZM508.538 36.0861C507.22 36.0861 505.932 35.9174 504.674 35.5801C503.417 35.2428 502.436 34.8134 501.73 34.2921L501.822 35.6721H498.326L498.142 27.7601H501.132C501.224 28.6801 501.592 29.5234 502.236 30.2901C502.88 31.0568 503.724 31.6701 504.766 32.1301C505.809 32.5594 506.974 32.7741 508.262 32.7741C508.784 32.7741 509.274 32.6974 509.734 32.5441C510.225 32.3908 510.624 32.1454 510.93 31.8081C511.268 31.4401 511.436 30.9954 511.436 30.4741C511.436 29.8914 511.222 29.4161 510.792 29.0481C510.394 28.6801 509.796 28.3274 508.998 27.9901C508.232 27.6528 507.266 27.2694 506.1 26.8401C505.15 26.4721 504.184 26.0888 503.202 25.6901C502.252 25.2914 501.362 24.8161 500.534 24.2641C499.737 23.6814 499.093 22.9761 498.602 22.1481C498.112 21.2894 497.866 20.2468 497.866 19.0201C497.866 18.1308 498.035 17.2568 498.372 16.3981C498.71 15.5088 499.231 14.7114 499.936 14.0061C500.642 13.2701 501.531 12.6874 502.604 12.2581C503.708 11.8288 505.012 11.6141 506.514 11.6141C507.342 11.6141 508.278 11.7521 509.32 12.0281C510.394 12.2734 511.298 12.6568 512.034 13.1781V11.8441H515.53V19.9861H512.54C512.356 18.9128 511.973 17.9928 511.39 17.2261C510.838 16.4594 510.118 15.8768 509.228 15.4781C508.339 15.0488 507.342 14.8341 506.238 14.8341C505.472 14.8341 504.766 15.0181 504.122 15.3861C503.509 15.7541 503.202 16.3828 503.202 17.2721C503.202 17.9774 503.448 18.5448 503.938 18.9741C504.429 19.3728 505.104 19.7101 505.962 19.9861C506.821 20.2621 507.772 20.5841 508.814 20.9521C510.378 21.4734 511.758 22.0868 512.954 22.7921C514.181 23.4974 515.147 24.3561 515.852 25.3681C516.558 26.3494 516.91 27.5608 516.91 29.0021C516.91 30.5968 516.512 31.9154 515.714 32.9581C514.917 34.0008 513.874 34.7828 512.586 35.3041C511.329 35.8254 509.98 36.0861 508.538 36.0861Z" fill="white"/>
</svg>
