<svg width="42" height="41" viewBox="0 0 42 41" fill="none" xmlns="http://www.w3.org/2000/svg">
<path d="M38.2168 18.8206H35.0136C34.6861 15.6087 33.2596 12.6088 30.9758 10.3287C28.692 8.04869 25.6912 6.62863 22.4814 6.30897V3.10291C22.4814 2.7054 22.3236 2.32416 22.0428 2.04308C21.762 1.76199 21.3811 1.60408 20.9839 1.60408C20.5868 1.60408 20.2059 1.76199 19.9251 2.04308C19.6442 2.32416 19.4865 2.7054 19.4865 3.10291V6.30897C16.2824 6.63559 13.2891 8.05873 11.0117 10.3381C8.7344 12.6176 7.31256 15.6136 6.98624 18.8206H3.78311C3.38596 18.8206 3.00507 18.9785 2.72424 19.2596C2.44341 19.5407 2.28564 19.9219 2.28564 20.3195C2.28564 20.717 2.44341 21.0982 2.72424 21.3793C3.00507 21.6604 3.38596 21.8183 3.78311 21.8183H6.98624C7.31256 25.0253 8.7344 28.0214 11.0117 30.3008C13.2891 32.5802 16.2824 34.0033 19.4865 34.3299V37.536C19.4865 37.9335 19.6442 38.3147 19.9251 38.5958C20.2059 38.8769 20.5868 39.0348 20.9839 39.0348C21.3811 39.0348 21.762 38.8769 22.0428 38.5958C22.3236 38.3147 22.4814 37.9335 22.4814 37.536V34.3299C25.6855 34.0033 28.6788 32.5802 30.9561 30.3008C33.2335 28.0214 34.6553 25.0253 34.9816 21.8183H38.1847C38.5819 21.8183 38.9628 21.6604 39.2436 21.3793C39.5244 21.0982 39.6822 20.717 39.6822 20.3195C39.6822 19.9219 39.5244 19.5407 39.2436 19.2596C38.9628 18.9785 38.5819 18.8206 38.1847 18.8206H38.2168ZM32.0828 20.3195C32.0828 22.5166 31.4318 24.6644 30.2123 26.4913C28.9927 28.3181 27.2593 29.742 25.2313 30.5828C23.2032 31.4236 20.9716 31.6436 18.8187 31.215C16.6657 30.7864 14.6881 29.7283 13.1359 28.1747C11.5837 26.6211 10.5266 24.6416 10.0983 22.4867C9.67009 20.3318 9.88988 18.0981 10.7299 16.0682C11.57 14.0383 12.9925 12.3033 14.8177 11.0827C16.6429 9.86199 18.7888 9.21046 20.9839 9.21046C23.9262 9.2147 26.7468 10.3865 28.8273 12.4689C30.9078 14.5513 32.0785 17.3745 32.0828 20.3195Z" fill="#3E5A7E"/>
<path d="M20.984 27.0762C24.7123 27.0762 27.7346 24.0511 27.7346 20.3195C27.7346 16.5878 24.7123 13.5627 20.984 13.5627C17.2557 13.5627 14.2334 16.5878 14.2334 20.3195C14.2334 24.0511 17.2557 27.0762 20.984 27.0762Z" fill="#3E5A7E"/>
</svg>
