<svg width="105" height="105" viewBox="0 0 105 105" fill="none" xmlns="http://www.w3.org/2000/svg">
<path d="M40.5363 57.5814V33.7319H48.1706V55.7924C45.6607 56.5294 43.112 57.1266 40.5363 57.5814Z" stroke="#65B4E1" stroke-width="2"/>
<path d="M53.3544 53.5239V26.9899H60.9887V49.9126C60.8318 49.7824 60.6712 49.6565 60.5069 49.5352C59.7051 48.9275 58.8695 48.3658 58.0041 47.8527L56.8034 47.1408L56.5156 48.5066C56.3286 49.394 56.0208 50.2516 55.6009 51.0553C55.0232 52.0259 54.2574 52.864 53.3544 53.5239Z" stroke="#65B4E1" stroke-width="2"/>
<path d="M53.3544 68.7406C56.2448 67.9473 58.8873 66.4529 61.0512 64.3994V69.2718C60.0094 69.4658 58.9513 69.563 57.8905 69.5618L57.8905 69.5618L57.877 69.5619C56.3393 69.5811 54.8109 69.3433 53.3544 68.8601V68.7406Z" stroke="#65B4E1" stroke-width="2"/>
<path d="M66.7448 67.0461L66.7253 67.057L66.7064 67.0687C66.5236 67.1818 66.3386 67.2913 66.1516 67.3972V18.9578H73.786V60.1982C72.0822 63.0585 69.6541 65.421 66.7448 67.0461Z" stroke="#65B4E1" stroke-width="2"/>
<path d="M20.8086 76.7836C22.723 69.8959 28.6534 63.3204 39.0785 61.5517C49.5036 59.783 57.0363 57.5357 58.6386 52.5832C59.6977 53.6079 60.3602 54.9743 60.5087 56.4405C60.6572 57.9067 60.2822 59.3782 59.4501 60.5945C55.767 65.7134 47.9638 65.1308 47.4227 67.8151C46.5904 71.9768 58.6177 76.3258 68.5851 70.2289C81.8817 62.0511 77.2414 52.7497 82.8597 51.1474H85.1071C85.1071 51.1474 85.9186 73.912 66.8371 83.5256C53.3948 90.3091 33.9804 80.0089 20.1427 87.0422C20.2051 87.0422 18.9774 83.6712 20.8086 76.7836Z" fill="#65B4E1"/>
</svg>
