<svg width="42" height="41" viewBox="0 0 42 41" fill="none" xmlns="http://www.w3.org/2000/svg">
<path d="M25.3904 25.3001C25.1952 25.1824 24.9528 25.176 24.7519 25.2841C23.7125 25.8487 22.5331 26.1523 21.3601 26.1627C20.1871 26.1394 19.0237 25.8407 17.9923 25.2993C17.793 25.172 17.5298 25.1592 17.3129 25.2905C14.0563 27.2751 12.6065 31.2507 12.3544 32.4872C12.3016 32.7499 12.4176 33.0182 12.6457 33.16C15.2189 34.7513 18.1835 35.6227 21.2273 35.6819C21.2665 35.6891 21.3065 35.6931 21.3473 35.6931C21.3497 35.6931 21.3521 35.6931 21.3553 35.6931C24.4415 35.6547 27.4508 34.7817 30.0585 33.1696C30.2865 33.0278 30.4026 32.7595 30.349 32.4968C30.0977 31.2603 28.6478 27.2839 25.3904 25.3001ZM21.4553 34.4101C21.4257 34.4061 21.3953 34.4029 21.3649 34.4029C18.6676 34.3693 16.0343 33.6469 13.7179 32.3086C14.1491 30.8198 15.4566 28.092 17.6826 26.5767C18.8164 27.1205 20.0726 27.4192 21.3529 27.4441C22.6243 27.4329 23.8838 27.1373 25.0216 26.5863C27.2468 28.1024 28.555 30.8294 28.9855 32.3182C26.7035 33.6373 24.1126 34.3581 21.4553 34.4101Z" fill="#333333" fill-opacity="0.5"/>
<path d="M17.532 24.0243C18.5754 24.7267 19.8068 25.1095 21.0927 25.1095C22.3673 25.1095 23.5899 24.7323 24.6285 24.0403L29.111 23.9506C27.934 21.862 27.361 19.4865 27.4579 17.0903C27.5555 11.6179 23.1731 10.1235 20.7998 10.5239C19.9045 10.6464 19.0563 10.9988 18.3378 11.5474C16.5598 11.485 14.6755 12.8729 14.7819 17.0727C14.8659 19.4801 14.2746 21.862 13.0752 23.9506L17.532 24.0243ZM17.5944 22.4474C17.4312 22.2944 17.2848 22.1294 17.1464 21.9597C16.6559 21.218 16.3662 20.3323 16.363 19.376C16.3582 17.5068 17.456 15.8113 19.1635 15.0529H19.1723C20.7798 17.2209 23.1387 18.7097 25.7864 19.2255C25.7864 19.2255 25.7864 19.3055 25.7864 19.3504C25.7896 20.4044 25.4463 21.3774 24.8646 22.1647C24.7734 22.2648 24.6805 22.3641 24.5797 22.4586C23.6348 23.3428 22.3961 23.8289 21.0927 23.8289C19.7828 23.8289 18.541 23.3388 17.5944 22.4474Z" fill="#333333" fill-opacity="0.5"/>
<path d="M40.6924 26.8634C40.4908 25.8744 39.3281 22.6925 36.7221 21.1043C36.5268 20.9866 36.2852 20.9802 36.0843 21.0883C35.2834 21.5224 34.3752 21.7562 33.4775 21.7642C32.5621 21.7474 31.6539 21.5104 30.849 21.0803C30.8274 21.0691 30.8034 21.0691 30.7818 21.0603C30.7385 21.0426 30.6961 21.0282 30.6497 21.021C30.6105 21.0146 30.5729 21.0138 30.5337 21.0154C30.4921 21.0162 30.4529 21.0186 30.4121 21.0282C30.3681 21.0378 30.3281 21.0547 30.2865 21.0731C30.2641 21.0835 30.2401 21.0843 30.2185 21.0971C30.0848 21.178 29.956 21.2629 29.8296 21.3526C29.5407 21.556 29.4719 21.9564 29.676 22.2448C29.8 22.4218 29.9976 22.5163 30.1992 22.5163C30.3265 22.5163 30.4553 22.4786 30.5673 22.3993C30.5793 22.3913 30.5913 22.3841 30.6033 22.3753C31.4955 22.7894 32.4709 23.0272 33.4711 23.0456C34.4656 23.0368 35.453 22.8118 36.3484 22.3905C37.9655 23.5294 38.9649 25.5468 39.3233 26.6872C37.5694 27.6795 35.5874 28.2225 33.5575 28.2642C33.5327 28.261 33.5079 28.2586 33.4815 28.2586C32.6981 28.249 31.9116 28.1641 31.1458 28.0055C30.7994 27.9326 30.4617 28.1561 30.3897 28.5028C30.3177 28.8496 30.5401 29.1884 30.8866 29.2597C31.6987 29.4279 32.5301 29.5216 33.3598 29.5384C33.395 29.544 33.4302 29.5472 33.4663 29.5472C33.4687 29.5472 33.4719 29.5472 33.4743 29.5472C35.9299 29.5168 38.3256 28.8224 40.4027 27.5378C40.63 27.3952 40.746 27.1269 40.6924 26.8634Z" fill="#333333" fill-opacity="0.5"/>
<path d="M29.8608 19.4016C30.8194 20.3034 32.0772 20.8 33.4007 20.8C34.7193 20.8 35.9732 20.3074 36.9301 19.4121C37.9359 18.4742 38.5128 17.1512 38.5128 15.7825C38.5128 15.7312 38.5064 15.6816 38.5048 15.6311C38.9081 14.6324 39.3242 13.0258 38.5464 11.8758C37.8575 11.0324 36.6917 10.7529 35.6955 11.191C35.077 10.1459 34.0736 9.38424 32.9014 9.06949C31.6556 8.89009 30.3961 9.28092 29.4703 10.1347C27.2435 11.8958 27.9493 14.819 28.2925 15.861C28.3141 17.2144 28.867 18.4694 29.8608 19.4016ZM36.0564 18.4758C35.337 19.1486 34.3937 19.5194 33.4007 19.5194C32.4037 19.5194 31.4579 19.1462 30.737 18.4686C30.0369 17.8111 29.644 16.9381 29.5904 15.9955C31.7252 15.4125 33.8384 14.2103 35.2482 12.5349C35.305 12.5653 35.3634 12.5918 35.4187 12.6246C35.7827 13.5953 36.3756 14.7245 37.1894 15.3612C37.2062 15.5014 37.2334 15.6391 37.2334 15.7833C37.2326 16.8116 36.8157 17.7678 36.0564 18.4758Z" fill="#333333" fill-opacity="0.5"/>
<path d="M5.84996 22.3897C6.74613 22.811 7.73431 23.0368 8.7449 23.0449C9.72908 23.0264 10.7029 22.7886 11.5942 22.3745C11.6054 22.3825 11.6182 22.3897 11.6294 22.3977C11.7423 22.477 11.8711 22.5147 11.9991 22.5147C12.1991 22.5147 12.3976 22.421 12.5216 22.244C12.7256 21.9557 12.6576 21.556 12.3696 21.351C12.2431 21.2621 12.1135 21.1756 11.9807 21.0955C11.9567 21.0811 11.9295 21.0787 11.9039 21.0683C11.8671 21.0523 11.8319 21.037 11.7927 21.0282C11.7463 21.0178 11.7014 21.0146 11.655 21.0138C11.6206 21.0138 11.5886 21.0138 11.5542 21.0186C11.5038 21.0258 11.4582 21.0419 11.411 21.0611C11.391 21.0691 11.3694 21.0691 11.3494 21.0795C10.5444 21.5096 9.63466 21.7466 8.7385 21.7634C7.82153 21.7554 6.91496 21.5216 6.11401 21.0875C5.91397 20.9786 5.66993 20.985 5.47629 21.1035C2.86781 22.6933 1.70759 25.8744 1.50676 26.8635C1.45395 27.1261 1.56997 27.3944 1.79801 27.5362C3.8744 28.8208 6.27004 29.5152 8.7257 29.5456C8.7281 29.5456 8.7305 29.5456 8.7337 29.5456C8.7689 29.5456 8.80411 29.5424 8.83772 29.5368C9.66827 29.52 10.5004 29.4263 11.3126 29.2581C11.659 29.1868 11.8815 28.8472 11.8095 28.5012C11.7375 28.1553 11.3998 27.9302 11.0533 28.0039C10.2868 28.1625 9.50184 28.2482 8.71769 28.257C8.69209 28.257 8.66729 28.2594 8.64248 28.2626C6.6117 28.2209 4.62974 27.6787 2.87581 26.6857C3.23348 25.5468 4.23206 23.5302 5.84996 22.3897Z" fill="#333333" fill-opacity="0.5"/>
<path d="M5.16502 19.4016C6.1236 20.3034 7.38063 20.8 8.70488 20.8C10.0235 20.8 11.2766 20.3074 12.2335 19.4121C13.2393 18.4734 13.817 17.1504 13.817 15.7825C13.817 15.7312 13.8106 15.6816 13.809 15.6303C14.2123 14.6316 14.6276 13.025 13.8506 11.8758C13.1617 11.0324 11.9959 10.7529 10.9997 11.191C10.3812 10.1459 9.3778 9.38424 8.20558 9.06949C6.95975 8.89009 5.70032 9.28092 4.77455 10.1347C2.54773 11.8958 3.25347 14.8174 3.59673 15.861C3.61753 17.2144 4.17124 18.4694 5.16502 19.4016ZM11.3606 18.4758C10.6412 19.1486 9.69866 19.5194 8.70568 19.5194C7.70869 19.5194 6.76292 19.1462 6.04198 18.4678C5.34185 17.8111 4.94898 16.9373 4.89537 15.9947C7.03017 15.4117 9.14336 14.2095 10.5532 12.5341C10.6092 12.5645 10.6684 12.591 10.7237 12.6238C11.0877 13.5945 11.6806 14.7245 12.4944 15.3604C12.5112 15.5006 12.5384 15.6383 12.5384 15.7825C12.5368 16.8116 12.1191 17.767 11.3606 18.4758Z" fill="#333333" fill-opacity="0.5"/>
</svg>
