<svg width="98" height="98" viewBox="0 0 98 98" fill="none" xmlns="http://www.w3.org/2000/svg">
<path d="M79.6274 26.3159V26.1411L66.5763 12.1772L66.4598 12.0412H26.2576C24.0943 12.0412 22.0195 12.9006 20.4898 14.4303C18.9601 15.9601 18.1007 18.0348 18.1007 20.1982V77.8018C18.1007 79.9652 18.9601 82.0399 20.4898 83.5697C22.0195 85.0994 24.0943 85.9588 26.2576 85.9588H71.7424C73.9024 85.9536 75.9721 85.092 77.4977 83.5628C79.0232 82.0336 79.8799 79.9618 79.8799 77.8018L79.6274 26.3159ZM73.4515 25.4225H67.9746V19.4213L73.4515 25.4225ZM76.1899 77.8601C76.1899 78.4569 76.0723 79.0479 75.8439 79.5992C75.6155 80.1506 75.2808 80.6516 74.8588 81.0736C74.4368 81.4956 73.9358 81.8304 73.3844 82.0587C72.833 82.2871 72.2421 82.4047 71.6453 82.4047H26.2576C25.6608 82.4047 25.0699 82.2871 24.5185 82.0587C23.9671 81.8304 23.4661 81.4956 23.0441 81.0736C22.6221 80.6516 22.2874 80.1506 22.059 79.5992C21.8306 79.0479 21.713 78.4569 21.713 77.8601V20.1982C21.713 18.9929 22.1918 17.837 23.0441 16.9847C23.8964 16.1324 25.0523 15.6536 26.2576 15.6536H63.9156V27.4423C63.9456 27.9747 64.1811 28.4746 64.5723 28.8368C64.9635 29.199 65.48 29.3954 66.0131 29.3845C66.7511 29.3845 71.8395 29.3845 76.2093 29.3845L76.1899 77.8601Z" fill="#3E5A7E"/>
<path d="M56.8562 37.9711L53.2339 47.6817H55.3597L56.0229 45.675H59.5262L60.2065 47.6817H62.3323L58.6929 37.9711H56.8562ZM56.5841 44.0594L57.7916 40.42L59.016 44.0594H56.5841Z" fill="#3E5A7E"/>
<path d="M60.9501 57.21C61.1999 56.8392 61.3302 56.4008 61.3236 55.9537C61.3527 55.567 61.284 55.1793 61.1237 54.8262C60.9635 54.4731 60.7169 54.166 60.4068 53.9333C59.6071 53.4286 58.6678 53.1908 57.7243 53.2542H54.3797V62.9485H58.1487C59.0557 62.9996 59.9532 62.7423 60.6954 62.2184C61.0006 61.9595 61.241 61.6327 61.3973 61.2642C61.5535 60.8956 61.6213 60.4956 61.5952 60.0962C61.6139 59.5977 61.4644 59.1074 61.1708 58.704C60.8789 58.3265 60.4647 58.0624 59.9993 57.957C60.382 57.8055 60.7123 57.5459 60.9501 57.21ZM56.3321 54.918H57.7752C58.1974 54.8856 58.619 54.9865 58.9806 55.2066C59.1169 55.3225 59.2234 55.4692 59.2913 55.6346C59.3593 55.8 59.3866 55.9793 59.3711 56.1574C59.3711 56.9384 58.8675 57.3402 57.8601 57.3628H56.3831L56.3321 54.918ZM59.1334 61.0639C58.8166 61.3026 58.4261 61.4227 58.0299 61.4035H56.3321V58.772H58.1657C58.3506 58.7473 58.5388 58.7653 58.7157 58.8246C58.8926 58.8838 59.0536 58.9828 59.1863 59.1139C59.3191 59.245 59.42 59.4048 59.4815 59.5809C59.5429 59.7571 59.5633 59.9449 59.5409 60.1302C59.5489 60.3066 59.5164 60.4825 59.4458 60.6444C59.3751 60.8063 59.2683 60.9498 59.1334 61.0639Z" fill="#3E5A7E"/>
<path d="M43.56 52.0904H38.0249C37.2116 52.0904 36.4316 52.4134 35.8565 52.9885C35.2815 53.5636 34.9584 54.3436 34.9584 55.1569V60.6766C34.9584 61.4899 35.2815 62.2699 35.8565 62.845C36.4316 63.4201 37.2116 63.7432 38.0249 63.7432H43.5446C44.3579 63.7432 45.1379 63.4201 45.713 62.845C46.2881 62.2699 46.6112 61.4899 46.6112 60.6766V55.1569C46.6112 54.3462 46.2902 53.5686 45.7184 52.9939C45.1467 52.4193 44.3706 52.0944 43.56 52.0904ZM44.9246 60.6613C44.9246 61.0232 44.7808 61.3703 44.5249 61.6262C44.269 61.8821 43.9219 62.0259 43.56 62.0259H38.0249C37.663 62.0259 37.3159 61.8821 37.06 61.6262C36.8041 61.3703 36.6603 61.0232 36.6603 60.6613V55.1569C36.6583 54.9764 36.6921 54.7973 36.7597 54.63C36.8274 54.4626 36.9276 54.3104 37.0545 54.182C37.1814 54.0537 37.3326 53.9518 37.4991 53.8823C37.6657 53.8127 37.8444 53.7769 38.0249 53.7769H43.5446C43.9066 53.7769 44.2536 53.9207 44.5096 54.1766C44.7655 54.4325 44.9092 54.7796 44.9092 55.1416L44.9246 60.6613Z" fill="#3E5A7E"/>
<path d="M46.8476 37.2408L46.0803 37.8547L44.5165 39.1088L39.7531 42.9231L36.4673 39.2422L34.4405 40.8617L34.6218 41.121L35.3623 42.1308L39.5804 47.9704L46.9581 40.5384L47.9238 39.5734L49.9433 37.5506L48.4543 35.9611L46.8476 37.2408Z" fill="#3E5A7E"/>
</svg>
