<svg width="46" height="46" viewBox="0 0 46 46" fill="none" xmlns="http://www.w3.org/2000/svg">
<path d="M14.1305 8.41423C14.0434 8.40361 13.955 8.4116 13.8712 8.43767C13.7875 8.46374 13.7102 8.50729 13.6445 8.56546C13.5788 8.62363 13.5262 8.69507 13.4902 8.77508C13.4542 8.85508 13.4355 8.94183 13.4355 9.02957C13.4355 9.11731 13.4542 9.20405 13.4902 9.28405C13.5262 9.36406 13.5788 9.4355 13.6445 9.49367C13.7102 9.55184 13.7875 9.59539 13.8712 9.62146C13.955 9.64754 14.0434 9.65552 14.1305 9.6449H33.5843C33.6714 9.65552 33.7598 9.64754 33.8435 9.62146C33.9273 9.59539 34.0046 9.55184 34.0703 9.49367C34.136 9.4355 34.1886 9.36406 34.2246 9.28405C34.2606 9.20405 34.2792 9.11731 34.2792 9.02957C34.2792 8.94183 34.2606 8.85508 34.2246 8.77508C34.1886 8.69507 34.136 8.62363 34.0703 8.56546C34.0046 8.50729 33.9273 8.46374 33.8435 8.43767C33.7598 8.4116 33.6714 8.40361 33.5843 8.41423H14.1305Z" fill="#50B7B2"/>
<path d="M34.9234 11.3131H14.0293C13.4345 11.3131 12.8641 11.0768 12.4435 10.6563C12.023 10.2357 11.7867 9.6653 11.7867 9.07053C11.7867 8.47576 12.023 7.90536 12.4435 7.48479C12.8641 7.06423 13.4345 6.82796 14.0293 6.82796H34.9234C35.1129 6.82798 35.2947 6.75335 35.4295 6.62026C35.5643 6.48717 35.6412 6.30632 35.6436 6.1169C35.6412 5.92664 35.5646 5.74483 35.4301 5.61028C35.2955 5.47573 35.1137 5.39909 34.9234 5.39673H14.0293C13.0622 5.39673 12.1347 5.78091 11.4508 6.46475C10.767 7.14859 10.3828 8.07608 10.3828 9.04318V36.9294C10.3828 37.8965 10.767 38.824 11.4508 39.5079C12.1347 40.1917 13.0622 40.5759 14.0293 40.5759H34.9234C35.1137 40.5735 35.2955 40.4969 35.4301 40.3623C35.5646 40.2278 35.6412 40.046 35.6436 39.8557V12.0242C35.6389 11.8355 35.5612 11.656 35.4269 11.5234C35.2926 11.3908 35.1122 11.3154 34.9234 11.3131Z" fill="#50B7B2"/>
</svg>
