<svg width="41" height="41" viewBox="0 0 41 41" fill="none" xmlns="http://www.w3.org/2000/svg">
<path d="M10.7916 21.9145V30.667H14.3231V21.9145C14.3394 21.6724 14.3058 21.4295 14.2244 21.2009C14.1431 20.9723 14.0157 20.7629 13.8501 20.5857C13.6845 20.4084 13.4844 20.2671 13.262 20.1705C13.0396 20.0739 12.7998 20.024 12.5573 20.024C12.3149 20.024 12.0751 20.0739 11.8527 20.1705C11.6303 20.2671 11.4301 20.4084 11.2646 20.5857C11.099 20.7629 10.9716 20.9723 10.8902 21.2009C10.8089 21.4295 10.7753 21.6724 10.7916 21.9145Z" fill="#333333" fill-opacity="0.5"/>
<path d="M18.607 12.5848C18.3749 12.5848 18.1452 12.6307 17.9309 12.7198C17.7167 12.8089 17.5221 12.9395 17.3584 13.1041C17.1947 13.2687 17.0651 13.4641 16.977 13.6789C16.889 13.8938 16.8442 14.1239 16.8452 14.3562V30.667H20.3767V14.3562C20.3767 13.8864 20.1902 13.4358 19.8583 13.1037C19.5265 12.7715 19.0763 12.5848 18.607 12.5848Z" fill="#333333" fill-opacity="0.5"/>
<path d="M26.4306 7.74368C26.4306 7.27389 26.2441 6.82334 25.9122 6.49115C25.5803 6.15896 25.1302 5.97234 24.6608 5.97234C24.1915 5.97234 23.7413 6.15896 23.4095 6.49115C23.0776 6.82334 22.8911 7.27389 22.8911 7.74368V30.667H26.4306V7.74368Z" fill="#333333" fill-opacity="0.5"/>
<path d="M32.5165 16.5203C32.5165 16.0505 32.3301 15.5999 31.9982 15.2677C31.6663 14.9355 31.2161 14.7489 30.7468 14.7489C30.2774 14.7489 29.8273 14.9355 29.4954 15.2677C29.1635 15.5999 28.9771 16.0505 28.9771 16.5203V30.667H32.5165V16.5203Z" fill="#333333" fill-opacity="0.5"/>
<path d="M36.1605 32.238H8.93384V5.23493C8.93384 5.13915 8.91499 5.0443 8.87837 4.95581C8.84175 4.86732 8.78808 4.78691 8.72041 4.71918C8.65274 4.65146 8.57241 4.59773 8.484 4.56107C8.39559 4.52442 8.30083 4.50555 8.20513 4.50555C8.10944 4.50555 8.01468 4.52442 7.92627 4.56107C7.83785 4.59773 7.75752 4.65146 7.68985 4.71918C7.62219 4.78691 7.56851 4.86732 7.53189 4.95581C7.49527 5.0443 7.47642 5.13915 7.47642 5.23493V32.238H5.21821C5.11555 32.2272 5.01178 32.2382 4.91363 32.2701C4.81547 32.3021 4.72512 32.3543 4.64843 32.4235C4.57174 32.4926 4.51042 32.5771 4.46845 32.6715C4.42647 32.7659 4.40479 32.868 4.40479 32.9714C4.40479 33.0747 4.42647 33.1768 4.46845 33.2712C4.51042 33.3656 4.57174 33.4501 4.64843 33.5192C4.72512 33.5884 4.81547 33.6406 4.91363 33.6726C5.01178 33.7045 5.11555 33.7155 5.21821 33.7047H7.44439V35.404C7.44439 35.5974 7.52116 35.7829 7.65782 35.9197C7.79448 36.0565 7.97983 36.1333 8.1731 36.1333C8.36637 36.1333 8.55172 36.0565 8.68838 35.9197C8.82504 35.7829 8.90181 35.5974 8.90181 35.404V33.7047H36.1284C36.2311 33.7155 36.3349 33.7045 36.433 33.6726C36.5312 33.6406 36.6215 33.5884 36.6982 33.5192C36.7749 33.4501 36.8362 33.3656 36.8782 33.2712C36.9202 33.1768 36.9419 33.0747 36.9419 32.9714C36.9419 32.868 36.9202 32.7659 36.8782 32.6715C36.8362 32.5771 36.7749 32.4926 36.6982 32.4235C36.6215 32.3543 36.5312 32.3021 36.433 32.2701C36.3349 32.2382 36.2311 32.2272 36.1284 32.238H36.1605Z" fill="#333333" fill-opacity="0.5"/>
<path d="M10.7914 18.9408C10.861 18.9415 10.9298 18.9259 10.9924 18.8952C11.0549 18.8646 11.1095 18.8199 11.1518 18.7645L20.2807 7.03033V8.02421C20.2796 8.08382 20.2905 8.14305 20.3125 8.19844C20.3346 8.25382 20.3674 8.30425 20.4092 8.34679C20.4509 8.38932 20.5007 8.4231 20.5557 8.44615C20.6106 8.46921 20.6696 8.48108 20.7291 8.48107C20.8502 8.48107 20.9663 8.43294 21.0519 8.34726C21.1375 8.26158 21.1856 8.14538 21.1856 8.02421V5.70783C21.1929 5.66271 21.1929 5.6167 21.1856 5.57157C21.1856 5.57157 21.1856 5.57157 21.1856 5.52348C21.1547 5.46612 21.114 5.41459 21.0655 5.37119C21.0133 5.33902 20.9566 5.31471 20.8973 5.29906H20.6811L18.4709 5.90019C18.4127 5.9142 18.3578 5.93974 18.3096 5.97532C18.2614 6.0109 18.2207 6.0558 18.1901 6.10735C18.1595 6.1589 18.1396 6.21607 18.1314 6.27548C18.1232 6.33489 18.127 6.39533 18.1426 6.45324C18.1575 6.51186 18.1839 6.56693 18.2202 6.61527C18.2566 6.6636 18.3021 6.70423 18.3543 6.7348C18.4064 6.76537 18.4641 6.78527 18.524 6.79335C18.5839 6.80143 18.6448 6.79752 18.7032 6.78186L19.544 6.50934L10.4311 18.2034C10.3932 18.2504 10.3652 18.3045 10.3487 18.3625C10.3322 18.4205 10.3275 18.4812 10.335 18.5411C10.3425 18.6009 10.3619 18.6587 10.3922 18.7108C10.4225 18.763 10.4629 18.8085 10.5111 18.8447C10.5907 18.9082 10.6897 18.9421 10.7914 18.9408Z" fill="#333333" fill-opacity="0.5"/>
</svg>
