<svg width="33" height="33" viewBox="0 0 33 33" fill="none" xmlns="http://www.w3.org/2000/svg">
<g clip-path="url(#clip0_595_7842)">
<path d="M32.9367 22.0489L30.3159 20.9899C30.3603 20.4199 30.3603 19.8473 30.3159 19.2774L32.9367 18.1733C32.9801 18.1591 33.02 18.1353 33.0533 18.1037C33.0867 18.072 33.1128 18.0333 33.1298 17.9903C33.1467 17.9473 33.1541 17.901 33.1515 17.8548C33.1488 17.8085 33.1361 17.7634 33.1143 17.7227L31.2265 13.3514C31.1918 13.2666 31.1266 13.1983 31.044 13.1606C30.9615 13.123 30.8678 13.1187 30.7823 13.1486L28.2503 14.2302C27.8899 13.7933 27.4882 13.3933 27.051 13.0359L28.1393 10.3771C28.1688 10.2903 28.1645 10.1953 28.1274 10.1116C28.0902 10.0278 28.023 9.96164 27.9394 9.92648L23.6084 8.12389C23.5228 8.09393 23.4292 8.09824 23.3466 8.13593C23.2641 8.17361 23.1988 8.24184 23.1642 8.32668L22.0759 10.963C21.5141 10.9179 20.9497 10.9179 20.3879 10.963L19.2996 8.32668C19.2827 8.2848 19.2576 8.2468 19.2259 8.21493C19.1942 8.18306 19.1565 8.15797 19.1151 8.14116C19.0737 8.12435 19.0293 8.11615 18.9847 8.11705C18.9401 8.11796 18.8961 8.12794 18.8554 8.14642L14.5244 9.94901C14.4408 9.98417 14.3735 10.0504 14.3364 10.1341C14.2992 10.2179 14.295 10.3128 14.3245 10.3997L15.4128 13.0359C14.9875 13.4074 14.5938 13.8144 14.2357 14.2527L11.5927 13.1711C11.5525 13.149 11.5081 13.1362 11.4625 13.1335C11.4169 13.1308 11.3713 13.1383 11.3289 13.1555C11.2865 13.1727 11.2483 13.1992 11.2171 13.233C11.1859 13.2669 11.1625 13.3073 11.1485 13.3514L9.37164 17.7227C9.35343 17.764 9.34358 17.8086 9.34269 17.8539C9.3418 17.8991 9.34988 17.9441 9.36646 17.9862C9.38303 18.0282 9.40775 18.0664 9.43917 18.0986C9.47058 18.1307 9.50804 18.1561 9.54932 18.1733L12.1701 19.2549C12.1257 19.8248 12.1257 20.3974 12.1701 20.9673L9.54932 22.0714C9.50586 22.0857 9.46603 22.1095 9.43266 22.1411C9.39928 22.1727 9.37319 22.2114 9.35622 22.2544C9.33926 22.2975 9.33185 22.3438 9.33451 22.39C9.33718 22.4363 9.34985 22.4814 9.37164 22.5221L11.2373 26.8934C11.248 26.9369 11.2703 26.9767 11.3015 27.0084C11.3328 27.0402 11.372 27.0627 11.415 27.0736C11.4561 27.0953 11.5018 27.1067 11.5482 27.1067C11.5946 27.1067 11.6403 27.0953 11.6815 27.0736L14.3023 25.9921C14.6627 26.4289 15.0644 26.8289 15.5017 27.1863L14.4134 29.8451C14.3838 29.9319 14.3881 30.0269 14.4252 30.1106C14.4624 30.1944 14.5296 30.2606 14.6132 30.2958L19.0553 32.0983C19.1409 32.1283 19.2345 32.124 19.317 32.0863C19.3996 32.0486 19.4648 31.9804 19.4995 31.8956L20.5878 29.2593C21.1496 29.3043 21.714 29.3043 22.2758 29.2593L23.3641 31.8956C23.3821 31.9388 23.4094 31.9774 23.4439 32.0086C23.4785 32.0398 23.5195 32.0627 23.564 32.0758C23.6051 32.0975 23.6508 32.1089 23.6972 32.1089C23.7436 32.1089 23.7893 32.0975 23.8305 32.0758L28.1393 30.2732C28.2229 30.2381 28.2901 30.1719 28.3273 30.0881C28.3644 30.0044 28.3687 29.9094 28.3392 29.8226L27.2509 27.1638C27.6812 26.8061 28.0755 26.4061 28.428 25.9695L31.071 27.0511C31.1112 27.0732 31.1556 27.0861 31.2012 27.0888C31.2468 27.0915 31.2924 27.0839 31.3348 27.0667C31.3772 27.0495 31.4154 27.023 31.4465 26.9892C31.4777 26.9553 31.5012 26.9149 31.5152 26.8708L33.3142 22.4995C33.3288 22.4434 33.3298 22.3845 33.3171 22.3278C33.3044 22.2712 33.2784 22.2185 33.2413 22.1743C33.2043 22.13 33.1572 22.0955 33.1042 22.0737C33.0511 22.0519 32.9937 22.0434 32.9367 22.0489ZM19.2552 24.9781C18.0039 24.4533 17.0065 23.45 16.4786 22.185C15.9508 20.92 15.9349 19.4951 16.4345 18.2184C16.9651 16.9275 17.9777 15.902 19.251 15.3659C20.5244 14.8297 21.9551 14.8265 23.2308 15.3568C24.4859 15.8768 25.4872 16.8797 26.0157 18.1463C26.5442 19.4129 26.5571 20.8403 26.0515 22.1165C25.5209 23.4074 24.5083 24.4329 23.235 24.969C21.9616 25.5052 20.5309 25.5084 19.2552 24.9781Z" fill="#333333" fill-opacity="0.5"/>
<path d="M12.3445 9.08855L11.3384 8.15278C11.4707 7.91609 11.5707 7.66278 11.6356 7.3996H12.9619C13.0063 7.39402 13.0472 7.37234 13.0767 7.33868C13.1062 7.30503 13.1223 7.26173 13.1219 7.21701V4.93466C13.1164 4.89635 13.0971 4.86136 13.0677 4.83617C13.0382 4.81098 13.0006 4.79732 12.9619 4.79772H11.5899C11.4971 4.54844 11.3902 4.3046 11.2698 4.06736L12.2073 3.06313C12.2073 3.06313 12.2073 2.90336 12.2073 2.83489L10.5609 1.30571C10.546 1.29053 10.5282 1.27847 10.5086 1.27023C10.4889 1.262 10.4679 1.25776 10.4466 1.25776C10.4253 1.25776 10.4042 1.262 10.3846 1.27023C10.3649 1.27847 10.3471 1.29053 10.3322 1.30571L9.34898 2.24148C9.1082 2.123 8.85517 2.03116 8.59438 1.9676V0.598183C8.57189 0.56635 8.53978 0.542532 8.50275 0.530213C8.46572 0.517894 8.42572 0.517718 8.38859 0.529711H6.10194C6.05714 0.529361 6.01377 0.545434 5.98005 0.574883C5.94633 0.604331 5.92461 0.645107 5.91901 0.689477L6.10194 2.24148C5.84474 2.31465 5.59862 2.42213 5.37022 2.56101L4.36409 1.62524C4.34919 1.61006 4.3314 1.598 4.31177 1.58976C4.29214 1.58153 4.27106 1.57729 4.24976 1.57729C4.22847 1.57729 4.20739 1.58153 4.18775 1.58976C4.16812 1.598 4.15033 1.61006 4.13543 1.62524L2.58051 3.24572C2.54835 3.27963 2.53043 3.32455 2.53043 3.37124C2.53043 3.41794 2.54835 3.46286 2.58051 3.49677L3.58664 4.40972C3.45414 4.65437 3.35421 4.91524 3.28937 5.18572H1.91739C1.87494 5.18572 1.83422 5.20255 1.80421 5.23251C1.77419 5.26247 1.75732 5.30311 1.75732 5.34548V7.62784C1.75732 7.62784 1.75732 7.62784 1.87165 7.62784H3.24364C3.32678 7.88092 3.43397 8.12549 3.56377 8.35819L2.62625 9.33961C2.60027 9.37199 2.58612 9.41224 2.58612 9.45372C2.58612 9.49521 2.60027 9.53546 2.62625 9.56784L4.27263 11.1198C4.30508 11.1458 4.3454 11.1599 4.38696 11.1599C4.42852 11.1599 4.46885 11.1458 4.50129 11.1198L5.46168 10.1156C5.6971 10.2513 5.95141 10.3513 6.21627 10.4123V11.7589C6.20058 11.8032 6.20058 11.8515 6.21627 11.8958H8.50292C8.50292 11.8958 8.68585 11.8958 8.66298 11.7361V10.3667C8.91654 10.2837 9.16157 10.1767 9.39471 10.0471L10.4008 10.9829C10.4333 11.0088 10.4736 11.023 10.5152 11.023C10.5567 11.023 10.597 11.0088 10.6295 10.9829L12.1844 9.36243C12.2203 9.37774 12.2605 9.37944 12.2976 9.36722C12.3346 9.35499 12.3659 9.32967 12.3856 9.29603C12.4053 9.26239 12.4119 9.22273 12.4044 9.18452C12.3968 9.14631 12.3755 9.11218 12.3445 9.08855ZM5.69035 8.03866C5.45666 7.80926 5.27107 7.53573 5.14438 7.234C5.01769 6.93228 4.95244 6.6084 4.95244 6.28125C4.95244 5.9541 5.01769 5.63022 5.14438 5.32849C5.27107 5.02677 5.45666 4.75323 5.69035 4.52383C6.16152 4.05693 6.79854 3.79491 7.46249 3.79491C8.12644 3.79491 8.76347 4.05693 9.23464 4.52383C9.46833 4.75323 9.65392 5.02677 9.78061 5.32849C9.9073 5.63022 9.97255 5.9541 9.97255 6.28125C9.97255 6.6084 9.9073 6.93228 9.78061 7.234C9.65392 7.53573 9.46833 7.80926 9.23464 8.03866C8.7606 8.50012 8.12465 8.7584 7.46249 8.7584C6.80033 8.7584 6.16439 8.50012 5.69035 8.03866Z" fill="#333333" fill-opacity="0.5"/>
</g>
<defs>
<clipPath id="clip0_595_7842">
<rect width="31.8588" height="31.8879" fill="white" transform="translate(0.494629 0.520844)"/>
</clipPath>
</defs>
</svg>
