<svg width="26" height="26" viewBox="0 0 26 26" fill="none" xmlns="http://www.w3.org/2000/svg">
<g clip-path="url(#clip0_821_1399)">
<path d="M26.1917 17.5332L24.1162 16.6953C24.1514 16.2444 24.1514 15.7913 24.1162 15.3404L26.1917 14.4668C26.2261 14.4555 26.2577 14.4367 26.2841 14.4117C26.3105 14.3867 26.3312 14.356 26.3446 14.322C26.3581 14.288 26.3639 14.2513 26.3618 14.2147C26.3597 14.1781 26.3497 14.1425 26.3324 14.1103L24.8374 10.6517C24.8099 10.5845 24.7582 10.5305 24.6929 10.5007C24.6275 10.4709 24.5534 10.4675 24.4856 10.4912L22.4804 11.3469C22.1951 11.0013 21.8769 10.6848 21.5306 10.4021L22.3925 8.29838C22.4159 8.22969 22.4125 8.15455 22.3831 8.08829C22.3537 8.02203 22.3004 7.96964 22.2342 7.94183L18.8043 6.5156C18.7366 6.4919 18.6624 6.49531 18.5971 6.52512C18.5317 6.55494 18.48 6.60892 18.4526 6.67605L17.5907 8.76191C17.1458 8.72624 16.6988 8.72624 16.254 8.76191L15.3921 6.67605C15.3787 6.64291 15.3588 6.61284 15.3337 6.58763C15.3086 6.56241 15.2788 6.54257 15.246 6.52926C15.2132 6.51596 15.1781 6.50948 15.1427 6.51019C15.1074 6.51091 15.0726 6.51881 15.0403 6.53343L11.6105 7.95965C11.5442 7.98747 11.491 8.03985 11.4616 8.10612C11.4321 8.17238 11.4288 8.24752 11.4522 8.31621L12.314 10.4021C11.9772 10.6959 11.6654 11.018 11.3818 11.3648L9.28872 10.509C9.25693 10.4915 9.22173 10.4814 9.18562 10.4792C9.14951 10.4771 9.11338 10.483 9.0798 10.4967C9.04622 10.5103 9.01601 10.5312 8.99132 10.558C8.96663 10.5848 8.94806 10.6168 8.93694 10.6517L7.52982 14.1103C7.5154 14.1429 7.5076 14.1783 7.50689 14.2141C7.50619 14.2499 7.51259 14.2855 7.52571 14.3187C7.53884 14.352 7.55842 14.3822 7.5833 14.4077C7.60817 14.4331 7.63784 14.4532 7.67053 14.4668L9.74603 15.3225C9.71085 15.7735 9.71085 16.2265 9.74603 16.6775L7.67053 17.551C7.63612 17.5623 7.60457 17.5811 7.57814 17.6061C7.55171 17.6312 7.53105 17.6618 7.51761 17.6958C7.50418 17.7299 7.49831 17.7665 7.50042 17.8031C7.50253 17.8397 7.51257 17.8754 7.52982 17.9076L9.00729 21.3662C9.0158 21.4006 9.03339 21.4321 9.05817 21.4572C9.08296 21.4823 9.11401 21.5002 9.14801 21.5088C9.1806 21.526 9.2168 21.535 9.25354 21.535C9.29028 21.535 9.32648 21.526 9.35908 21.5088L11.4346 20.6531C11.72 20.9987 12.0381 21.3152 12.3844 21.5979L11.5225 23.7016C11.4991 23.7703 11.5025 23.8454 11.5319 23.9117C11.5613 23.978 11.6146 24.0304 11.6808 24.0582L15.1986 25.4844C15.2664 25.5081 15.3405 25.5047 15.4059 25.4749C15.4713 25.4451 15.5229 25.3911 15.5504 25.3239L16.4122 23.2381C16.8571 23.2738 17.3041 23.2738 17.749 23.2381L18.6109 25.3239C18.6251 25.3582 18.6467 25.3887 18.6741 25.4134C18.7015 25.4381 18.734 25.4562 18.7692 25.4666C18.8018 25.4838 18.838 25.4927 18.8747 25.4927C18.9114 25.4927 18.9476 25.4838 18.9802 25.4666L22.3925 24.0403C22.4587 24.0125 22.512 23.9601 22.5414 23.8939C22.5708 23.8276 22.5742 23.7525 22.5508 23.6838L21.6889 21.5801C22.0297 21.2971 22.342 20.9806 22.6212 20.6352L24.7142 21.491C24.746 21.5085 24.7812 21.5186 24.8173 21.5208C24.8534 21.5229 24.8896 21.517 24.9232 21.5033C24.9567 21.4897 24.9869 21.4688 25.0116 21.442C25.0363 21.4152 25.0549 21.3832 25.066 21.3483L26.4907 17.8897C26.5023 17.8453 26.503 17.7987 26.493 17.7539C26.4829 17.7091 26.4624 17.6674 26.433 17.6324C26.4036 17.5974 26.3664 17.5701 26.3244 17.5528C26.2823 17.5355 26.2368 17.5288 26.1917 17.5332ZM15.3569 19.8508C14.366 19.4356 13.5761 18.6417 13.1581 17.6409C12.74 16.64 12.7275 15.5126 13.1231 14.5025C13.5434 13.4811 14.3452 12.6697 15.3536 12.2455C16.362 11.8213 17.4951 11.8187 18.5053 12.2383C19.4993 12.6498 20.2922 13.4433 20.7108 14.4454C21.1293 15.4476 21.1395 16.5769 20.7391 17.5867C20.3189 18.6081 19.517 19.4194 18.5086 19.8436C17.5002 20.2678 16.3672 20.2704 15.3569 19.8508Z" fill="#333333" fill-opacity="0.5"/>
<path d="M9.8843 7.27884L9.08752 6.53846C9.19232 6.35119 9.2715 6.15077 9.32293 5.94254H10.3732C10.4084 5.93811 10.4408 5.92096 10.4642 5.89433C10.4875 5.8677 10.5003 5.83345 10.5 5.79807V3.99225C10.4956 3.96194 10.4803 3.93425 10.457 3.91433C10.4337 3.8944 10.4039 3.88359 10.3732 3.8839H9.28672C9.2132 3.68667 9.12856 3.49374 9.0332 3.30604L9.77565 2.51148C9.77565 2.51148 9.77565 2.38507 9.77565 2.3309L8.47183 1.121C8.46003 1.10898 8.44594 1.09944 8.43039 1.09293C8.41484 1.08641 8.39815 1.08305 8.38128 1.08305C8.36442 1.08305 8.34773 1.08641 8.33218 1.09293C8.31663 1.09944 8.30254 1.10898 8.29074 1.121L7.51207 1.86138C7.32139 1.76764 7.12101 1.69497 6.91448 1.64468V0.561191C6.89667 0.536005 6.87124 0.51716 6.84192 0.507413C6.81259 0.497666 6.78091 0.497527 6.75151 0.507016H4.94064C4.90516 0.506739 4.87081 0.519457 4.84411 0.542756C4.81741 0.566056 4.80021 0.598318 4.79577 0.633424L4.94064 1.86138C4.73696 1.91927 4.54204 2.00431 4.36117 2.1142L3.56438 1.37381C3.55258 1.3618 3.53849 1.35225 3.52295 1.34574C3.5074 1.33922 3.49071 1.33587 3.47384 1.33587C3.45698 1.33587 3.44028 1.33922 3.42473 1.34574C3.40919 1.35225 3.3951 1.3618 3.3833 1.37381L2.15191 2.65594C2.12644 2.68277 2.11224 2.71832 2.11224 2.75526C2.11224 2.79221 2.12644 2.82775 2.15191 2.85458L2.94869 3.57691C2.84376 3.77048 2.76462 3.97689 2.71328 4.19089H1.62676C1.59314 4.19089 1.5609 4.20421 1.53713 4.22791C1.51335 4.25162 1.5 4.28377 1.5 4.3173V6.12312C1.5 6.12312 1.5 6.12312 1.59054 6.12312H2.67706C2.7429 6.32336 2.82779 6.51686 2.93058 6.70098L2.18813 7.47748C2.16756 7.5031 2.15635 7.53495 2.15635 7.56777C2.15635 7.6006 2.16756 7.63244 2.18813 7.65806L3.49195 8.88602C3.51765 8.90654 3.54958 8.91771 3.58249 8.91771C3.61541 8.91771 3.64734 8.90654 3.67304 8.88602L4.4336 8.09146C4.62003 8.1988 4.82143 8.27792 5.03118 8.32622V9.39165C5.01876 9.4267 5.01876 9.46495 5.03118 9.5H6.84205C6.84205 9.5 6.98692 9.5 6.96881 9.37359V8.2901C7.16961 8.22445 7.36365 8.13979 7.54829 8.03729L8.34507 8.77767C8.37076 8.79819 8.4027 8.80937 8.43561 8.80937C8.46853 8.80937 8.50046 8.79819 8.52615 8.77767L9.75754 7.49554C9.78596 7.50766 9.81783 7.509 9.84717 7.49933C9.87651 7.48965 9.9013 7.46962 9.91687 7.443C9.93244 7.41639 9.93772 7.38501 9.93173 7.35478C9.92573 7.32455 9.90886 7.29754 9.8843 7.27884ZM4.61469 6.44817C4.42962 6.26666 4.28265 6.05024 4.18232 5.81151C4.08199 5.57278 4.03032 5.31653 4.03032 5.05768C4.03032 4.79884 4.08199 4.54258 4.18232 4.30386C4.28265 4.06513 4.42962 3.8487 4.61469 3.6672C4.98783 3.29778 5.4923 3.09047 6.01811 3.09047C6.54391 3.09047 7.04839 3.29778 7.42153 3.6672C7.60659 3.8487 7.75357 4.06513 7.8539 4.30386C7.95423 4.54258 8.00589 4.79884 8.00589 5.05768C8.00589 5.31653 7.95423 5.57278 7.8539 5.81151C7.75357 6.05024 7.60659 6.26666 7.42153 6.44817C7.04612 6.81327 6.54249 7.01762 6.01811 7.01762C5.49372 7.01762 4.9901 6.81327 4.61469 6.44817Z" fill="#333333" fill-opacity="0.5"/>
</g>
<defs>
<clipPath id="clip0_821_1399">
<rect width="25.23" height="25.23" fill="white" transform="translate(0.5 0.5)"/>
</clipPath>
</defs>
</svg>
