<svg width="32" height="32" viewBox="0 0 32 32" fill="none" xmlns="http://www.w3.org/2000/svg">
<path d="M8.16137 17.262V24.1871H10.958V17.262C10.971 17.0704 10.9444 16.8783 10.8799 16.6974C10.8155 16.5166 10.7146 16.3509 10.5835 16.2106C10.4524 16.0704 10.2939 15.9586 10.1177 15.8822C9.94163 15.8057 9.7517 15.7663 9.55971 15.7663C9.36772 15.7663 9.17779 15.8057 9.00167 15.8822C8.82556 15.9586 8.66704 16.0704 8.53592 16.2106C8.40481 16.3509 8.30391 16.5166 8.23948 16.6974C8.17505 16.8783 8.14847 17.0704 8.16137 17.262Z" fill="#333333" fill-opacity="0.5"/>
<path d="M14.3512 9.88029C14.1675 9.88029 13.9855 9.91659 13.8159 9.9871C13.6462 10.0576 13.4921 10.1609 13.3625 10.2912C13.2328 10.4214 13.1302 10.5759 13.0604 10.7459C12.9907 10.9159 12.9552 11.0981 12.9561 11.2818V24.1871H15.7527V11.2818C15.7527 10.9101 15.6051 10.5536 15.3422 10.2908C15.0794 10.028 14.7229 9.88029 14.3512 9.88029Z" fill="#333333" fill-opacity="0.5"/>
<path d="M20.5472 6.04994C20.5472 5.67824 20.3995 5.32176 20.1367 5.05893C19.8738 4.7961 19.5173 4.64844 19.1456 4.64844C18.7739 4.64844 18.4175 4.7961 18.1546 5.05893C17.8918 5.32176 17.7441 5.67824 17.7441 6.04994V24.1871H20.5472V6.04994Z" fill="#333333" fill-opacity="0.5"/>
<path d="M25.3665 12.9941C25.3665 12.6223 25.2188 12.2659 24.956 12.003C24.6932 11.7402 24.3367 11.5925 23.965 11.5925C23.5933 11.5925 23.2368 11.7402 22.974 12.003C22.7111 12.2659 22.5635 12.6223 22.5635 12.9941V24.1871H25.3665V12.9941Z" fill="#333333" fill-opacity="0.5"/>
<path d="M28.2519 25.43H6.69022V4.06501C6.69022 3.98922 6.67529 3.91418 6.64629 3.84416C6.61729 3.77415 6.57478 3.71053 6.5212 3.65694C6.46761 3.60335 6.40399 3.56085 6.33397 3.53184C6.26396 3.50284 6.18892 3.48792 6.11313 3.48792C6.03735 3.48792 5.9623 3.50284 5.89229 3.53184C5.82227 3.56085 5.75865 3.60335 5.70507 3.65694C5.65148 3.71053 5.60897 3.77415 5.57997 3.84416C5.55097 3.91418 5.53604 3.98922 5.53604 4.06501V25.43H3.74769C3.6664 25.4215 3.58422 25.4302 3.50648 25.4555C3.42875 25.4808 3.3572 25.5221 3.29647 25.5768C3.23573 25.6315 3.18717 25.6984 3.15393 25.7731C3.12069 25.8477 3.10352 25.9286 3.10352 26.0103C3.10352 26.0921 3.12069 26.1729 3.15393 26.2476C3.18717 26.3222 3.23573 26.3891 3.29647 26.4438C3.3572 26.4985 3.42875 26.5398 3.50648 26.5651C3.58422 26.5904 3.6664 26.5991 3.74769 26.5906H5.51067V27.935C5.51067 28.0881 5.57147 28.2348 5.6797 28.3431C5.78792 28.4513 5.93471 28.5121 6.08776 28.5121C6.24082 28.5121 6.3876 28.4513 6.49583 28.3431C6.60405 28.2348 6.66485 28.0881 6.66485 27.935V26.5906H28.2265C28.3078 26.5991 28.39 26.5904 28.4677 26.5651C28.5454 26.5398 28.617 26.4985 28.6777 26.4438C28.7384 26.3891 28.787 26.3222 28.8202 26.2476C28.8535 26.1729 28.8707 26.0921 28.8707 26.0103C28.8707 25.9286 28.8535 25.8477 28.8202 25.7731C28.787 25.6984 28.7384 25.6315 28.6777 25.5768C28.617 25.5221 28.5454 25.4808 28.4677 25.4555C28.39 25.4302 28.3078 25.4215 28.2265 25.43H28.2519Z" fill="#333333" fill-opacity="0.5"/>
<path d="M8.16204 14.9092C8.21718 14.9097 8.27167 14.8974 8.3212 14.8732C8.37073 14.8489 8.41395 14.8135 8.44742 14.7697L15.6769 5.48554V6.2719C15.6761 6.31907 15.6846 6.36593 15.7021 6.40975C15.7196 6.45357 15.7456 6.49348 15.7787 6.52713C15.8117 6.56078 15.8511 6.58751 15.8947 6.60575C15.9382 6.62399 15.9849 6.63338 16.032 6.63338C16.1279 6.63338 16.2199 6.59529 16.2876 6.5275C16.3554 6.45971 16.3935 6.36777 16.3935 6.2719V4.43916C16.3993 4.40346 16.3993 4.36706 16.3935 4.33135C16.3935 4.33135 16.3935 4.33135 16.3935 4.2933C16.369 4.24792 16.3369 4.20715 16.2984 4.17281C16.257 4.14735 16.2122 4.12812 16.1652 4.11574H15.994L14.2437 4.59136C14.1976 4.60244 14.1541 4.62265 14.1159 4.65081C14.0777 4.67896 14.0456 4.71448 14.0213 4.75527C13.9971 4.79605 13.9813 4.84129 13.9748 4.88829C13.9683 4.9353 13.9714 4.98312 13.9837 5.02894C13.9955 5.07532 14.0164 5.11889 14.0452 5.15713C14.0739 5.19538 14.11 5.22752 14.1513 5.25171C14.1926 5.2759 14.2383 5.29164 14.2857 5.29804C14.3331 5.30443 14.3814 5.30134 14.4276 5.28894L15.0935 5.07333L7.87667 14.3258C7.84669 14.3629 7.8245 14.4057 7.81143 14.4516C7.79836 14.4975 7.79467 14.5456 7.80059 14.5929C7.80651 14.6403 7.82192 14.686 7.84588 14.7272C7.86985 14.7685 7.90189 14.8045 7.94009 14.8331C8.00306 14.8834 8.08149 14.9103 8.16204 14.9092Z" fill="#333333" fill-opacity="0.5"/>
</svg>
